{"glyphs":{"0":{"ha":1060,"x_min":65,"x_max":990,"o":"m 65 394 q 96 633 65 526 q 185 813 126 739 q 331 927 244 888 q 528 967 417 967 q 723 927 638 967 q 868 813 808 888 q 959 633 928 739 q 990 394 990 526 q 961 156 990 263 q 874 -25 932 50 q 728 -140 815 -100 q 528 -181 642 -181 q 331 -140 417 -181 q 185 -25 244 -100 q 96 156 126 50 q 65 394 65 263 m 285 394 q 304 210 285 286 q 357 84 324 133 q 434 12 390 35 q 528 -11 478 -11 q 624 12 579 -11 q 701 84 668 35 q 753 210 735 133 q 772 394 772 286 q 753 578 772 501 q 701 703 735 654 q 624 774 668 751 q 528 797 579 797 q 434 774 478 797 q 357 703 390 751 q 304 578 324 654 q 285 394 285 501 z "},"1":{"ha":581,"x_min":35,"x_max":449,"o":"m 35 940 l 449 940 l 449 -153 l 229 -153 l 229 771 l 35 771 l 35 940 z "},"2":{"ha":1013,"x_min":60,"x_max":924,"o":"m 89 -153 l 89 -25 l 447 289 q 534 371 494 331 q 603 451 574 411 q 649 532 632 492 q 665 613 665 572 q 617 748 665 699 q 481 797 568 797 q 332 735 399 797 q 229 576 265 674 l 60 669 q 122 790 83 735 q 216 884 161 844 q 342 945 271 924 q 500 967 413 967 q 647 945 576 967 q 770 880 717 924 q 853 769 824 836 q 881 610 883 701 q 859 509 879 561 q 805 404 839 457 q 725 299 771 351 q 625 200 679 247 l 414 15 l 924 15 l 924 -153 l 89 -153 z "},"3":{"ha":999,"x_min":64,"x_max":929,"o":"m 88 714 q 147 821 108 774 q 238 900 186 868 q 353 949 290 932 q 486 967 417 967 q 653 942 578 967 q 783 876 729 918 q 868 776 838 833 q 899 651 899 718 q 859 501 899 567 q 740 408 819 436 q 874 317 819 382 q 929 156 929 253 q 897 15 929 78 q 805 -91 864 -47 q 664 -158 746 -135 q 485 -181 582 -181 q 351 -166 415 -181 q 231 -122 286 -151 q 133 -46 176 -92 q 64 64 90 0 l 249 153 q 283 85 260 115 q 338 33 307 54 q 406 1 369 13 q 479 -11 442 -11 q 644 30 579 -11 q 710 154 710 71 q 691 231 710 200 q 640 280 672 261 q 567 307 608 299 q 479 315 525 315 l 374 315 l 374 485 l 479 485 q 554 492 518 485 q 618 517 590 500 q 663 563 646 535 q 679 635 679 592 q 621 755 679 713 q 474 797 563 797 q 347 750 403 797 q 264 631 292 703 l 88 714 z "},"4":{"ha":972,"x_min":49,"x_max":931,"o":"m 49 61 l 49 231 l 556 940 l 775 940 l 775 231 l 931 231 l 931 61 l 775 61 l 775 -153 l 556 -153 l 556 61 l 49 61 m 556 667 l 260 231 l 556 231 l 556 667 z "},"5":{"ha":997,"x_min":67,"x_max":928,"o":"m 492 -181 q 341 -161 411 -181 q 215 -106 271 -142 q 122 -18 160 -69 q 67 97 83 33 l 246 169 q 285 97 263 131 q 338 40 308 64 q 406 3 368 17 q 493 -11 444 -11 q 585 5 544 -11 q 653 49 625 21 q 694 115 681 78 q 708 196 708 153 q 650 350 708 292 q 478 408 592 408 q 387 385 436 408 q 303 318 338 363 l 104 318 l 104 940 l 869 940 l 869 771 l 324 771 l 324 518 q 536 578 408 578 q 686 551 615 578 q 810 476 757 525 q 896 358 864 428 q 928 199 928 288 q 897 56 928 125 q 810 -65 867 -12 q 672 -149 753 -118 q 492 -181 592 -181 z "},"6":{"ha":1000,"x_min":76,"x_max":935,"o":"m 665 940 l 454 560 q 572 572 506 572 q 710 544 644 572 q 826 468 776 517 q 906 353 876 419 q 935 211 935 288 q 901 47 935 119 q 808 -76 867 -26 q 667 -153 749 -126 q 492 -181 586 -181 q 338 -155 413 -181 q 204 -81 263 -129 q 111 35 146 -33 q 76 186 76 103 q 99 317 76 258 q 154 436 122 376 l 438 940 l 665 940 m 501 401 q 408 385 449 401 q 341 340 368 368 q 301 274 314 313 q 288 194 288 236 q 302 115 288 153 q 344 49 317 78 q 410 4 371 21 q 501 -12 450 -12 q 592 4 553 -12 q 659 49 632 21 q 701 115 686 78 q 715 194 715 153 q 702 274 715 236 q 662 340 689 313 q 594 385 635 368 q 501 401 554 401 z "},"7":{"ha":882,"x_min":35,"x_max":840,"o":"m 363 -153 l 128 -153 l 576 771 l 35 771 l 35 940 l 840 940 l 840 832 l 363 -153 z "},"8":{"ha":993,"x_min":76,"x_max":924,"o":"m 500 -181 q 340 -159 417 -181 q 205 -97 264 -137 q 111 2 146 -56 q 76 132 76 60 q 94 240 76 193 q 142 322 113 288 q 208 378 171 356 q 282 411 244 400 q 216 443 247 422 q 160 495 185 464 q 122 569 136 526 q 108 665 108 611 q 139 786 108 731 q 223 882 169 842 q 347 945 276 922 q 500 968 418 968 q 652 945 581 968 q 777 882 724 922 q 861 786 831 842 q 892 665 892 731 q 878 569 892 611 q 840 495 864 526 q 784 443 815 464 q 718 411 753 422 q 792 378 756 400 q 858 322 829 356 q 906 240 888 288 q 924 132 924 193 q 889 2 924 60 q 795 -97 854 -56 q 660 -159 736 -137 q 500 -181 583 -181 m 500 -25 q 580 -13 543 -25 q 644 20 617 -1 q 687 73 671 42 q 703 144 703 104 q 687 215 703 183 q 644 269 671 247 q 580 303 617 292 q 500 315 543 315 q 420 303 457 315 q 356 269 383 292 q 313 215 329 247 q 297 144 297 183 q 313 73 297 104 q 356 20 329 42 q 420 -13 383 -1 q 500 -25 457 -25 m 500 489 q 577 502 543 489 q 635 537 611 515 q 672 588 658 558 q 685 650 685 617 q 635 769 685 725 q 500 813 586 813 q 365 769 414 813 q 315 650 315 725 q 328 588 315 617 q 365 537 340 558 q 423 502 389 515 q 500 489 457 489 z "},"9":{"ha":1004,"x_min":76,"x_max":935,"o":"m 346 -153 l 557 228 q 439 215 504 215 q 301 243 367 215 q 185 319 235 271 q 106 434 135 368 q 76 576 76 500 q 110 741 76 668 q 203 864 144 814 q 344 941 263 914 q 519 968 425 968 q 674 942 599 968 q 807 867 749 915 q 900 752 865 819 q 935 601 935 685 q 912 470 935 529 q 857 351 889 411 l 574 -153 l 346 -153 m 510 386 q 603 403 563 386 q 670 447 643 419 q 710 513 697 475 q 724 593 724 551 q 709 672 724 635 q 667 738 694 710 q 601 783 640 767 q 510 800 561 800 q 419 783 458 800 q 352 738 379 767 q 310 672 325 710 q 296 593 296 635 q 309 513 296 551 q 349 447 322 475 q 417 403 376 419 q 510 386 457 386 z "}," ":{"ha":333,"x_min":0,"x_max":0,"o":""},"!":{"ha":482,"x_min":132,"x_max":350,"o":"m 132 139 l 132 996 l 350 996 l 350 139 l 132 139 m 132 -182 l 132 22 l 350 22 l 350 -182 l 132 -182 z "},"\"":{"ha":708,"x_min":104,"x_max":611,"o":"m 104 506 l 104 965 l 322 965 l 322 506 l 104 506 m 393 575 l 393 1035 l 611 1035 l 611 575 l 393 575 z "},"#":{"ha":1153,"x_min":49,"x_max":1111,"o":"m 104 697 l 354 697 l 410 940 l 586 940 l 531 697 l 771 697 l 826 940 l 1003 940 l 947 697 l 1111 697 l 1111 528 l 908 528 l 849 267 l 1056 267 l 1056 97 l 810 97 l 753 -153 l 578 -153 l 635 97 l 393 97 l 336 -153 l 160 -153 l 217 97 l 49 97 l 49 267 l 256 267 l 315 528 l 104 528 l 104 697 m 432 267 l 672 267 l 732 528 l 492 528 l 432 267 z "},"$":{"ha":990,"x_min":92,"x_max":922,"o":"m 607 1010 l 607 919 q 747 874 679 906 q 888 794 815 843 l 808 660 q 712 716 764 692 q 607 756 660 740 l 607 472 q 745 419 686 446 q 844 358 804 392 q 903 280 883 324 q 922 178 922 236 q 837 -22 922 50 q 607 -108 751 -93 l 607 -208 l 426 -208 l 426 -107 q 248 -57 329 -94 q 92 33 167 -19 l 178 174 q 291 104 226 136 q 426 56 356 72 l 426 354 q 290 408 349 381 q 192 469 231 436 q 133 545 153 503 q 114 644 114 588 q 140 766 114 715 q 208 850 165 817 q 307 901 250 883 q 426 925 364 919 l 426 1010 l 607 1010 m 724 169 q 699 240 724 213 q 607 294 674 268 l 607 46 q 695 86 667 57 q 724 169 724 115 m 313 649 q 337 581 313 607 q 426 531 361 556 l 426 768 q 313 649 313 749 z "},"%":{"ha":1250,"x_min":49,"x_max":1208,"o":"m 100 -153 l 931 940 l 1150 940 l 319 -153 l 100 -153 m 49 722 q 71 826 49 781 q 131 903 93 871 q 216 951 168 935 q 317 968 264 968 q 418 951 369 968 q 503 903 467 935 q 562 826 540 872 q 583 722 583 781 q 562 620 583 665 q 503 543 540 575 q 418 494 467 511 q 317 478 369 478 q 216 494 264 478 q 131 542 168 511 q 71 619 93 574 q 49 722 49 665 m 674 65 q 696 169 674 124 q 756 246 718 214 q 841 294 793 278 q 942 311 889 311 q 1043 294 994 311 q 1128 247 1092 278 q 1187 169 1165 215 q 1208 65 1208 124 q 1187 -37 1208 8 q 1128 -114 1165 -82 q 1043 -162 1092 -146 q 942 -179 994 -179 q 841 -162 889 -179 q 756 -115 793 -146 q 696 -37 718 -83 q 674 65 674 8 m 317 626 q 387 655 361 626 q 413 722 413 683 q 387 792 413 765 q 317 818 361 818 q 244 790 269 818 q 219 722 219 761 q 244 655 219 683 q 317 626 269 626 m 942 -31 q 1012 -2 986 -31 q 1038 65 1038 26 q 1012 135 1038 108 q 942 161 986 161 q 869 133 894 161 q 844 65 844 104 q 869 -2 844 26 q 942 -31 894 -31 z "},"&":{"ha":1143,"x_min":76,"x_max":1115,"o":"m 868 701 q 854 605 868 647 q 810 525 840 563 q 728 453 779 488 q 606 382 678 419 l 807 169 q 849 272 833 218 q 872 383 865 325 l 1065 383 q 1017 199 1049 288 q 933 38 985 111 l 1115 -154 l 871 -154 l 807 -87 q 663 -156 743 -132 q 478 -181 582 -181 q 308 -158 382 -181 q 182 -96 233 -136 q 103 -1 131 -56 q 76 119 76 54 q 88 208 76 167 q 128 288 100 250 q 203 360 156 325 q 322 428 251 394 q 242 544 278 481 q 207 685 207 608 q 231 797 207 744 q 298 887 254 849 q 404 947 342 925 q 543 968 467 968 q 677 947 617 968 q 780 891 738 926 q 845 806 822 856 q 868 701 868 757 m 494 -25 q 601 -9 553 -25 q 690 35 650 7 l 439 301 q 363 256 393 278 q 315 214 333 235 q 290 172 297 193 q 282 125 282 150 q 333 16 282 57 q 494 -25 385 -25 m 413 685 q 432 600 413 646 q 496 500 451 554 q 575 543 543 522 q 626 587 607 564 q 654 635 646 610 q 663 692 663 661 q 631 778 663 744 q 543 813 600 813 q 451 780 490 813 q 413 685 413 747 z "},"'":{"ha":438,"x_min":107,"x_max":325,"o":"m 107 575 l 107 1035 l 325 1035 l 325 575 l 107 575 z "},"(":{"ha":600,"x_min":76,"x_max":565,"o":"m 76 401 q 146 738 76 586 q 346 1010 215 889 l 565 1010 q 457 885 507 954 q 372 738 407 815 q 316 574 336 660 q 296 401 296 489 q 316 228 296 314 q 372 65 336 143 q 457 -83 407 -14 q 565 -208 507 -153 l 346 -208 q 147 65 217 -87 q 76 401 76 218 z "},")":{"ha":600,"x_min":35,"x_max":524,"o":"m 524 401 q 453 65 524 218 q 254 -208 383 -87 l 35 -208 q 143 -83 93 -153 q 228 65 193 -14 q 284 228 264 143 q 304 401 304 314 q 284 574 304 489 q 228 738 264 660 q 143 885 193 815 q 35 1010 93 954 l 254 1010 q 454 738 385 889 q 524 401 524 586 z "},"*":{"ha":649,"x_min":44,"x_max":607,"o":"m 607 706 l 451 653 l 563 514 l 438 422 l 329 567 l 224 422 l 93 514 l 201 651 l 44 704 l 101 851 l 250 794 l 250 975 l 406 975 l 406 793 l 553 850 l 607 706 z "},"+":{"ha":921,"x_min":104,"x_max":824,"o":"m 104 504 l 361 504 l 361 746 l 567 746 l 567 504 l 824 504 l 824 335 l 567 335 l 567 69 l 361 69 l 361 335 l 104 335 l 104 504 z "},",":{"ha":396,"x_min":89,"x_max":313,"o":"m 313 -161 q 256 -304 313 -261 q 94 -356 199 -347 l 94 -256 q 179 -228 153 -250 q 206 -162 206 -207 l 89 -162 l 89 49 l 313 49 l 313 -161 z "},"-":{"ha":921,"x_min":104,"x_max":824,"o":"m 104 504 l 824 504 l 824 335 l 104 335 l 104 504 z "},".":{"ha":396,"x_min":89,"x_max":313,"o":"m 89 -162 l 89 49 l 313 49 l 313 -162 l 89 -162 z "},"/":{"ha":781,"x_min":39,"x_max":753,"o":"m 39 -153 l 524 940 l 753 940 l 279 -153 l 39 -153 z "},":":{"ha":438,"x_min":107,"x_max":331,"o":"m 107 -14 l 107 197 l 331 197 l 331 -14 l 107 -14 m 107 625 l 107 836 l 331 836 l 331 625 l 107 625 z "},";":{"ha":438,"x_min":99,"x_max":331,"o":"m 107 625 l 107 836 l 331 836 l 331 625 l 107 625 m 331 -12 q 312 -98 331 -62 q 261 -156 293 -133 q 188 -191 229 -179 q 99 -207 146 -203 l 99 -121 q 197 -87 163 -115 q 231 -14 231 -60 l 107 -14 l 107 197 l 331 197 l 331 -12 z "},"<":{"ha":789,"x_min":104,"x_max":761,"o":"m 761 -87 l 621 -228 l 104 317 l 104 475 l 621 1019 l 761 879 l 303 396 l 761 -87 z "},"=":{"ha":921,"x_min":104,"x_max":824,"o":"m 104 671 l 824 671 l 824 501 l 104 501 l 104 671 m 104 338 l 824 338 l 824 168 l 104 168 l 104 338 z "},">":{"ha":789,"x_min":28,"x_max":685,"o":"m 486 396 l 28 879 l 168 1019 l 685 475 l 685 317 l 168 -228 l 28 -87 l 486 396 z "},"?":{"ha":914,"x_min":35,"x_max":844,"o":"m 324 139 l 324 449 q 432 468 378 453 q 528 511 486 483 q 598 581 571 539 q 625 682 625 624 q 608 756 625 724 q 565 810 592 789 q 502 843 538 832 q 429 854 467 854 q 352 839 388 854 q 288 798 317 824 q 240 739 260 772 q 208 668 219 706 l 35 742 q 96 870 56 817 q 190 958 136 924 q 310 1008 244 992 q 446 1025 375 1025 q 608 1001 535 1025 q 734 933 682 976 q 815 830 786 890 q 844 699 844 769 q 819 569 844 628 q 753 467 794 511 q 656 391 711 422 q 542 343 601 360 l 542 139 l 324 139 m 324 21 l 542 21 l 542 -182 l 324 -182 l 324 21 z "},"@":{"ha":1375,"x_min":76,"x_max":1306,"o":"m 1053 -131 q 876 -181 965 -167 q 688 -194 788 -194 q 447 -149 558 -194 q 253 -25 335 -104 q 124 162 171 54 q 76 396 76 269 q 124 625 76 518 q 253 812 171 732 q 449 938 336 892 q 692 983 561 983 q 938 942 825 983 q 1132 827 1050 900 q 1260 655 1214 754 q 1306 442 1306 556 q 1284 301 1306 365 q 1222 192 1263 238 q 1122 121 1181 146 q 989 96 1063 96 q 895 117 933 96 q 838 174 857 138 q 758 122 806 142 q 649 103 711 103 q 535 124 588 103 q 443 182 482 144 q 382 272 404 219 q 360 389 360 325 q 383 507 360 453 q 447 599 407 561 q 540 659 488 638 q 649 681 592 681 q 748 665 700 681 q 826 618 796 649 l 850 672 l 968 672 l 968 289 q 1025 232 968 232 q 1061 242 1043 232 q 1094 276 1079 251 q 1117 340 1108 300 q 1125 439 1125 379 q 1093 597 1125 526 q 1003 717 1061 668 q 866 794 946 767 q 690 821 786 821 q 519 789 597 821 q 385 701 442 757 q 298 567 329 644 q 267 396 267 489 q 298 224 267 301 q 385 90 329 146 q 519 2 442 33 q 688 -29 596 -29 q 844 -17 767 -29 q 1001 22 922 -6 l 1053 -131 m 796 389 q 759 484 796 447 q 663 521 722 521 q 569 484 606 521 q 533 389 533 447 q 570 297 533 332 q 663 261 607 261 q 758 297 721 261 q 796 389 796 332 z "},"A":{"ha":1122,"x_min":42,"x_max":1088,"o":"m 42 -153 l 444 940 l 685 940 l 1088 -153 l 869 -153 l 744 199 l 346 90 l 260 -153 l 42 -153 m 413 275 l 690 350 l 564 703 l 413 275 z "},"B":{"ha":1150,"x_min":104,"x_max":1081,"o":"m 1028 668 q 993 526 1028 592 q 883 421 958 461 q 965 383 928 407 q 1027 324 1001 360 q 1067 242 1053 289 q 1081 135 1081 194 q 1056 7 1081 61 q 990 -83 1032 -47 q 894 -135 949 -118 q 781 -153 840 -153 l 104 -153 l 104 940 l 728 940 q 842 925 788 940 q 938 877 896 910 q 1003 792 979 844 q 1028 668 1028 740 m 856 178 q 803 294 856 249 q 665 350 750 340 l 322 250 l 322 8 l 679 8 q 810 51 765 8 q 856 178 856 94 m 694 517 q 785 569 754 532 q 815 657 815 606 q 777 747 815 717 q 686 778 739 778 l 322 778 l 322 417 l 694 517 z "},"C":{"ha":1194,"x_min":76,"x_max":1158,"o":"m 76 394 q 118 624 76 518 q 235 806 160 729 q 418 926 311 883 q 654 969 525 969 q 1154 701 965 969 l 1014 592 q 867 745 961 689 q 657 801 772 801 q 511 769 578 801 q 397 681 444 736 q 322 552 349 626 q 296 394 296 478 q 324 235 296 308 q 403 106 351 161 q 525 19 454 50 q 683 -12 596 -12 q 786 4 738 -12 q 877 50 835 21 q 956 119 919 79 q 1019 204 992 158 l 1158 88 q 944 -112 1067 -44 q 654 -181 822 -181 q 426 -140 532 -181 q 243 -25 321 -100 q 121 156 165 50 q 76 394 76 263 z "},"D":{"ha":1150,"x_min":104,"x_max":1081,"o":"m 104 940 l 599 940 q 794 899 706 940 q 947 784 883 857 q 1045 611 1010 711 q 1081 396 1081 511 q 1044 176 1081 276 q 940 2 1008 75 q 772 -112 871 -71 q 546 -153 672 -153 l 104 -153 l 104 940 m 324 17 l 529 17 q 673 46 611 17 q 776 126 735 75 q 840 247 818 176 q 861 400 861 317 q 838 550 861 482 q 768 667 814 618 q 656 744 722 717 q 507 771 590 771 l 324 771 l 324 17 z "},"E":{"ha":1007,"x_min":104,"x_max":938,"o":"m 897 490 l 897 321 l 324 321 l 324 15 l 938 15 l 938 -153 l 104 -153 l 104 940 l 924 940 l 924 771 l 324 771 l 324 490 l 897 490 z "},"F":{"ha":951,"x_min":104,"x_max":924,"o":"m 897 490 l 897 321 l 324 321 l 324 -153 l 104 -153 l 104 940 l 924 940 l 924 771 l 324 771 l 324 490 l 897 490 z "},"G":{"ha":1258,"x_min":76,"x_max":1189,"o":"m 76 394 q 118 624 76 518 q 235 806 160 729 q 418 926 311 883 q 654 969 525 969 q 1154 701 965 969 l 1014 592 q 867 745 961 689 q 657 801 772 801 q 511 769 578 801 q 397 681 444 736 q 322 552 349 626 q 296 394 296 478 q 320 235 296 308 q 389 106 344 161 q 497 20 433 51 q 639 -11 561 -11 q 769 10 710 -11 q 872 69 828 31 q 941 161 915 107 q 969 283 967 215 l 633 283 l 633 453 l 1189 453 l 1189 347 q 1151 131 1189 228 q 1042 -35 1113 33 q 874 -142 972 -104 q 654 -181 775 -181 q 426 -140 532 -181 q 243 -25 321 -100 q 121 156 165 50 q 76 394 76 263 z "},"H":{"ha":1160,"x_min":104,"x_max":1056,"o":"m 836 -153 l 836 407 l 324 267 l 324 -153 l 104 -153 l 104 940 l 324 940 l 324 433 l 836 574 l 836 940 l 1056 940 l 1056 -153 l 836 -153 z "},"I":{"ha":414,"x_min":97,"x_max":317,"o":"m 317 940 l 317 -153 l 97 -153 l 97 940 l 317 940 z "},"J":{"ha":867,"x_min":38,"x_max":769,"o":"m 143 94 q 230 24 175 54 q 349 -7 285 -7 q 436 11 399 -7 q 499 61 474 29 q 538 136 525 93 q 550 229 550 179 l 550 940 l 769 940 l 769 244 q 743 75 769 154 q 664 -62 717 -4 q 531 -151 611 -119 q 346 -181 451 -183 q 178 -142 257 -176 q 38 -49 100 -108 l 143 94 z "},"K":{"ha":1029,"x_min":104,"x_max":1000,"o":"m 749 -153 l 324 346 l 324 -153 l 104 -153 l 104 940 l 324 940 l 324 488 l 744 940 l 996 940 l 511 417 l 1000 -153 l 749 -153 z "},"L":{"ha":943,"x_min":104,"x_max":908,"o":"m 104 940 l 324 940 l 324 17 l 908 17 l 908 -153 l 104 -153 l 104 940 z "},"M":{"ha":1404,"x_min":104,"x_max":1300,"o":"m 782 -153 l 622 -153 l 324 539 l 324 -153 l 104 -153 l 104 940 l 324 940 l 701 65 l 1081 940 l 1300 940 l 1300 -153 l 1081 -153 l 1081 539 l 782 -153 z "},"N":{"ha":1160,"x_min":104,"x_max":1056,"o":"m 104 940 l 322 940 l 836 150 l 836 940 l 1056 940 l 1056 -153 l 836 -153 l 324 633 l 324 -153 l 104 -153 l 104 940 z "},"O":{"ha":1319,"x_min":76,"x_max":1250,"o":"m 76 396 q 121 631 76 525 q 244 813 165 738 q 431 928 324 888 q 664 969 539 969 q 898 928 790 969 q 1084 813 1006 888 q 1206 631 1163 738 q 1250 396 1250 525 q 1206 159 1250 265 q 1084 -23 1163 53 q 898 -140 1006 -99 q 664 -181 790 -181 q 431 -140 539 -181 q 244 -23 324 -99 q 121 159 165 53 q 76 396 76 265 m 296 396 q 325 228 296 303 q 404 102 354 154 q 522 22 454 50 q 664 -6 589 -6 q 807 22 740 -6 q 924 102 874 50 q 1002 228 974 154 q 1031 396 1031 303 q 1002 560 1031 488 q 924 685 974 633 q 807 765 874 738 q 664 793 740 793 q 520 765 588 793 q 403 685 453 738 q 324 560 353 633 q 296 396 296 488 z "},"P":{"ha":1103,"x_min":104,"x_max":1026,"o":"m 104 940 l 690 940 q 822 921 761 940 q 929 862 883 901 q 1001 762 975 822 q 1026 619 1026 701 q 1003 484 1026 539 q 936 393 979 429 q 832 335 893 357 q 696 297 771 313 l 324 208 l 324 -153 l 104 -153 l 104 940 m 808 619 q 765 732 808 693 q 651 771 721 771 l 324 771 l 324 392 l 628 454 q 762 510 715 469 q 808 619 808 551 z "},"Q":{"ha":1299,"x_min":76,"x_max":1250,"o":"m 76 396 q 123 634 76 528 q 250 815 169 740 q 437 929 331 889 q 664 969 543 969 q 893 929 786 969 q 1079 815 1000 889 q 1204 634 1158 740 q 1250 396 1250 528 q 1211 173 1250 272 q 1103 0 1172 74 l 1185 -86 l 1056 -215 l 956 -111 q 817 -162 890 -144 q 664 -181 744 -181 q 437 -140 543 -181 q 250 -25 331 -100 q 123 156 169 50 q 76 396 76 263 m 799 315 l 961 144 q 1013 258 994 194 q 1031 396 1031 321 q 1003 562 1031 488 q 926 689 975 636 q 810 771 876 742 q 664 800 743 800 q 519 771 586 800 q 402 689 451 742 q 324 562 353 636 q 296 396 296 488 q 324 228 296 303 q 402 99 353 153 q 519 17 451 46 q 664 -12 586 -12 q 825 24 753 -12 l 669 186 l 799 315 z "},"R":{"ha":1118,"x_min":104,"x_max":1085,"o":"m 104 940 l 690 940 q 822 921 761 940 q 929 862 883 901 q 1001 762 975 822 q 1026 619 1026 701 q 977 438 1026 503 q 842 338 928 372 l 1085 -153 l 858 -153 l 642 283 l 324 208 l 324 -153 l 104 -153 l 104 940 m 808 619 q 765 732 808 693 q 651 771 721 771 l 324 771 l 324 392 l 628 454 q 762 510 715 469 q 808 619 808 551 z "},"S":{"ha":1024,"x_min":71,"x_max":954,"o":"m 156 138 q 238 81 193 106 q 333 38 283 56 q 437 10 383 19 q 544 3 490 1 q 681 35 628 4 q 735 132 735 65 q 682 245 735 207 q 526 307 629 283 q 342 360 422 329 q 208 432 263 390 q 126 529 154 474 q 99 658 99 585 q 132 795 99 738 q 222 892 165 853 q 353 949 279 931 q 508 968 426 968 q 719 933 619 968 q 919 835 819 897 l 838 669 q 686 750 771 718 q 517 785 601 782 q 447 781 482 786 q 383 761 411 775 q 336 724 354 747 q 318 665 318 700 q 328 612 318 635 q 363 570 338 589 q 429 535 388 551 q 536 501 471 518 q 731 437 651 471 q 860 360 811 403 q 932 264 910 318 q 954 138 954 210 q 921 1 954 60 q 831 -99 888 -58 q 695 -160 774 -139 q 528 -181 617 -181 q 284 -137 401 -181 q 71 -28 167 -94 l 156 138 z "},"T":{"ha":1047,"x_min":49,"x_max":999,"o":"m 633 771 l 633 -153 l 414 -153 l 414 771 l 49 771 l 49 940 l 999 940 l 999 771 l 633 771 z "},"U":{"ha":1160,"x_min":104,"x_max":1056,"o":"m 579 -181 q 392 -149 479 -181 q 242 -59 306 -117 q 141 80 178 -1 q 104 261 104 161 l 104 940 l 324 940 l 324 275 q 340 167 324 218 q 389 79 357 117 q 469 19 421 42 q 579 -3 517 -3 q 690 19 642 -3 q 770 79 738 42 q 819 167 803 117 q 836 275 836 218 l 836 940 l 1056 940 l 1056 261 q 1019 80 1056 161 q 917 -59 982 -1 q 766 -149 853 -117 q 579 -181 679 -181 z "},"V":{"ha":1124,"x_min":42,"x_max":1088,"o":"m 260 940 l 564 85 l 869 940 l 1088 940 l 685 -153 l 444 -153 l 42 940 l 260 940 z "},"W":{"ha":1435,"x_min":39,"x_max":1396,"o":"m 717 601 l 544 -153 l 343 -153 l 39 940 l 249 940 l 443 215 l 613 940 l 822 940 l 992 215 l 1186 940 l 1396 940 l 1092 -153 l 890 -153 l 717 601 z "},"X":{"ha":1058,"x_min":44,"x_max":1024,"o":"m 275 940 l 533 561 l 793 940 l 1024 940 l 651 388 l 1021 -153 l 781 -153 l 533 213 l 288 -153 l 47 -153 l 415 388 l 44 940 l 275 940 z "},"Y":{"ha":1090,"x_min":44,"x_max":1050,"o":"m 438 -153 l 438 310 l 44 940 l 282 940 l 547 517 l 813 940 l 1050 940 l 657 310 l 657 -153 l 438 -153 z "},"Z":{"ha":978,"x_min":76,"x_max":901,"o":"m 76 -153 l 76 0 l 632 771 l 103 771 l 103 940 l 879 940 l 879 803 l 313 17 l 901 17 l 901 -153 l 76 -153 z "},"[":{"ha":596,"x_min":104,"x_max":561,"o":"m 561 1010 l 561 840 l 317 840 l 317 -39 l 561 -39 l 561 -208 l 104 -208 l 104 1010 l 561 1010 z "},"\\":{"ha":1471,"x_min":35,"x_max":1433,"o":"m 1433 329 l 1233 329 l 1114 -139 l 921 -139 l 821 329 l 647 329 l 547 -139 l 354 -139 l 233 329 l 35 329 l 35 471 l 197 471 l 81 926 l 264 926 l 368 471 l 542 471 l 639 926 l 829 926 l 926 471 l 1099 471 l 1204 926 l 1388 926 l 1269 471 l 1433 471 l 1433 329 m 678 471 l 790 471 l 733 732 l 678 471 m 1010 81 l 1067 329 l 957 329 l 1010 81 m 458 81 l 511 329 l 401 329 l 458 81 z "},"]":{"ha":596,"x_min":35,"x_max":492,"o":"m 492 1010 l 492 -208 l 35 -208 l 35 -39 l 279 -39 l 279 840 l 35 840 l 35 1010 l 492 1010 z "},"^":{"ha":738,"x_min":38,"x_max":701,"o":"m 481 988 l 701 619 l 497 619 l 371 829 l 244 619 l 38 619 l 257 988 l 481 988 z "},"_":{"ha":643,"x_min":35,"x_max":615,"o":"m 35 -11 l 615 -11 l 615 -181 l 35 -181 l 35 -11 z "},"`":{"ha":496,"x_min":47,"x_max":471,"o":"m 264 633 l 47 988 l 268 988 l 471 633 l 264 633 z "},"a":{"ha":1122,"x_min":76,"x_max":1025,"o":"m 833 657 l 1025 657 l 1025 -153 l 839 -153 l 813 -46 q 751 -103 788 -78 q 673 -147 715 -129 q 585 -173 631 -164 q 494 -181 539 -182 q 334 -146 410 -179 q 201 -56 258 -112 q 110 80 143 1 q 76 250 76 158 q 111 424 76 344 q 204 562 146 504 q 338 652 263 619 q 493 685 413 685 q 675 651 593 685 q 808 557 757 618 l 833 657 m 538 -11 q 632 7 588 -11 q 709 59 676 25 q 760 142 742 93 q 779 250 779 190 q 760 361 779 313 q 709 444 742 410 q 632 496 676 478 q 538 514 588 514 q 443 496 488 514 q 366 444 399 478 q 315 361 333 410 q 296 250 296 313 q 315 142 296 190 q 366 59 333 93 q 443 7 399 25 q 538 -11 488 -11 z "},"b":{"ha":1122,"x_min":104,"x_max":1053,"o":"m 324 561 q 456 652 376 619 q 636 685 536 685 q 792 652 717 685 q 925 562 867 619 q 1018 424 983 504 q 1053 250 1053 344 q 1019 80 1053 158 q 928 -56 985 1 q 795 -146 871 -112 q 635 -181 719 -179 q 543 -173 589 -182 q 456 -147 497 -164 q 378 -103 414 -129 q 315 -46 342 -78 l 290 -153 l 104 -153 l 104 940 l 324 940 l 324 561 m 592 -11 q 686 7 642 -11 q 763 59 731 25 q 815 142 796 93 q 833 250 833 190 q 815 361 833 313 q 763 444 796 410 q 686 496 731 478 q 592 514 642 514 q 497 496 542 514 q 420 444 453 478 q 369 361 388 410 q 350 250 350 313 q 369 142 350 190 q 420 59 388 93 q 497 7 453 25 q 592 -11 542 -11 z "},"c":{"ha":1007,"x_min":76,"x_max":936,"o":"m 558 529 q 452 508 500 529 q 369 451 404 488 q 315 363 335 414 q 296 251 296 313 q 316 143 296 193 q 372 56 336 93 q 455 -3 407 18 q 558 -25 503 -25 q 699 11 636 -25 q 801 114 763 47 l 935 -3 q 775 -142 871 -90 q 539 -194 679 -194 q 359 -162 443 -194 q 212 -70 275 -129 q 113 71 149 -11 q 76 251 76 153 q 112 432 76 350 q 209 574 147 514 q 356 666 271 633 q 539 699 440 699 q 936 507 800 699 l 803 393 q 701 494 767 460 q 558 529 635 529 z "},"d":{"ha":1122,"x_min":76,"x_max":1025,"o":"m 806 940 l 1025 940 l 1025 -153 l 839 -153 l 813 -46 q 751 -103 788 -78 q 673 -147 715 -129 q 585 -173 631 -164 q 494 -181 539 -182 q 334 -146 410 -179 q 201 -56 258 -112 q 110 80 143 1 q 76 250 76 158 q 111 424 76 344 q 204 562 146 504 q 338 652 263 619 q 493 685 413 685 q 672 652 592 685 q 806 561 753 619 l 806 940 m 538 -11 q 632 7 588 -11 q 709 59 676 25 q 760 142 742 93 q 779 250 779 190 q 760 361 779 313 q 709 444 742 410 q 632 496 676 478 q 538 514 588 514 q 443 496 488 514 q 366 444 399 478 q 315 361 333 410 q 296 250 296 313 q 315 142 296 190 q 366 59 333 93 q 443 7 399 25 q 538 -11 488 -11 z "},"e":{"ha":1069,"x_min":76,"x_max":999,"o":"m 306 114 q 394 11 335 47 q 543 -25 454 -25 q 695 3 626 -25 q 819 97 764 31 l 960 -10 q 786 -146 888 -97 q 565 -194 685 -194 q 374 -163 463 -194 q 219 -74 285 -132 q 115 66 153 -17 q 76 251 76 149 q 113 434 76 351 q 211 576 149 517 q 359 667 274 635 q 544 700 444 700 q 723 668 642 700 q 864 580 804 636 q 959 445 924 524 q 999 274 994 367 l 306 114 m 554 531 q 359 462 431 531 q 281 275 288 393 l 781 394 q 686 499 744 467 q 554 531 628 531 z "},"f":{"ha":663,"x_min":35,"x_max":635,"o":"m 418 -153 l 199 -153 l 199 474 l 35 474 l 35 643 l 199 643 l 199 735 q 215 822 199 783 q 261 886 232 860 q 330 926 290 913 q 414 940 369 940 l 635 940 l 635 771 l 506 771 q 440 748 461 771 q 418 683 418 725 l 418 643 l 621 643 l 621 474 l 418 474 l 418 -153 z "},"g":{"ha":1122,"x_min":76,"x_max":1025,"o":"m 1025 -118 q 992 -292 1025 -215 q 901 -424 960 -369 q 763 -510 843 -479 q 586 -542 682 -540 q 416 -525 497 -544 q 271 -465 335 -506 q 165 -362 207 -425 q 115 -211 124 -299 l 338 -211 q 402 -332 343 -290 q 554 -374 461 -374 q 654 -358 608 -374 q 734 -311 700 -343 q 787 -231 768 -279 q 806 -117 806 -183 l 806 -19 q 672 -120 754 -87 q 494 -153 590 -153 q 334 -122 410 -153 q 201 -36 258 -92 q 110 96 143 19 q 76 264 76 172 q 111 436 76 358 q 204 569 146 514 q 338 654 263 624 q 493 685 413 685 q 675 651 593 685 q 808 557 757 618 l 833 657 l 1025 657 l 1025 -118 m 538 17 q 632 35 588 17 q 709 85 676 53 q 760 164 742 118 q 779 264 779 210 q 760 367 779 321 q 709 445 742 413 q 632 496 676 478 q 538 514 588 514 q 443 496 488 514 q 366 445 399 478 q 315 367 333 413 q 296 264 296 321 q 315 164 296 210 q 366 85 333 118 q 443 35 399 53 q 538 17 488 17 z "},"h":{"ha":1053,"x_min":104,"x_max":956,"o":"m 324 588 q 445 659 372 633 q 589 685 518 685 q 732 661 665 685 q 849 595 799 638 q 927 492 899 553 q 956 358 956 432 l 956 -153 l 736 -153 l 736 283 q 683 460 736 406 q 539 515 631 515 q 401 462 460 515 q 324 314 342 408 l 324 -153 l 104 -153 l 104 940 l 324 940 l 324 588 z "},"i":{"ha":483,"x_min":132,"x_max":351,"o":"m 351 657 l 351 -153 l 132 -153 l 132 657 l 351 657 m 351 979 l 351 768 l 132 768 l 132 979 l 351 979 z "},"j":{"ha":499,"x_min":7,"x_max":401,"o":"m 182 657 l 401 657 l 401 13 q 384 -105 401 -57 q 336 -183 367 -153 q 266 -226 306 -212 q 181 -240 226 -240 l 7 -240 l 7 -71 l 89 -71 q 157 -47 132 -71 q 182 39 182 -24 l 182 657 m 401 979 l 401 768 l 182 768 l 182 979 l 401 979 z "},"k":{"ha":954,"x_min":104,"x_max":918,"o":"m 653 -153 l 324 190 l 324 -153 l 104 -153 l 104 940 l 324 940 l 324 357 l 639 657 l 904 657 l 504 279 l 918 -153 l 653 -153 z "},"l":{"ha":414,"x_min":97,"x_max":317,"o":"m 317 940 l 317 -153 l 97 -153 l 97 940 l 317 940 z "},"m":{"ha":1407,"x_min":104,"x_max":1310,"o":"m 817 -153 l 597 -153 l 597 339 q 590 399 597 368 q 565 456 582 431 q 524 498 549 482 q 465 514 499 514 q 414 499 438 514 q 372 459 390 483 q 340 404 353 435 q 324 344 328 374 l 324 -153 l 104 -153 l 104 657 l 296 657 l 314 594 q 422 665 360 646 q 544 685 485 683 q 659 655 604 685 q 754 569 714 625 q 813 628 781 606 q 879 664 844 651 q 953 681 914 676 q 1033 685 992 685 q 1139 660 1089 685 q 1227 592 1189 636 q 1288 484 1265 547 q 1310 344 1310 421 l 1310 -153 l 1090 -153 l 1090 339 q 1083 399 1090 368 q 1059 456 1075 431 q 1017 498 1043 482 q 956 514 992 514 q 863 472 903 514 q 817 357 824 431 l 817 -153 z "},"n":{"ha":1053,"x_min":104,"x_max":956,"o":"m 308 572 q 363 619 331 599 q 433 655 396 640 q 511 677 471 669 q 589 685 551 685 q 732 661 665 685 q 849 595 799 638 q 927 492 899 553 q 956 358 956 432 l 956 -153 l 736 -153 l 736 283 q 683 460 736 406 q 539 515 631 515 q 401 462 460 515 q 324 314 342 408 l 324 -153 l 104 -153 l 104 657 l 290 657 l 308 572 z "},"o":{"ha":1093,"x_min":76,"x_max":1024,"o":"m 550 -26 q 651 -6 604 -26 q 733 51 699 14 q 786 138 767 88 q 806 250 806 189 q 786 365 806 313 q 733 453 767 417 q 651 509 699 489 q 550 529 604 529 q 448 508 494 529 q 367 451 401 488 q 314 363 333 414 q 294 250 294 311 q 314 138 294 189 q 367 51 333 88 q 448 -6 401 14 q 550 -26 494 -26 m 76 250 q 114 436 76 353 q 216 578 151 519 q 367 667 281 636 q 550 699 453 699 q 732 667 646 699 q 883 578 818 636 q 985 436 947 519 q 1024 250 1024 353 q 985 65 1024 147 q 883 -74 947 -17 q 732 -163 818 -132 q 550 -194 646 -194 q 367 -163 453 -194 q 216 -74 281 -132 q 114 65 151 -17 q 76 250 76 147 z "},"p":{"ha":1122,"x_min":104,"x_max":1053,"o":"m 296 657 l 328 582 q 465 659 390 633 q 636 685 539 685 q 792 652 717 685 q 925 562 867 619 q 1018 424 983 504 q 1053 250 1053 344 q 1019 80 1053 158 q 928 -56 985 1 q 795 -146 871 -112 q 635 -181 719 -179 q 467 -156 547 -183 q 324 -72 386 -128 l 324 -514 l 104 -514 l 104 657 l 296 657 m 592 -11 q 686 7 642 -11 q 763 59 731 25 q 815 142 796 93 q 833 250 833 190 q 815 361 833 313 q 763 444 796 410 q 686 496 731 478 q 592 514 642 514 q 497 496 542 514 q 420 444 453 478 q 369 361 388 410 q 350 250 350 313 q 369 142 350 190 q 420 59 388 93 q 497 7 453 25 q 592 -11 542 -11 z "},"q":{"ha":1122,"x_min":76,"x_max":1025,"o":"m 833 657 l 1025 657 l 1025 -514 l 806 -514 l 806 -72 q 663 -156 743 -128 q 494 -181 582 -183 q 334 -146 410 -179 q 201 -56 258 -112 q 110 80 143 1 q 76 250 76 158 q 111 424 76 344 q 204 562 146 504 q 338 652 263 619 q 493 685 413 685 q 665 659 590 685 q 801 582 739 633 l 833 657 m 538 -11 q 632 7 588 -11 q 709 59 676 25 q 760 142 742 93 q 779 250 779 190 q 760 361 779 313 q 709 444 742 410 q 632 496 676 478 q 538 514 588 514 q 443 496 488 514 q 366 444 399 478 q 315 361 333 410 q 296 250 296 313 q 315 142 296 190 q 366 59 333 93 q 443 7 399 25 q 538 -11 488 -11 z "},"r":{"ha":722,"x_min":104,"x_max":689,"o":"m 315 567 q 396 633 344 610 q 517 657 447 657 l 689 657 l 654 488 l 481 488 q 420 472 449 488 q 370 428 392 456 q 336 367 349 401 q 324 294 324 332 l 324 -153 l 104 -153 l 104 657 l 296 657 l 315 567 z "},"s":{"ha":831,"x_min":60,"x_max":774,"o":"m 674 451 q 558 509 621 489 q 442 529 494 529 q 303 449 303 529 q 326 394 303 417 q 417 356 350 371 q 688 244 601 313 q 774 69 774 176 q 748 -47 774 3 q 676 -130 722 -97 q 566 -178 631 -162 q 422 -194 501 -194 q 226 -165 314 -194 q 60 -81 138 -135 l 139 74 q 257 3 192 29 q 397 -24 322 -24 q 521 -3 488 -24 q 554 67 554 18 q 516 135 554 108 q 406 181 478 161 q 257 229 318 204 q 158 285 196 254 q 101 358 119 317 q 83 454 83 399 q 107 555 83 510 q 174 632 131 600 q 279 681 218 664 q 415 699 340 699 q 520 691 474 699 q 606 669 567 683 q 679 637 646 656 q 743 596 713 618 l 674 451 z "},"t":{"ha":663,"x_min":35,"x_max":635,"o":"m 418 657 l 621 657 l 621 488 l 418 488 l 418 104 q 440 40 418 63 q 506 17 461 17 l 635 17 l 635 -153 l 414 -153 q 330 -139 369 -153 q 261 -99 290 -125 q 215 -34 232 -72 q 199 53 199 4 l 199 488 l 35 488 l 35 657 l 199 657 l 199 940 l 418 940 l 418 657 z "},"u":{"ha":1053,"x_min":104,"x_max":956,"o":"m 750 -68 q 695 -115 728 -94 q 625 -151 663 -136 q 548 -173 588 -165 q 471 -181 508 -181 q 328 -157 394 -181 q 211 -91 261 -133 q 133 12 161 -49 q 104 146 104 72 l 104 657 l 324 657 l 324 221 q 376 44 324 99 q 521 -11 429 -11 q 659 42 600 -11 q 736 190 718 96 l 736 657 l 956 657 l 956 -153 l 769 -153 l 750 -68 z "},"v":{"ha":990,"x_min":40,"x_max":949,"o":"m 606 -153 l 383 -153 l 40 657 l 264 657 l 494 103 l 725 657 l 949 657 l 606 -153 z "},"w":{"ha":1286,"x_min":40,"x_max":1246,"o":"m 643 376 l 493 -153 l 299 -153 l 40 657 l 254 657 l 403 139 l 547 657 l 739 657 l 882 139 l 1032 657 l 1246 657 l 988 -153 l 793 -153 l 643 376 z "},"x":{"ha":982,"x_min":43,"x_max":951,"o":"m 43 -153 l 369 261 l 57 657 l 311 657 l 497 421 l 683 657 l 938 657 l 624 261 l 951 -153 l 697 -153 l 497 100 l 297 -153 l 43 -153 z "},"y":{"ha":1053,"x_min":104,"x_max":956,"o":"m 736 -42 q 619 -126 690 -100 q 471 -153 547 -153 q 328 -127 394 -153 q 211 -56 261 -101 q 133 51 161 -11 q 104 188 104 114 l 104 657 l 324 657 l 324 249 q 376 72 324 126 q 521 17 429 17 q 659 69 600 17 q 736 210 718 122 l 736 657 l 956 657 l 956 -118 q 926 -292 956 -215 q 844 -424 897 -369 q 716 -509 790 -479 q 551 -542 642 -539 q 392 -526 468 -544 q 258 -466 317 -507 q 162 -362 200 -425 q 115 -211 124 -299 l 338 -211 q 390 -332 343 -290 q 519 -374 436 -374 q 677 -306 618 -374 q 736 -117 736 -239 l 736 -115 l 736 -42 z "},"z":{"ha":929,"x_min":76,"x_max":860,"o":"m 76 -153 l 76 -11 l 560 489 l 107 489 l 107 658 l 831 658 l 831 518 l 344 15 l 860 15 l 860 -153 l 76 -153 z "},"{":{"ha":624,"x_min":35,"x_max":561,"o":"m 35 481 q 152 526 117 488 q 188 644 188 564 l 188 724 q 213 841 188 789 q 288 931 239 893 q 406 989 336 968 q 561 1011 475 1010 l 561 840 q 483 829 515 838 q 431 804 451 821 q 402 760 411 788 q 393 693 393 733 l 393 611 q 363 476 393 528 q 253 394 333 425 q 363 312 333 363 q 393 178 393 261 l 393 96 q 402 28 393 56 q 431 -15 411 1 q 483 -40 451 -32 q 561 -51 515 -49 l 561 -222 q 406 -200 475 -221 q 288 -142 336 -179 q 213 -52 239 -104 q 188 65 188 0 l 188 144 q 152 263 188 225 q 35 308 117 301 l 35 481 z "},"|":{"ha":415,"x_min":97,"x_max":317,"o":"m 317 982 l 317 -194 l 97 -194 l 97 982 l 317 982 z "},"}":{"ha":624,"x_min":35,"x_max":561,"o":"m 561 308 q 444 263 479 301 q 408 144 408 225 l 408 65 q 383 -52 408 0 q 308 -142 357 -104 q 190 -200 260 -179 q 35 -222 121 -221 l 35 -51 q 113 -40 81 -49 q 165 -15 144 -32 q 194 28 185 1 q 203 96 203 56 l 203 178 q 210 253 203 219 q 233 313 217 286 q 276 359 249 339 q 343 394 303 379 q 232 476 261 425 q 203 611 203 528 l 203 693 q 194 760 203 733 q 165 804 185 788 q 113 829 144 821 q 35 840 81 838 l 35 1011 q 190 989 121 1010 q 308 931 260 968 q 383 841 357 893 q 408 724 408 789 l 408 644 q 444 526 408 564 q 561 481 479 488 l 561 308 z "},"~":{"ha":864,"x_min":104,"x_max":767,"o":"m 283 576 q 366 561 326 576 q 444 529 406 546 q 525 497 485 511 q 610 483 565 483 q 696 496 661 483 q 767 533 731 508 l 767 350 q 686 314 729 328 q 588 300 643 300 q 505 315 544 300 q 426 346 465 329 q 346 378 386 364 q 261 393 306 393 q 175 383 210 393 q 104 353 140 372 l 104 536 q 183 565 140 553 q 283 576 226 576 z "},"、":{"ha":1306,"x_min":76,"x_max":425,"o":"m 76 26 l 76 190 l 425 53 l 425 -196 l 76 26 z "},"。":{"ha":1306,"x_min":96,"x_max":440,"o":"m 440 0 q 427 -67 440 -36 q 391 -122 414 -99 q 337 -158 368 -144 q 268 -171 306 -171 q 202 -158 233 -171 q 147 -122 171 -144 q 110 -67 124 -99 q 96 0 96 -36 q 110 70 96 39 q 147 124 124 101 q 202 160 171 147 q 268 172 233 172 q 334 159 303 172 q 389 123 365 146 q 426 69 413 100 q 440 0 440 38 m 336 0 q 317 53 336 33 q 268 74 297 74 q 219 53 239 74 q 200 0 200 33 q 219 -53 200 -33 q 268 -72 239 -72 q 317 -53 297 -72 q 336 0 336 -33 z "},"·":{"ha":417,"x_min":103,"x_max":313,"o":"m 313 314 l 103 314 l 103 524 l 313 524 l 313 314 z "},"‥":{"ha":1111,"x_min":213,"x_max":897,"o":"m 422 314 l 213 314 l 213 524 l 422 524 l 422 314 m 897 314 l 688 314 l 688 524 l 897 524 l 897 314 z "},"…":{"ha":1111,"x_min":78,"x_max":1031,"o":"m 288 314 l 78 314 l 78 524 l 288 524 l 288 314 m 657 314 l 447 314 l 447 524 l 657 524 l 657 314 m 1031 314 l 821 314 l 821 524 l 1031 524 l 1031 314 z "},"¨":{"ha":722,"x_min":113,"x_max":607,"o":"m 308 744 l 113 744 l 113 940 l 308 940 l 308 744 m 607 744 l 411 744 l 411 940 l 607 940 l 607 744 z "},"〃":{"ha":1306,"x_min":363,"x_max":951,"o":"m 481 164 l 363 164 l 492 642 l 696 642 l 481 164 m 736 164 l 618 164 l 747 642 l 951 642 l 736 164 z "},"­":{"ha":694,"x_min":115,"x_max":581,"o":"m 115 500 l 581 500 l 581 335 l 115 335 l 115 500 z "},"＼":{"ha":1306,"x_min":144,"x_max":1156,"o":"m 1156 -137 l 1039 -224 l 144 969 l 261 1050 l 1156 -137 z "},"∼":{"ha":1306,"x_min":153,"x_max":1146,"o":"m 1146 443 q 988 339 1063 375 q 825 303 913 303 q 718 321 774 303 q 608 371 663 339 q 539 402 574 390 q 472 414 504 414 q 356 389 411 414 q 232 314 300 364 l 153 407 q 239 472 199 444 q 317 519 279 500 q 394 547 356 538 q 472 557 432 557 q 573 542 521 557 q 676 499 625 526 q 757 462 719 475 q 825 449 794 449 q 953 465 893 449 q 1078 522 1013 482 l 1146 443 z "},"‘":{"ha":438,"x_min":107,"x_max":331,"o":"m 107 840 q 164 983 107 940 q 325 1035 221 1026 l 325 935 q 240 908 267 929 q 214 842 214 886 l 331 842 l 331 631 l 107 631 l 107 840 z "},"’":{"ha":438,"x_min":107,"x_max":331,"o":"m 331 825 q 274 682 331 725 q 113 631 217 639 l 113 731 q 197 758 171 736 q 224 824 224 779 l 107 824 l 107 1035 l 331 1035 l 331 825 z "},"“":{"ha":708,"x_min":107,"x_max":611,"o":"m 388 856 q 444 999 388 956 q 606 1050 501 1042 l 606 950 q 521 923 547 944 q 494 857 494 901 l 611 857 l 611 646 l 388 646 l 388 856 m 107 786 q 164 929 107 886 q 325 981 221 972 l 325 881 q 240 853 267 875 q 214 788 214 832 l 331 788 l 331 576 l 107 576 l 107 786 z "},"”":{"ha":708,"x_min":107,"x_max":611,"o":"m 331 756 q 274 613 331 656 q 113 561 217 569 l 113 661 q 197 688 171 667 q 224 754 224 710 l 107 754 l 107 965 l 331 965 l 331 756 m 611 825 q 554 682 611 725 q 393 631 497 639 l 393 731 q 478 758 451 736 q 504 824 504 779 l 388 824 l 388 1035 l 611 1035 l 611 825 z "},"〔":{"ha":694,"x_min":171,"x_max":574,"o":"m 574 -110 l 514 -246 l 171 -100 l 171 935 l 515 1081 l 574 947 l 350 846 l 350 -11 l 574 -110 z "},"〕":{"ha":694,"x_min":135,"x_max":538,"o":"m 358 -11 l 358 846 l 135 947 l 193 1081 l 538 935 l 538 -100 l 194 -246 l 135 -110 l 358 -11 z "},"〈":{"ha":764,"x_min":107,"x_max":722,"o":"m 310 417 l 722 -86 l 599 -183 l 107 417 l 599 1014 l 721 915 l 310 417 z "},"〉":{"ha":764,"x_min":38,"x_max":653,"o":"m 39 915 l 161 1014 l 653 417 l 161 -183 l 38 -86 l 450 417 l 39 915 z "},"《":{"ha":833,"x_min":67,"x_max":811,"o":"m 239 417 l 586 -111 l 461 -182 l 67 417 l 460 1015 l 579 947 l 239 417 m 464 417 l 811 -111 l 686 -182 l 292 417 l 685 1015 l 804 947 l 464 417 z "},"》":{"ha":833,"x_min":36,"x_max":781,"o":"m 268 947 l 388 1015 l 781 417 l 386 -182 l 261 -111 l 608 417 l 268 947 m 43 947 l 163 1015 l 556 417 l 161 -182 l 36 -111 l 383 417 l 43 947 z "},"「":{"ha":625,"x_min":121,"x_max":572,"o":"m 572 885 l 317 885 l 317 422 l 121 422 l 121 1043 l 572 1043 l 572 885 z "},"」":{"ha":625,"x_min":51,"x_max":503,"o":"m 51 -51 l 307 -51 l 307 425 l 503 425 l 503 -210 l 51 -210 l 51 -51 z "},"『":{"ha":625,"x_min":122,"x_max":572,"o":"m 572 833 l 353 833 l 353 422 l 122 422 l 122 1042 l 572 1042 l 572 833 m 475 919 l 475 950 l 218 950 l 218 514 l 254 514 l 254 919 l 475 919 z "},"』":{"ha":625,"x_min":51,"x_max":503,"o":"m 51 4 l 271 4 l 271 428 l 503 428 l 503 -208 l 51 -208 l 51 4 m 149 -86 l 149 -117 l 406 -117 l 406 336 l 369 336 l 369 -86 l 149 -86 z "},"【":{"ha":639,"x_min":136,"x_max":650,"o":"m 136 -187 l 136 1022 l 647 1022 q 528 896 578 965 q 445 748 478 826 q 397 586 413 669 q 381 419 381 503 q 396 252 381 336 q 444 89 411 168 q 528 -60 478 10 q 650 -187 579 -131 l 136 -187 z "},"】":{"ha":639,"x_min":-12,"x_max":501,"o":"m -12 -187 q 109 -60 58 -131 q 193 89 160 10 q 242 252 226 168 q 257 419 257 336 q 241 586 257 503 q 192 748 225 669 q 109 896 160 826 q -10 1022 58 965 l 501 1022 l 501 -187 l -12 -187 z "},"±":{"ha":917,"x_min":119,"x_max":800,"o":"m 554 624 l 800 624 l 800 458 l 554 458 l 554 201 l 363 201 l 363 458 l 119 458 l 119 624 l 363 624 l 363 879 l 554 879 l 554 624 m 119 -25 l 119 136 l 797 136 l 797 -25 l 119 -25 z "},"×":{"ha":833,"x_min":101,"x_max":731,"o":"m 108 207 l 299 406 l 101 611 l 221 731 l 415 528 l 611 731 l 731 611 l 533 406 l 724 207 l 604 88 l 415 283 l 228 88 l 108 207 z "},"÷":{"ha":928,"x_min":76,"x_max":851,"o":"m 464 218 q 543 185 510 218 q 576 106 576 151 q 543 26 576 60 q 464 -7 510 -7 q 385 26 418 -7 q 351 106 351 60 q 385 185 351 151 q 464 218 418 218 m 76 504 l 851 504 l 851 335 l 76 335 l 76 504 m 464 860 q 543 826 510 860 q 576 747 576 793 q 543 668 576 701 q 464 635 510 635 q 385 668 418 635 q 351 747 351 701 q 385 826 351 793 q 464 860 418 860 z "},"≠":{"ha":1028,"x_min":97,"x_max":929,"o":"m 640 629 l 929 629 l 929 474 l 600 474 l 571 360 l 929 360 l 929 206 l 532 206 l 486 25 l 299 25 l 343 206 l 97 206 l 97 360 l 382 360 l 411 474 l 97 474 l 97 629 l 450 629 l 492 792 l 682 792 l 640 629 z "},"≤":{"ha":972,"x_min":107,"x_max":865,"o":"m 110 489 l 110 603 l 865 906 l 865 728 l 403 546 l 865 361 l 865 188 l 110 489 m 107 3 l 107 164 l 865 164 l 865 3 l 107 3 z "},"≥":{"ha":972,"x_min":107,"x_max":865,"o":"m 107 188 l 107 361 l 569 546 l 107 728 l 107 906 l 863 603 l 863 489 l 107 188 m 107 3 l 107 164 l 865 164 l 865 3 l 107 3 z "},"∞":{"ha":1111,"x_min":75,"x_max":1032,"o":"m 1032 454 q 1014 356 1032 401 q 963 277 996 311 q 885 224 931 243 q 786 204 840 204 q 660 238 724 204 q 557 324 597 271 q 460 240 517 271 q 322 210 403 210 q 222 229 268 210 q 144 282 176 249 q 93 360 111 315 q 75 458 75 406 q 94 556 75 511 q 148 635 114 601 q 229 687 182 668 q 331 706 276 706 q 453 672 396 706 q 553 586 510 639 q 656 672 593 639 q 785 706 718 706 q 886 686 840 706 q 964 633 932 667 q 1014 554 996 600 q 1032 454 1032 508 m 872 456 q 865 497 872 476 q 847 532 858 517 q 820 557 836 547 q 786 567 804 567 q 709 533 746 567 q 644 453 672 499 q 707 375 671 406 q 785 344 743 344 q 849 378 826 344 q 872 456 872 411 m 324 347 q 401 376 365 347 q 465 453 436 404 q 403 533 439 499 q 328 567 368 567 q 263 535 289 567 q 238 460 238 504 q 260 381 238 415 q 324 347 283 347 z "},"∴":{"ha":1306,"x_min":204,"x_max":1099,"o":"m 774 717 q 738 628 774 664 q 650 592 701 592 q 563 628 599 592 q 526 717 526 664 q 563 805 526 769 q 650 840 599 840 q 738 805 701 840 q 774 717 774 769 m 451 161 q 415 72 451 108 q 328 36 379 36 q 240 72 276 36 q 204 161 204 108 q 240 249 204 214 q 328 285 276 285 q 415 249 379 285 q 451 161 451 214 m 1099 161 q 1063 72 1099 108 q 975 36 1026 36 q 888 72 924 36 q 851 161 851 108 q 888 249 851 214 q 975 285 924 285 q 1063 249 1026 285 q 1099 161 1099 214 z "},"°":{"ha":583,"x_min":110,"x_max":472,"o":"m 472 863 q 458 792 472 825 q 418 734 443 758 q 360 696 393 710 q 292 682 328 682 q 223 696 256 682 q 165 734 190 710 q 125 792 140 758 q 110 863 110 825 q 125 933 110 900 q 165 991 140 967 q 223 1029 190 1015 q 292 1043 256 1043 q 360 1029 328 1043 q 418 991 393 1015 q 458 933 443 967 q 472 863 472 900 m 346 863 q 330 906 346 890 q 292 922 314 922 q 252 906 268 922 q 236 863 236 890 q 252 818 236 835 q 292 801 268 801 q 330 818 314 801 q 346 863 346 835 z "},"′":{"ha":472,"x_min":74,"x_max":431,"o":"m 214 631 l 74 631 l 215 1000 l 431 1000 l 214 631 z "},"″":{"ha":750,"x_min":69,"x_max":681,"o":"m 210 632 l 69 632 l 211 1000 l 426 1000 l 210 632 m 460 632 l 319 632 l 468 1000 l 681 1000 l 460 632 z "},"℃":{"ha":1450,"x_min":76,"x_max":1394,"o":"m 76 908 q 92 981 76 946 q 133 1042 107 1015 q 197 1083 160 1068 q 278 1099 233 1099 q 357 1083 321 1099 q 420 1042 393 1068 q 463 981 447 1015 q 478 908 478 946 q 463 835 478 869 q 420 774 447 800 q 357 731 393 747 q 278 715 321 715 q 197 731 233 715 q 133 772 160 746 q 91 833 106 799 q 76 908 76 868 m 278 840 q 326 860 306 840 q 346 908 346 881 q 326 956 346 936 q 278 976 306 976 q 230 956 250 976 q 210 908 210 936 q 230 860 210 881 q 278 840 250 840 m 313 367 q 354 568 313 469 q 472 744 396 667 q 654 867 547 821 q 890 914 761 914 q 1390 646 1201 914 l 1250 536 q 1103 690 1197 633 q 893 746 1008 746 q 747 714 814 746 q 633 629 681 682 q 558 508 585 576 q 532 367 532 439 q 560 223 532 292 q 639 102 588 154 q 761 19 690 50 q 919 -12 832 -12 q 1022 4 974 -12 q 1113 50 1071 21 q 1192 119 1156 79 q 1256 204 1228 158 l 1394 88 q 1181 -112 1303 -44 q 890 -181 1058 -181 q 663 -137 768 -181 q 479 -18 557 -93 q 357 156 401 57 q 313 367 313 256 z "},"Å":{"ha":833,"x_min":1,"x_max":831,"o":"m 551 128 l 281 128 l 210 -69 l 1 -69 l 319 776 l 513 776 l 831 -71 l 624 -71 l 551 128 m 554 950 q 542 893 554 918 q 511 851 531 868 q 467 826 492 835 q 415 818 442 818 q 364 826 389 818 q 319 851 339 835 q 287 893 299 868 q 275 950 275 918 q 287 1007 275 982 q 319 1049 299 1032 q 364 1074 339 1065 q 415 1082 389 1082 q 467 1074 442 1082 q 511 1049 492 1065 q 542 1007 531 1032 q 554 950 554 982 m 339 288 l 493 288 l 417 499 l 339 288 m 446 950 q 437 971 446 963 q 417 979 428 979 q 394 971 401 979 q 386 950 386 963 q 417 921 386 921 q 437 928 428 921 q 446 950 446 936 z "},"￠":{"ha":667,"x_min":44,"x_max":625,"o":"m 307 51 q 201 95 250 65 q 118 171 153 125 q 64 280 83 217 q 44 425 44 343 q 64 566 44 504 q 118 674 83 628 q 201 749 153 719 q 307 793 249 778 l 307 922 l 475 922 l 475 806 q 543 792 508 803 q 622 763 578 782 l 578 603 q 525 622 550 614 q 475 635 500 631 l 475 219 q 590 250 519 228 l 625 89 q 547 58 582 69 q 475 42 511 47 l 475 -69 l 307 -69 l 307 51 m 250 432 q 265 322 250 365 q 307 254 279 279 l 307 596 q 265 533 281 572 q 250 432 250 493 z "},"￡":{"ha":750,"x_min":49,"x_max":701,"o":"m 388 331 q 373 208 386 268 q 331 99 360 147 l 701 99 l 701 -71 l 49 -71 l 49 69 q 116 119 90 90 q 156 181 142 147 q 176 253 171 215 q 181 331 181 292 l 56 331 l 56 500 l 181 500 l 181 615 q 263 861 181 779 q 497 943 344 943 q 609 928 569 943 q 685 890 649 914 l 636 726 q 570 762 600 750 q 497 774 540 774 q 440 765 461 774 q 408 738 419 756 q 392 691 396 719 q 388 625 388 663 l 388 500 l 604 500 l 604 331 l 388 331 z "},"￥":{"ha":833,"x_min":-10,"x_max":844,"o":"m 519 118 l 519 -81 l 310 -81 l 310 118 l 86 118 l 86 276 l 310 276 l 310 329 l 86 329 l 86 488 l 250 488 l -10 943 l 221 943 l 415 558 l 615 943 l 844 943 l 579 488 l 747 488 l 747 329 l 519 329 l 519 276 l 747 276 l 747 118 l 519 118 z "},"♂":{"ha":875,"x_min":100,"x_max":765,"o":"m 522 457 q 626 412 581 443 q 703 338 672 381 q 749 245 733 296 q 765 142 765 194 q 739 10 765 71 q 667 -93 713 -50 q 563 -160 622 -136 q 436 -185 503 -185 q 311 -160 371 -185 q 207 -92 251 -136 q 136 11 163 -49 q 110 142 110 71 q 124 243 110 193 q 168 335 139 293 q 241 409 197 378 q 343 456 285 440 l 343 692 l 217 550 l 100 657 l 436 1033 l 744 657 l 625 536 l 522 669 l 522 457 m 593 143 q 551 263 593 214 q 438 311 508 311 q 324 263 367 311 q 282 143 282 215 q 324 21 282 68 q 438 -26 367 -26 q 551 22 508 -26 q 593 143 593 71 z "},"♀":{"ha":875,"x_min":110,"x_max":764,"o":"m 764 689 q 747 583 764 633 q 698 493 729 533 q 623 422 667 453 q 526 376 579 392 l 526 243 l 758 243 l 758 81 l 526 81 l 526 -181 l 344 -181 l 344 81 l 118 81 l 118 243 l 344 243 l 344 376 q 247 419 290 390 q 173 490 203 449 q 126 581 143 531 q 110 689 110 632 q 134 818 110 758 q 201 922 158 878 q 305 990 244 965 q 436 1015 365 1015 q 568 990 508 1015 q 672 921 628 965 q 740 817 715 876 q 764 689 764 757 m 585 689 q 543 810 585 761 q 436 858 501 858 q 330 811 372 858 q 288 689 288 764 q 330 565 288 611 q 436 519 372 519 q 543 567 501 519 q 585 689 585 614 z "},"∠":{"ha":1111,"x_min":117,"x_max":1000,"o":"m 117 -43 l 117 63 l 785 840 l 919 740 l 397 117 l 1000 117 l 1000 -43 l 117 -43 z "},"⊥":{"ha":1111,"x_min":83,"x_max":1025,"o":"m 83 -46 l 83 115 l 456 115 l 456 794 l 654 794 l 654 115 l 1025 115 l 1025 -46 l 83 -46 z "},"⌒":{"ha":750,"x_min":71,"x_max":678,"o":"m 375 906 q 307 885 335 906 q 260 815 279 864 l 71 815 q 184 1001 107 946 q 375 1057 261 1057 q 565 1001 489 1057 q 678 815 642 946 l 489 815 q 442 885 469 864 q 375 906 415 906 z "},"∂":{"ha":833,"x_min":71,"x_max":763,"o":"m 139 853 q 203 876 174 867 q 260 892 233 886 q 311 901 286 899 q 363 903 336 903 q 535 864 460 903 q 660 758 610 825 q 737 601 711 692 q 763 408 763 511 q 733 197 763 292 q 652 33 704 101 q 527 -74 600 -36 q 365 -111 454 -111 q 235 -85 290 -111 q 142 -15 179 -58 q 88 88 106 29 q 71 210 71 146 q 96 364 71 294 q 166 482 121 433 q 272 558 211 531 q 407 585 333 585 q 571 539 501 585 q 482 692 542 647 q 347 738 422 738 q 318 737 332 738 q 286 732 304 736 q 244 719 268 728 q 186 697 221 711 l 139 853 m 374 49 q 442 68 411 49 q 497 122 472 88 q 536 201 521 156 q 558 299 551 246 q 559 319 561 310 q 554 335 557 328 q 506 402 539 374 q 435 431 474 431 q 319 381 360 431 q 269 246 278 331 q 269 181 267 215 q 283 117 271 146 q 316 68 294 88 q 374 49 338 49 z "},"∇":{"ha":1306,"x_min":128,"x_max":1174,"o":"m 128 835 l 1174 835 l 657 -85 l 128 835 m 961 719 l 438 719 l 703 247 l 961 719 z "},"≡":{"ha":1167,"x_min":167,"x_max":997,"o":"m 167 563 l 167 724 l 997 724 l 997 563 l 167 563 m 167 339 l 167 500 l 997 500 l 997 339 l 167 339 m 167 115 l 167 276 l 997 276 l 997 115 l 167 115 z "},"≒":{"ha":1028,"x_min":97,"x_max":929,"o":"m 97 460 l 97 615 l 929 615 l 929 460 l 97 460 m 97 219 l 97 374 l 929 374 l 929 219 l 97 219 m 394 767 q 362 691 394 722 q 285 660 329 660 q 208 691 240 660 q 176 767 176 722 q 208 843 176 811 q 285 875 240 875 q 362 843 329 875 q 394 767 394 811 m 850 67 q 817 -9 850 22 q 740 -40 785 -40 q 664 -9 696 -40 q 632 67 632 22 q 664 143 632 111 q 740 175 696 175 q 817 143 785 175 q 850 67 850 111 z "},"§":{"ha":625,"x_min":58,"x_max":564,"o":"m 108 119 q 283 60 197 60 q 315 63 299 60 q 346 73 332 65 q 369 94 360 81 q 378 132 378 108 q 355 183 378 160 q 272 229 332 206 q 122 332 164 274 q 79 461 79 390 q 101 556 79 511 q 164 628 124 600 q 101 703 124 661 q 79 790 79 746 q 149 950 79 894 q 340 1006 219 1006 q 448 992 401 1006 q 539 949 494 979 l 488 792 q 417 832 456 813 q 338 851 378 851 q 264 797 264 851 q 291 741 264 764 q 371 696 318 718 q 517 595 474 653 q 561 453 561 538 q 485 290 561 354 q 542 214 521 256 q 564 124 564 172 q 493 -36 564 24 q 281 -96 422 -96 q 163 -81 215 -96 q 58 -29 111 -65 l 108 119 m 383 447 q 364 501 383 482 q 293 542 344 521 q 267 510 275 531 q 258 469 258 490 q 282 419 258 438 q 360 376 306 400 q 378 410 374 390 q 383 447 383 429 z "},"※":{"ha":1265,"x_min":49,"x_max":1203,"o":"m 107 -7 l 515 414 l 100 843 l 219 963 l 633 536 l 1049 963 l 1168 843 l 751 414 l 1161 -7 l 1042 -126 l 633 293 l 226 -126 l 107 -7 m 632 1001 q 711 968 678 1001 q 744 889 744 935 q 711 810 744 843 q 632 776 678 776 q 553 810 586 776 q 519 889 519 843 q 553 968 519 935 q 632 1001 586 1001 m 161 521 q 240 488 207 521 q 274 408 274 454 q 240 329 274 363 q 161 296 207 296 q 82 329 115 296 q 49 408 49 363 q 82 488 49 454 q 161 521 115 521 m 632 54 q 711 21 678 54 q 744 -58 744 -12 q 711 -137 744 -104 q 632 -171 678 -171 q 553 -137 586 -171 q 519 -58 519 -104 q 553 21 519 -12 q 632 54 586 54 m 1090 521 q 1169 488 1136 521 q 1203 408 1203 454 q 1169 329 1203 363 q 1090 296 1136 296 q 1011 329 1044 296 q 978 408 978 363 q 1011 488 978 454 q 1090 521 1044 521 z "},"☆":{"ha":1306,"x_min":44,"x_max":1260,"o":"m 707 528 l 650 706 l 594 528 l 354 528 l 547 383 l 474 189 l 646 318 l 825 183 l 749 382 l 949 528 l 707 528 m 894 349 l 1046 -114 l 649 178 l 257 -104 l 403 354 l 44 629 l 496 629 l 650 1063 l 807 629 l 1260 629 l 894 349 z "},"★":{"ha":1306,"x_min":44,"x_max":1260,"o":"m 894 349 l 1046 -114 l 649 178 l 257 -104 l 403 354 l 44 629 l 496 629 l 650 1063 l 807 629 l 1260 629 l 894 349 z "},"○":{"ha":1306,"x_min":83,"x_max":1222,"o":"m 1222 417 q 1179 194 1222 299 q 1060 13 1136 90 q 879 -108 983 -64 q 653 -153 775 -153 q 434 -110 538 -153 q 253 8 331 -68 q 129 189 175 85 q 83 417 83 293 q 127 638 83 535 q 247 817 171 740 q 428 939 324 894 q 653 983 532 983 q 872 941 768 983 q 1053 824 975 899 q 1176 644 1131 749 q 1222 417 1222 540 m 1067 417 q 1035 584 1067 506 q 947 721 1003 663 q 816 813 892 779 q 653 847 740 847 q 494 815 569 847 q 363 726 419 783 q 272 589 306 668 q 239 417 239 510 q 271 249 239 328 q 358 110 303 169 q 490 17 414 51 q 653 -18 565 -18 q 811 15 736 -18 q 943 105 886 47 q 1033 242 1000 163 q 1067 417 1067 322 z "},"●":{"ha":1306,"x_min":83,"x_max":1222,"o":"m 1222 417 q 1179 194 1222 299 q 1060 13 1136 90 q 879 -108 983 -64 q 653 -153 775 -153 q 434 -110 538 -153 q 253 8 331 -68 q 129 189 175 85 q 83 417 83 293 q 127 638 83 535 q 247 817 171 740 q 428 939 324 894 q 653 983 532 983 q 872 941 768 983 q 1053 824 975 899 q 1176 644 1131 749 q 1222 417 1222 540 z "},"◎":{"ha":1306,"x_min":83,"x_max":1222,"o":"m 1017 418 q 990 276 1017 343 q 914 160 963 210 q 799 83 865 111 q 653 54 732 54 q 513 81 579 54 q 398 157 447 108 q 319 272 349 206 q 290 418 290 339 q 317 558 290 493 q 393 672 344 624 q 508 749 442 721 q 653 778 575 778 q 794 751 728 778 q 909 677 860 725 q 988 563 958 629 q 1017 418 1017 497 m 871 418 q 855 509 871 467 q 810 583 839 551 q 742 634 782 615 q 653 653 701 653 q 567 635 607 653 q 499 587 528 618 q 453 513 469 556 q 436 418 436 469 q 452 326 436 369 q 497 250 468 282 q 565 199 525 218 q 653 181 604 181 q 739 199 699 181 q 808 248 779 217 q 854 323 838 279 q 871 418 871 367 m 1222 417 q 1179 194 1222 299 q 1060 13 1136 90 q 879 -108 983 -64 q 653 -153 775 -153 q 434 -110 538 -153 q 253 8 331 -68 q 129 189 175 85 q 83 417 83 293 q 127 638 83 535 q 247 817 171 740 q 428 939 324 894 q 653 983 532 983 q 872 941 768 983 q 1053 824 975 899 q 1176 644 1131 749 q 1222 417 1222 540 m 1067 417 q 1035 584 1067 506 q 947 721 1003 663 q 816 813 892 779 q 653 847 740 847 q 494 815 569 847 q 363 726 419 783 q 272 589 306 668 q 239 417 239 510 q 271 249 239 328 q 358 110 303 169 q 490 17 414 51 q 653 -18 565 -18 q 811 15 736 -18 q 943 105 886 47 q 1033 242 1000 163 q 1067 417 1067 322 z "},"◇":{"ha":1306,"x_min":17,"x_max":1289,"o":"m 651 -211 l 17 422 l 651 1056 l 1289 422 l 651 -211 m 1092 422 l 651 864 l 213 422 l 651 -18 l 1092 422 z "},"◆":{"ha":1306,"x_min":17,"x_max":1289,"o":"m 651 -211 l 17 422 l 651 1056 l 1289 422 l 651 -211 z "},"□":{"ha":1306,"x_min":113,"x_max":1192,"o":"m 113 -117 l 113 956 l 1192 956 l 1192 -117 l 113 -117 m 1040 826 l 263 826 l 263 13 l 1040 13 l 1040 826 z "},"■":{"ha":1306,"x_min":113,"x_max":1192,"o":"m 113 -117 l 113 956 l 1192 956 l 1192 -117 l 113 -117 z "},"△":{"ha":1306,"x_min":72,"x_max":1232,"o":"m 657 897 l 1232 -15 l 72 -15 l 657 897 m 656 642 l 317 110 l 983 110 l 656 642 z "},"▲":{"ha":1306,"x_min":72,"x_max":1232,"o":"m 657 897 l 1232 -15 l 72 -15 l 657 897 z "},"▽":{"ha":1306,"x_min":72,"x_max":1232,"o":"m 72 835 l 1232 835 l 657 -78 l 72 835 m 983 710 l 317 710 l 656 178 l 983 710 z "},"▼":{"ha":1306,"x_min":72,"x_max":1232,"o":"m 72 835 l 1232 835 l 657 -78 l 72 835 z "},"→":{"ha":1306,"x_min":-4,"x_max":1307,"o":"m 883 144 l 883 338 l -4 338 l -4 496 l 883 496 l 883 690 l 1307 417 l 883 144 z "},"←":{"ha":1306,"x_min":-4,"x_max":1307,"o":"m -4 417 l 419 690 l 419 496 l 1307 496 l 1307 338 l 419 338 l 419 144 l -4 417 z "},"↑":{"ha":1111,"x_min":281,"x_max":826,"o":"m 826 650 l 633 650 l 633 -221 l 475 -221 l 475 650 l 281 650 l 554 1074 l 826 650 z "},"↓":{"ha":1111,"x_min":281,"x_max":826,"o":"m 554 -240 l 281 183 l 475 183 l 475 1057 l 633 1057 l 633 183 l 826 183 l 554 -240 z "},"↔":{"ha":1306,"x_min":19,"x_max":1307,"o":"m 19 417 l 431 686 l 431 496 l 896 496 l 896 686 l 1307 417 l 896 149 l 896 338 l 431 338 l 431 149 l 19 417 z "},"〓":{"ha":1306,"x_min":56,"x_max":1251,"o":"m 56 496 l 56 651 l 1251 651 l 1251 496 l 56 496 m 56 164 l 56 319 l 1251 319 l 1251 164 l 56 164 z "},"≪":{"ha":1306,"x_min":99,"x_max":1217,"o":"m 889 38 l 808 -82 l 99 417 l 801 928 l 888 819 l 351 417 l 889 38 m 1217 38 l 1136 -82 l 426 417 l 1129 928 l 1215 819 l 679 417 l 1217 38 z "},"≫":{"ha":1306,"x_min":88,"x_max":1206,"o":"m 953 417 l 417 819 l 503 928 l 1206 417 l 496 -82 l 415 38 l 953 417 m 625 417 l 89 819 l 175 928 l 878 417 l 168 -82 l 88 38 l 625 417 z "},"√":{"ha":722,"x_min":-8,"x_max":774,"o":"m 544 -267 l 451 -267 l 186 344 l 67 269 l -8 394 l 275 567 l 446 154 l 599 1078 l 774 1078 l 544 -267 z "},"∽":{"ha":1306,"x_min":83,"x_max":1221,"o":"m 1221 415 q 1200 300 1221 354 q 1141 206 1179 246 q 1048 142 1103 165 q 926 118 993 118 q 886 119 906 118 q 844 127 867 121 q 797 147 822 133 q 739 182 771 160 l 826 314 q 888 283 867 290 q 926 276 908 276 q 1006 315 981 276 q 1031 415 1031 353 q 1006 508 1031 474 q 926 543 981 543 q 822 499 865 543 q 739 382 779 454 q 674 276 707 325 q 600 192 642 228 q 505 138 558 157 q 379 118 451 118 q 162 194 240 118 q 83 415 83 271 q 106 537 83 483 q 169 627 129 590 q 264 683 210 664 q 379 703 318 703 q 465 694 425 703 q 565 653 506 685 l 489 508 q 445 530 463 522 q 416 541 428 538 q 396 544 404 544 q 378 544 388 544 q 297 511 324 544 q 271 417 271 478 q 297 317 271 354 q 376 282 322 279 q 440 294 413 283 q 488 326 467 306 q 529 378 510 347 q 569 450 549 410 q 635 560 601 513 q 710 639 668 607 q 804 687 751 671 q 926 703 857 703 q 1052 681 997 703 q 1144 619 1107 658 q 1201 528 1182 581 q 1221 415 1221 475 z "},"∝":{"ha":1306,"x_min":147,"x_max":1172,"o":"m 1172 190 q 1069 135 1115 150 q 968 119 1022 119 q 890 132 926 119 q 820 165 853 144 q 760 213 788 186 q 711 268 733 240 q 585 158 656 197 q 435 119 515 119 q 319 144 372 119 q 228 208 267 168 q 169 303 190 249 q 147 417 147 357 q 168 535 147 481 q 226 631 189 590 q 317 694 264 671 q 436 717 371 717 q 713 574 606 717 q 824 678 761 639 q 969 717 886 717 q 1072 701 1026 717 q 1172 647 1118 686 l 1093 506 q 1021 548 1047 538 q 967 558 994 558 q 922 547 943 558 q 881 516 900 535 q 844 472 861 497 q 810 419 826 446 q 840 369 822 394 q 877 323 857 343 q 921 290 897 303 q 972 278 944 278 q 993 278 983 278 q 1015 285 1003 279 q 1046 301 1028 290 q 1092 333 1064 313 l 1172 190 m 435 276 q 531 316 493 276 q 606 421 569 356 q 533 520 574 479 q 436 561 492 561 q 359 518 385 561 q 333 417 333 475 q 340 365 333 390 q 361 320 347 340 q 393 288 375 300 q 435 276 411 276 z "},"∵":{"ha":1306,"x_min":197,"x_max":1107,"o":"m 781 161 q 770 113 781 136 q 742 73 760 90 q 701 46 725 56 q 650 36 676 36 q 599 46 622 36 q 558 73 575 56 q 530 113 540 90 q 519 161 519 136 q 530 209 519 186 q 558 249 540 232 q 599 277 575 267 q 650 288 622 288 q 701 277 676 288 q 742 249 725 267 q 770 209 760 232 q 781 161 781 186 m 458 717 q 448 669 458 692 q 420 628 438 646 q 378 601 403 611 q 328 592 354 592 q 276 601 300 592 q 235 628 253 611 q 208 669 218 646 q 197 717 197 692 q 208 765 197 742 q 235 805 218 788 q 276 833 253 822 q 328 843 300 843 q 378 833 354 843 q 420 805 403 822 q 448 765 438 788 q 458 717 458 742 m 1107 717 q 1097 669 1107 692 q 1069 628 1086 646 q 1027 601 1051 611 q 976 592 1003 592 q 925 601 949 592 q 884 628 901 611 q 856 669 867 646 q 846 717 846 692 q 856 765 846 742 q 884 805 867 788 q 925 833 901 822 q 976 843 949 843 q 1027 833 1003 843 q 1069 805 1051 822 q 1097 765 1086 788 q 1107 717 1107 742 z "},"∫":{"ha":611,"x_min":79,"x_max":533,"o":"m 419 35 q 372 -138 425 -76 q 206 -200 318 -200 q 181 -200 192 -200 q 156 -198 169 -200 q 124 -192 142 -196 q 79 -181 106 -187 l 79 -14 q 147 -34 124 -31 q 181 -37 169 -37 q 222 -20 213 -37 q 229 32 232 -3 l 192 797 q 237 973 186 914 q 406 1032 288 1032 q 459 1029 433 1032 q 533 1013 485 1026 l 533 843 q 467 864 493 858 q 431 869 442 869 q 382 800 378 869 l 419 35 z "},"∬":{"ha":944,"x_min":72,"x_max":868,"o":"m 410 35 q 362 -138 415 -76 q 196 -200 308 -200 q 171 -200 182 -200 q 147 -198 160 -200 q 116 -192 133 -196 q 72 -181 99 -187 l 72 -14 q 138 -34 117 -31 q 171 -37 160 -37 q 213 -20 203 -37 q 219 32 222 -3 l 182 797 q 227 973 176 914 q 396 1032 278 1032 q 420 1031 410 1032 q 442 1029 431 1031 q 469 1024 454 1028 q 510 1015 485 1021 l 510 847 q 451 866 469 863 q 421 869 432 869 q 372 800 368 869 l 410 35 m 768 35 q 720 -138 774 -76 q 554 -200 667 -200 q 529 -200 540 -200 q 505 -198 518 -200 q 474 -192 492 -196 q 431 -181 457 -187 l 431 -14 q 497 -34 475 -31 q 529 -37 518 -37 q 571 -20 561 -37 q 578 32 581 -3 l 540 797 q 585 973 535 914 q 754 1032 636 1032 q 778 1031 768 1032 q 801 1029 789 1031 q 828 1024 813 1028 q 868 1015 843 1021 l 868 847 q 809 866 828 863 q 779 869 790 869 q 731 800 726 869 l 768 35 z "},"∈":{"ha":1306,"x_min":157,"x_max":1147,"o":"m 522 4 q 363 36 431 4 q 249 124 294 68 q 180 255 203 179 q 157 417 157 331 q 183 576 157 504 q 258 701 210 649 q 376 783 307 754 q 529 813 444 813 l 1147 813 l 1147 650 l 526 650 q 415 606 456 650 q 360 490 375 561 l 1147 490 l 1147 326 l 360 326 q 415 212 375 257 q 521 167 456 167 l 1147 167 l 1147 4 l 522 4 z "},"∋":{"ha":1306,"x_min":157,"x_max":1147,"o":"m 157 4 l 157 167 l 783 167 q 889 212 849 167 q 944 326 929 257 l 157 326 l 157 490 l 944 490 q 889 606 929 561 q 778 650 849 650 l 157 650 l 157 813 l 775 813 q 928 783 860 813 q 1046 701 997 754 q 1121 576 1094 649 q 1147 417 1147 504 q 1124 255 1147 331 q 1056 124 1101 179 q 942 36 1010 68 q 782 4 874 4 l 157 4 z "},"⊆":{"ha":1306,"x_min":153,"x_max":1139,"o":"m 168 -50 l 168 113 l 1139 113 l 1139 -50 l 168 -50 m 468 186 q 231 272 310 186 q 153 507 153 358 q 240 735 153 654 q 478 815 328 815 l 1139 815 l 1139 651 l 475 651 q 372 614 404 651 q 340 501 340 576 q 371 390 340 431 q 468 349 401 349 l 1139 349 l 1139 186 l 468 186 z "},"⊇":{"ha":1306,"x_min":153,"x_max":1139,"o":"m 153 -50 l 153 113 l 1124 113 l 1124 -50 l 153 -50 m 153 186 l 153 349 l 824 349 q 921 390 890 349 q 951 501 951 431 q 919 614 951 576 q 817 651 888 651 l 153 651 l 153 815 l 814 815 q 1051 735 964 815 q 1139 507 1139 654 q 1060 272 1139 358 q 824 186 982 186 l 153 186 z "},"⊂":{"ha":1306,"x_min":157,"x_max":1146,"o":"m 524 1 q 363 34 432 1 q 249 123 294 67 q 180 255 203 179 q 157 417 157 331 q 183 577 157 504 q 259 703 210 650 q 377 785 308 756 q 531 815 446 815 l 1146 815 l 1146 653 l 528 653 q 401 593 449 653 q 354 417 354 533 q 401 224 354 285 q 522 164 447 164 l 1146 164 l 1146 1 l 524 1 z "},"⊃":{"ha":1306,"x_min":157,"x_max":1146,"o":"m 157 1 l 157 164 l 781 164 q 902 224 856 164 q 949 417 949 285 q 901 593 949 533 q 775 653 854 653 l 157 653 l 157 815 l 772 815 q 926 785 857 815 q 1044 703 994 756 q 1119 577 1093 650 q 1146 417 1146 504 q 1123 255 1146 331 q 1054 123 1100 179 q 940 34 1008 67 q 779 1 871 1 l 157 1 z "},"∪":{"ha":1111,"x_min":163,"x_max":947,"o":"m 947 324 q 919 163 947 236 q 840 38 892 90 q 717 -43 789 -14 q 556 -72 644 -72 q 388 -43 461 -72 q 264 39 314 -14 q 188 165 214 92 q 163 326 163 238 l 163 918 l 356 918 l 356 339 q 401 158 356 224 q 556 92 447 92 q 709 160 664 92 q 754 342 754 228 l 754 918 l 947 918 l 947 324 z "},"∩":{"ha":1111,"x_min":163,"x_max":947,"o":"m 947 -72 l 754 -72 l 754 504 q 709 686 754 618 q 556 754 664 754 q 401 688 447 754 q 356 507 356 622 l 356 -72 l 163 -72 l 163 519 q 188 681 163 608 q 264 807 214 754 q 388 889 314 860 q 556 918 461 918 q 717 889 644 918 q 840 808 789 860 q 919 683 892 756 q 947 522 947 610 l 947 -72 z "},"∧":{"ha":1306,"x_min":160,"x_max":1144,"o":"m 1144 -44 l 943 -44 l 654 554 l 364 -43 l 160 -43 l 654 929 l 1144 -44 z "},"∨":{"ha":1306,"x_min":160,"x_max":1144,"o":"m 654 -89 l 160 883 l 364 883 l 654 286 l 943 885 l 1144 885 l 654 -89 z "},"￢":{"ha":1306,"x_min":28,"x_max":1275,"o":"m 1275 -244 l 1075 -244 l 1075 76 l 28 76 l 28 239 l 1275 239 l 1275 -244 z "},"⇒":{"ha":1306,"x_min":33,"x_max":1288,"o":"m 853 200 l 33 200 l 33 356 l 1008 356 l 1069 417 l 1007 479 l 33 479 l 33 633 l 854 633 l 765 724 l 872 840 l 1288 417 l 874 -7 l 767 113 l 853 200 z "},"⇔":{"ha":1306,"x_min":15,"x_max":1288,"o":"m 853 200 l 449 200 l 536 113 l 429 -7 l 15 417 l 431 840 l 538 724 l 447 633 l 854 633 l 765 724 l 872 840 l 1288 417 l 874 -7 l 767 113 l 853 200 m 294 356 l 1008 356 l 1069 417 l 1007 479 l 294 479 l 233 417 l 294 356 z "},"∀":{"ha":833,"x_min":-6,"x_max":835,"o":"m 211 944 l 281 707 l 549 707 l 617 944 l 835 944 l 519 -71 l 313 -71 l -6 944 l 211 944 m 503 547 l 328 547 l 417 244 l 503 547 z "},"∃":{"ha":778,"x_min":50,"x_max":683,"o":"m 94 367 l 94 536 l 474 536 l 474 774 l 72 774 l 72 944 l 683 944 l 683 -69 l 50 -69 l 50 101 l 474 101 l 474 367 l 94 367 z "},"´":{"ha":556,"x_min":114,"x_max":468,"o":"m 249 1056 l 468 1056 l 283 819 l 114 819 l 249 1056 z "},"ˇ":{"ha":500,"x_min":35,"x_max":463,"o":"m 324 818 l 174 818 l 35 1056 l 210 1056 l 251 976 l 290 1056 l 463 1056 l 324 818 z "},"˘":{"ha":521,"x_min":72,"x_max":451,"o":"m 451 1056 q 395 906 444 951 q 263 861 346 861 q 127 912 175 861 q 72 1056 79 963 l 228 1056 q 240 1005 231 1017 q 263 993 250 993 q 285 1005 276 993 q 296 1056 294 1017 l 451 1056 l 451 1056 z "},"˝":{"ha":611,"x_min":31,"x_max":563,"o":"m 167 1056 l 353 1056 l 168 819 l 31 819 l 167 1056 m 376 1056 l 563 1056 l 378 819 l 240 819 l 376 1056 z "},"˚":{"ha":417,"x_min":64,"x_max":351,"o":"m 351 939 q 339 879 351 906 q 306 834 326 853 q 260 805 286 815 q 208 794 235 794 q 156 805 182 794 q 110 834 131 815 q 76 879 89 853 q 64 939 64 906 q 76 999 64 972 q 110 1044 89 1025 q 156 1072 131 1063 q 208 1082 182 1082 q 260 1072 235 1082 q 306 1044 286 1063 q 339 999 326 1025 q 351 939 351 972 m 238 939 q 228 960 238 951 q 208 969 219 969 q 187 960 196 969 q 178 939 178 951 q 187 917 178 925 q 208 908 196 908 q 228 917 219 908 q 238 939 238 925 z "},"˙":{"ha":417,"x_min":115,"x_max":301,"o":"m 115 882 l 115 1068 l 301 1068 l 301 882 l 115 882 z "},"¸":{"ha":417,"x_min":71,"x_max":346,"o":"m 288 -11 l 267 -61 q 326 -106 306 -76 q 346 -171 346 -135 q 333 -220 346 -200 q 300 -253 321 -240 q 251 -271 279 -265 q 190 -276 222 -276 q 126 -269 154 -276 q 71 -247 99 -262 l 103 -160 q 147 -175 131 -172 q 175 -179 164 -178 q 198 -178 192 -181 q 206 -167 204 -175 q 181 -142 208 -151 q 107 -131 154 -133 l 171 15 l 288 -11 z "},"˛":{"ha":417,"x_min":71,"x_max":343,"o":"m 296 -86 q 259 -96 276 -89 q 230 -112 242 -103 q 213 -134 218 -122 q 213 -158 208 -146 q 236 -172 218 -172 q 268 -167 249 -172 q 310 -147 288 -161 l 343 -233 q 276 -265 311 -256 q 208 -275 240 -275 q 157 -270 182 -275 q 113 -253 132 -265 q 83 -219 94 -240 q 71 -165 71 -197 q 83 -110 71 -139 q 121 -57 96 -82 q 181 -13 146 -32 q 263 11 217 6 l 296 -86 z "},"¡":{"ha":333,"x_min":57,"x_max":275,"o":"m 264 403 l 275 -314 l 57 -314 l 67 403 l 264 403 m 268 692 l 268 483 l 58 483 l 58 692 l 268 692 z "},"¿":{"ha":611,"x_min":35,"x_max":585,"o":"m 426 371 q 424 309 426 342 q 410 242 421 276 q 381 172 400 207 q 331 100 363 136 q 264 7 283 47 q 244 -76 244 -33 q 261 -135 244 -117 q 318 -154 278 -154 q 393 -131 358 -154 q 476 -47 428 -108 l 585 -190 q 454 -292 518 -262 q 306 -321 390 -321 q 188 -303 239 -321 q 103 -255 138 -286 q 52 -183 69 -224 q 35 -93 35 -142 q 72 49 35 -18 q 163 179 108 117 q 215 274 201 224 q 229 372 229 324 l 229 438 l 426 438 l 426 371 m 435 694 l 435 486 l 219 486 l 219 694 l 435 694 z "},"ː":{"ha":417,"x_min":42,"x_max":372,"o":"m 211 474 l 42 758 l 372 758 l 211 474 m 211 358 l 42 74 l 372 74 l 211 358 z "},"∮":{"ha":833,"x_min":101,"x_max":728,"o":"m 526 664 q 656 577 607 639 q 706 419 706 515 q 642 244 706 310 q 475 163 578 178 l 463 32 q 443 -59 457 -17 q 402 -133 429 -101 q 333 -181 375 -164 q 229 -199 290 -199 q 203 -199 215 -199 q 178 -197 192 -199 q 147 -190 165 -194 q 101 -179 129 -186 l 126 -14 q 185 -33 165 -29 q 218 -36 204 -36 q 269 -19 251 -36 q 292 38 288 -3 l 306 175 q 179 264 226 201 q 132 419 132 326 q 196 593 132 526 q 360 675 260 660 l 374 803 q 393 893 379 851 q 433 966 407 935 q 502 1015 460 997 q 606 1032 544 1032 q 629 1031 618 1032 q 653 1028 640 1031 q 684 1021 667 1025 q 728 1008 701 1017 l 707 844 q 649 865 667 860 q 617 869 632 869 q 565 853 585 869 q 540 794 544 836 l 526 664 m 539 419 q 510 499 539 467 l 492 322 q 526 363 514 338 q 539 419 539 388 m 296 421 q 324 338 296 368 l 342 515 q 308 476 321 500 q 296 421 296 453 z "},"∑":{"ha":972,"x_min":83,"x_max":886,"o":"m 83 -71 l 83 19 l 467 435 l 83 821 l 83 943 l 885 943 l 885 771 l 392 771 l 724 447 l 403 103 l 886 103 l 886 -71 l 83 -71 z "},"∏":{"ha":956,"x_min":11,"x_max":933,"o":"m 788 775 l 788 -86 l 571 -86 l 571 775 l 369 775 l 369 -86 l 157 -86 l 157 775 l 11 775 l 11 943 l 933 943 l 933 775 l 788 775 z "},"¤":{"ha":778,"x_min":25,"x_max":751,"o":"m 386 767 q 469 754 432 767 q 535 725 507 742 l 636 833 l 751 717 l 636 615 q 665 549 656 583 q 675 467 675 514 q 665 374 675 414 q 636 303 656 333 l 746 200 l 632 88 l 531 196 q 461 165 499 176 q 383 154 424 154 q 308 165 344 154 q 239 194 271 176 l 139 86 l 25 197 l 135 303 q 104 372 115 335 q 93 458 93 408 q 105 549 93 508 q 138 622 117 590 l 26 719 l 139 835 l 242 726 q 308 755 271 743 q 386 767 346 767 m 385 611 q 306 567 333 611 q 279 460 279 524 q 289 392 279 421 q 314 346 299 364 q 347 319 329 328 q 383 311 365 311 q 455 347 422 311 q 488 465 488 382 q 481 518 488 492 q 463 565 475 544 q 431 599 450 586 q 385 611 411 611 z "},"℉":{"ha":1319,"x_min":76,"x_max":1271,"o":"m 76 908 q 92 981 76 946 q 133 1042 107 1015 q 197 1083 160 1068 q 278 1099 233 1099 q 357 1083 321 1099 q 420 1042 393 1068 q 463 981 447 1015 q 478 908 478 946 q 463 835 478 869 q 420 774 447 800 q 357 731 393 747 q 278 715 321 715 q 197 731 233 715 q 133 772 160 746 q 91 833 106 799 q 76 908 76 868 m 278 840 q 326 860 306 840 q 346 908 346 881 q 326 956 346 936 q 278 976 306 976 q 230 956 250 976 q 210 908 210 936 q 230 860 210 881 q 278 840 250 840 m 1244 463 l 1244 293 l 768 293 l 768 -153 l 549 -153 l 549 885 l 1271 885 l 1271 715 l 768 715 l 768 463 l 1244 463 z "},"‰":{"ha":1306,"x_min":40,"x_max":1264,"o":"m 219 383 q 83 449 126 383 q 40 644 40 514 q 83 845 40 774 q 219 917 125 917 q 356 845 314 917 q 399 644 399 774 q 356 449 399 514 q 219 383 313 383 m 219 781 q 201 744 207 781 q 196 644 196 708 q 201 549 196 578 q 221 519 207 519 q 238 549 232 519 q 243 644 243 578 q 238 744 243 708 q 219 781 232 781 m 572 947 l 715 947 l 342 -68 l 199 -68 l 572 947 m 696 -36 q 560 29 603 -36 q 517 225 517 94 q 559 426 517 354 q 696 497 601 497 q 833 426 790 497 q 875 225 875 354 q 832 29 875 94 q 696 -36 789 -36 m 696 361 q 678 325 683 361 q 672 225 672 289 q 678 129 672 158 q 697 100 683 100 q 714 129 708 100 q 719 225 719 158 q 714 325 719 289 q 696 361 708 361 m 1085 -36 q 949 29 992 -36 q 906 225 906 94 q 948 426 906 354 q 1085 497 990 497 q 1222 426 1179 497 q 1264 225 1264 354 q 1221 29 1264 94 q 1085 -36 1178 -36 m 1085 361 q 1067 325 1072 361 q 1061 225 1061 289 q 1067 129 1061 158 q 1086 100 1072 100 q 1103 129 1097 100 q 1108 225 1108 158 q 1103 325 1108 289 q 1085 361 1097 361 z "},"◁":{"ha":1306,"x_min":197,"x_max":1097,"o":"m 197 419 l 1097 981 l 1097 -136 l 197 419 m 436 418 l 961 100 l 961 742 l 436 418 z "},"◀":{"ha":1306,"x_min":197,"x_max":1097,"o":"m 197 419 l 1097 981 l 1097 -136 l 197 419 z "},"▷":{"ha":1306,"x_min":208,"x_max":1108,"o":"m 208 -136 l 208 981 l 1108 419 l 208 -136 m 344 742 l 344 100 l 869 418 l 344 742 z "},"▶":{"ha":1306,"x_min":208,"x_max":1108,"o":"m 208 -136 l 208 981 l 1108 419 l 208 -136 z "},"♤":{"ha":1306,"x_min":171,"x_max":1133,"o":"m 846 -183 l 460 -183 l 460 -107 q 494 -22 479 -74 q 518 78 508 31 q 442 47 481 58 q 381 36 404 36 q 226 101 281 36 q 171 267 171 165 q 294 578 171 383 q 653 1026 418 774 q 1010 578 888 774 q 1133 267 1133 383 q 1079 101 1133 165 q 925 36 1025 36 q 862 47 900 36 q 783 78 824 57 q 809 -20 792 31 q 846 -107 826 -71 l 846 -183 m 994 268 q 959 398 994 322 q 872 554 924 474 q 760 710 819 635 q 653 839 701 786 q 545 710 604 786 q 434 554 486 635 q 347 398 382 474 q 311 268 311 322 q 326 190 311 222 q 381 157 340 157 q 431 168 404 157 q 507 210 457 179 q 540 226 522 219 q 576 232 557 232 q 626 213 610 232 q 642 149 642 194 q 630 42 642 101 q 601 -67 618 -18 l 601 -71 l 703 -71 l 703 -67 q 676 42 688 -18 q 665 149 665 101 q 681 213 665 194 q 729 232 696 232 q 766 226 749 232 q 799 210 783 219 q 877 168 849 179 q 925 157 906 157 q 980 190 965 157 q 994 268 994 222 z "},"♠":{"ha":1306,"x_min":171,"x_max":1133,"o":"m 846 -183 l 460 -183 l 460 -107 q 494 -22 479 -74 q 518 78 508 31 q 442 47 481 58 q 381 36 404 36 q 226 101 281 36 q 171 267 171 165 q 294 578 171 383 q 653 1026 418 774 q 1010 578 888 774 q 1133 267 1133 383 q 1079 101 1133 165 q 925 36 1025 36 q 862 47 900 36 q 783 78 824 57 q 809 -20 792 31 q 846 -107 826 -71 l 846 -183 z "},"♡":{"ha":1379,"x_min":75,"x_max":1311,"o":"m 693 -147 q 454 26 567 -71 q 258 224 342 122 q 124 428 174 326 q 75 618 75 531 q 99 747 75 685 q 164 857 122 810 q 264 933 206 904 q 392 961 322 961 q 482 950 436 961 q 568 917 528 939 q 641 863 608 894 q 693 792 674 832 q 745 863 713 832 q 818 917 778 894 q 904 950 858 939 q 994 961 950 961 q 1122 933 1064 961 q 1222 857 1181 904 q 1288 747 1264 810 q 1311 618 1311 685 q 1262 428 1311 531 q 1128 224 1213 326 q 932 26 1044 122 q 693 -147 819 -71 m 693 14 q 869 153 785 79 q 1017 305 953 228 q 1120 458 1082 382 q 1158 603 1158 533 q 1142 703 1158 661 q 1100 772 1126 744 q 1039 812 1074 799 q 967 825 1004 825 q 899 814 929 825 q 844 785 868 803 q 802 743 821 767 q 769 696 783 719 q 734 644 754 669 q 693 618 714 618 q 652 643 672 618 q 617 694 632 668 q 583 742 601 718 q 541 784 565 765 q 487 814 517 803 q 419 825 457 825 q 347 812 382 825 q 286 772 313 799 q 244 703 260 744 q 228 603 228 661 q 266 458 228 533 q 369 305 304 382 q 517 153 433 228 q 693 14 601 79 z "},"♥":{"ha":1379,"x_min":75,"x_max":1311,"o":"m 693 -147 q 454 26 567 -71 q 258 224 342 122 q 124 428 174 326 q 75 618 75 531 q 99 747 75 685 q 164 857 122 810 q 264 933 206 904 q 392 961 322 961 q 482 950 436 961 q 568 917 528 939 q 641 863 608 894 q 693 792 674 832 q 745 863 713 832 q 818 917 778 894 q 904 950 858 939 q 994 961 950 961 q 1122 933 1064 961 q 1222 857 1181 904 q 1288 747 1264 810 q 1311 618 1311 685 q 1262 428 1311 531 q 1128 224 1213 326 q 932 26 1044 122 q 693 -147 819 -71 z "},"♧":{"ha":1306,"x_min":65,"x_max":1240,"o":"m 460 -106 q 501 -26 481 -65 q 533 60 522 14 q 538 84 538 78 q 535 92 539 90 q 515 83 526 94 q 493 64 504 72 q 416 17 453 32 q 325 1 379 1 q 219 24 267 1 q 137 85 171 47 q 84 174 103 124 q 65 279 65 225 q 85 384 65 335 q 138 471 104 433 q 218 531 172 508 q 318 553 264 553 q 395 540 356 553 q 479 501 435 526 q 497 493 486 497 q 513 499 507 489 q 512 514 518 508 q 499 526 506 519 q 444 580 467 556 q 406 631 421 604 q 384 690 392 658 q 376 765 376 722 q 400 865 376 819 q 463 944 424 911 q 551 995 501 976 q 653 1014 600 1014 q 754 995 704 1014 q 843 944 804 976 q 906 865 882 911 q 929 765 929 819 q 921 690 929 722 q 896 631 913 658 q 855 578 879 603 q 800 524 831 553 q 788 512 793 517 q 789 497 783 507 q 804 491 794 488 q 821 499 814 494 q 908 538 865 524 q 988 553 950 553 q 1085 531 1039 553 q 1166 473 1132 510 q 1220 386 1200 436 q 1240 279 1240 336 q 1221 172 1240 222 q 1167 84 1201 122 q 1085 24 1133 46 q 981 1 1038 1 q 890 17 926 1 q 813 64 853 32 q 790 81 801 72 q 771 89 779 90 q 766 83 764 88 q 772 60 768 78 q 804 -26 783 14 q 846 -106 825 -65 l 846 -171 l 460 -171 l 460 -106 m 706 -61 l 706 -58 q 674 53 685 -7 q 664 160 664 113 q 682 217 664 197 q 728 236 700 236 q 793 211 765 236 q 874 147 833 174 q 969 119 915 119 q 1078 167 1039 119 q 1118 285 1118 214 q 1108 346 1118 317 q 1078 397 1097 375 q 1033 433 1060 419 q 976 446 1007 446 q 865 415 922 446 q 821 397 846 404 q 772 388 796 389 q 724 396 747 388 q 686 425 701 404 q 667 499 660 461 q 706 567 675 536 q 751 615 732 593 q 783 658 771 636 q 801 703 796 679 q 807 760 807 726 q 763 864 807 824 q 653 904 719 904 q 543 864 586 904 q 500 760 500 824 q 506 703 500 726 q 523 658 511 679 q 553 615 535 636 q 600 567 572 593 q 636 497 628 539 q 619 422 644 456 q 583 394 604 403 q 536 388 561 386 q 486 397 511 389 q 440 415 461 404 q 329 446 385 446 q 272 433 297 446 q 227 397 246 419 q 198 346 208 375 q 188 285 188 317 q 227 167 188 214 q 336 119 267 119 q 431 147 390 119 q 513 211 472 174 q 578 236 539 236 q 624 217 606 236 q 642 160 642 197 q 639 108 642 136 q 631 51 636 81 q 617 -6 625 22 q 600 -58 610 -33 l 600 -61 l 706 -61 z "},"♣":{"ha":1306,"x_min":65,"x_max":1240,"o":"m 460 -106 q 501 -26 481 -65 q 533 60 522 14 q 538 84 538 78 q 535 92 539 90 q 515 83 526 94 q 493 64 504 72 q 416 17 453 32 q 325 1 379 1 q 219 24 267 1 q 137 85 171 47 q 84 174 103 124 q 65 279 65 225 q 85 384 65 335 q 138 471 104 433 q 218 531 172 508 q 318 553 264 553 q 395 540 356 553 q 479 501 435 526 q 497 493 486 497 q 513 499 507 489 q 512 514 518 508 q 499 526 506 519 q 444 580 467 556 q 406 631 421 604 q 384 690 392 658 q 376 765 376 722 q 400 865 376 819 q 463 944 424 911 q 551 995 501 976 q 653 1014 600 1014 q 754 995 704 1014 q 843 944 804 976 q 906 865 882 911 q 929 765 929 819 q 921 690 929 722 q 896 631 913 658 q 855 578 879 603 q 800 524 831 553 q 788 512 793 517 q 789 497 783 507 q 804 491 794 488 q 821 499 814 494 q 908 538 865 524 q 988 553 950 553 q 1085 531 1039 553 q 1166 473 1132 510 q 1220 386 1200 436 q 1240 279 1240 336 q 1221 172 1240 222 q 1167 84 1201 122 q 1085 24 1133 46 q 981 1 1038 1 q 890 17 926 1 q 813 64 853 32 q 790 81 801 72 q 771 89 779 90 q 766 83 764 88 q 772 60 768 78 q 804 -26 783 14 q 846 -106 825 -65 l 846 -171 l 460 -171 l 460 -106 z "},"⊙":{"ha":1306,"x_min":83,"x_max":1222,"o":"m 858 417 q 842 338 858 375 q 797 273 825 301 q 731 228 769 244 q 651 213 693 213 q 572 228 610 213 q 506 273 533 244 q 461 338 478 301 q 444 417 444 375 q 461 497 444 460 q 506 563 478 535 q 572 606 533 590 q 651 621 610 621 q 731 606 693 621 q 797 563 768 590 q 842 497 825 535 q 858 417 858 460 m 1222 417 q 1179 194 1222 299 q 1060 13 1136 90 q 879 -108 983 -64 q 653 -153 775 -153 q 434 -110 538 -153 q 253 8 331 -68 q 129 189 175 85 q 83 417 83 293 q 127 638 83 535 q 247 817 171 740 q 428 939 324 894 q 653 983 532 983 q 872 941 768 983 q 1053 824 975 899 q 1176 644 1131 749 q 1222 417 1222 540 m 1067 417 q 1035 584 1067 506 q 947 721 1003 663 q 816 813 892 779 q 653 847 740 847 q 494 815 569 847 q 363 726 419 783 q 272 589 306 668 q 239 417 239 510 q 271 249 239 328 q 358 110 303 169 q 490 17 414 51 q 653 -18 565 -18 q 811 15 736 -18 q 943 105 886 47 q 1033 242 1000 163 q 1067 417 1067 322 z "},"◈":{"ha":1306,"x_min":14,"x_max":1290,"o":"m 651 -211 l 14 422 l 651 1056 l 1290 422 l 651 -211 m 1093 422 l 651 864 l 210 422 l 651 -18 l 1093 422 m 651 57 l 286 422 l 651 788 l 1017 422 l 651 57 z "},"▣":{"ha":1306,"x_min":115,"x_max":1192,"o":"m 115 -117 l 115 956 l 1192 956 l 1192 -117 l 115 -117 m 1040 826 l 265 826 l 265 13 l 1040 13 l 1040 826 m 938 136 l 369 136 l 369 701 l 938 701 l 938 136 z "},"◐":{"ha":1306,"x_min":83,"x_max":1219,"o":"m 1219 419 q 1176 193 1219 297 q 1057 13 1133 89 q 875 -107 981 -64 q 646 -150 769 -150 q 422 -107 525 -150 q 244 13 319 -64 q 126 193 169 89 q 83 419 83 297 q 126 645 83 542 q 245 824 169 749 q 424 942 321 900 q 646 985 526 985 q 875 942 769 985 q 1057 823 981 899 q 1176 644 1133 747 q 1219 419 1219 540 m 1092 418 q 1062 583 1092 506 q 979 720 1032 660 q 854 819 926 781 q 697 867 782 857 l 697 -32 q 853 15 781 -24 q 978 115 925 54 q 1061 253 1031 175 q 1092 418 1092 331 z "},"◑":{"ha":1306,"x_min":83,"x_max":1219,"o":"m 83 419 q 126 644 83 540 q 246 823 169 747 q 428 942 322 899 q 657 985 533 985 q 879 942 776 985 q 1058 824 982 900 q 1176 645 1133 749 q 1219 419 1219 542 q 1176 193 1219 297 q 1058 13 1133 89 q 881 -107 983 -64 q 657 -150 778 -150 q 428 -107 533 -150 q 246 13 322 -64 q 126 193 169 89 q 83 419 83 297 m 211 418 q 242 253 211 331 q 325 115 272 175 q 450 15 378 54 q 606 -32 522 -24 l 606 867 q 449 819 521 857 q 324 720 376 781 q 241 583 271 660 q 211 418 211 506 z "},"▒":{"ha":1306,"x_min":72,"x_max":1232,"o":"m 1231 944 q 1217 911 1231 924 q 1185 899 1203 899 q 1149 911 1164 899 q 1135 944 1135 924 q 1149 978 1135 965 q 1185 992 1164 992 q 1217 978 1203 992 q 1231 944 1231 965 m 1054 944 q 1040 911 1054 924 q 1006 899 1026 899 q 971 911 985 899 q 957 944 957 924 q 971 979 957 965 q 1006 993 985 993 q 1040 979 1026 993 q 1054 944 1054 965 m 1231 768 q 1217 733 1231 747 q 1185 719 1203 719 q 1149 733 1164 719 q 1135 768 1135 746 q 1149 802 1135 789 q 1185 815 1164 815 q 1217 802 1203 815 q 1231 768 1231 789 m 878 944 q 865 911 878 924 q 831 899 851 899 q 796 911 810 899 q 782 944 782 924 q 796 979 782 965 q 831 993 810 993 q 865 979 851 993 q 878 944 878 965 m 1054 769 q 1040 733 1054 747 q 1006 719 1026 719 q 971 733 985 719 q 957 769 957 747 q 971 803 957 790 q 1006 817 985 817 q 1040 803 1026 817 q 1054 769 1054 790 m 1231 590 q 1217 556 1231 569 q 1185 543 1203 543 q 1149 556 1164 543 q 1135 590 1135 569 q 1149 625 1135 611 q 1185 639 1164 639 q 1217 625 1203 639 q 1231 590 1231 611 m 878 769 q 865 733 878 747 q 831 719 851 719 q 796 733 810 719 q 782 769 782 747 q 796 803 782 790 q 831 817 810 817 q 865 803 851 817 q 878 769 878 790 m 700 944 q 687 911 700 924 q 651 899 674 899 q 619 911 632 899 q 606 944 606 924 q 619 978 606 965 q 651 992 632 992 q 687 978 674 992 q 700 944 700 965 m 1054 592 q 1040 556 1054 569 q 1006 543 1026 543 q 971 557 985 543 q 957 592 957 571 q 971 626 957 613 q 1006 639 985 639 q 1040 626 1026 639 q 1054 592 1054 613 m 1231 413 q 1217 381 1231 394 q 1185 367 1203 367 q 1149 381 1164 367 q 1135 413 1135 394 q 1149 447 1135 433 q 1185 461 1164 461 q 1217 447 1203 461 q 1231 413 1231 433 m 878 592 q 865 557 878 571 q 831 543 851 543 q 796 557 810 543 q 782 592 782 571 q 796 626 782 613 q 831 639 810 639 q 865 626 851 639 q 878 592 878 613 m 700 768 q 687 733 700 746 q 651 719 674 719 q 619 733 632 719 q 606 768 606 747 q 619 802 606 789 q 651 815 632 815 q 687 802 674 815 q 700 768 700 789 m 1231 238 q 1217 203 1231 218 q 1185 189 1203 189 q 1149 203 1164 189 q 1135 238 1135 218 q 1149 271 1135 257 q 1185 285 1164 285 q 1217 271 1203 285 q 1231 238 1231 257 m 522 944 q 509 911 522 924 q 474 899 496 899 q 440 911 453 899 q 426 944 426 924 q 440 978 426 965 q 474 992 453 992 q 509 978 496 992 q 522 944 522 965 m 1053 413 q 1040 381 1053 394 q 1006 367 1026 367 q 971 381 985 367 q 957 413 957 394 q 971 447 957 433 q 1006 461 985 461 q 1040 447 1026 461 q 1053 413 1053 433 m 700 590 q 687 556 700 569 q 651 543 674 543 q 619 556 632 543 q 606 590 606 569 q 619 625 606 611 q 651 639 632 639 q 687 625 674 639 q 700 590 700 611 m 876 413 q 864 381 876 394 q 831 367 851 367 q 796 381 810 367 q 782 413 782 394 q 796 447 782 433 q 831 461 810 461 q 864 447 851 461 q 876 413 876 433 m 1232 60 q 1218 26 1232 40 q 1186 11 1204 11 q 1149 26 1163 11 q 1135 60 1135 40 q 1149 96 1135 82 q 1186 110 1163 110 q 1218 95 1204 110 q 1232 60 1232 81 m 347 944 q 333 911 347 924 q 297 899 318 899 q 263 911 276 899 q 249 944 249 924 q 263 979 249 965 q 297 993 276 993 q 333 979 318 993 q 347 944 347 965 m 522 768 q 509 733 522 746 q 474 719 496 719 q 440 733 453 719 q 426 768 426 747 q 440 802 426 789 q 474 815 453 815 q 509 802 496 815 q 522 768 522 789 m 1053 238 q 1040 203 1053 218 q 1006 189 1026 189 q 971 203 985 189 q 957 238 957 218 q 971 271 957 257 q 1006 285 985 285 q 1040 271 1026 285 q 1053 238 1053 257 m 700 413 q 687 381 700 394 q 651 367 674 367 q 619 381 632 367 q 606 413 606 394 q 619 447 606 433 q 651 461 632 461 q 687 447 674 461 q 700 413 700 433 m 876 238 q 864 203 876 218 q 831 189 851 189 q 796 203 810 189 q 782 238 782 218 q 796 271 782 257 q 831 285 810 285 q 864 271 851 285 q 876 238 876 257 m 1232 -117 q 1218 -151 1232 -137 q 1186 -165 1204 -165 q 1149 -151 1163 -165 q 1135 -117 1135 -137 q 1149 -83 1135 -97 q 1186 -69 1163 -69 q 1218 -83 1204 -69 q 1232 -117 1232 -97 m 347 769 q 333 733 347 747 q 297 719 318 719 q 263 733 276 719 q 249 769 249 747 q 263 803 249 790 q 297 817 276 817 q 333 803 318 817 q 347 769 347 790 m 522 590 q 509 556 522 569 q 474 543 496 543 q 440 556 453 543 q 426 590 426 569 q 440 625 426 611 q 474 639 453 639 q 509 625 496 639 q 522 590 522 611 m 1054 60 q 1040 26 1054 40 q 1006 11 1026 11 q 972 26 986 11 q 957 60 957 40 q 971 95 957 81 q 1006 110 985 110 q 1040 95 1026 110 q 1054 60 1054 81 m 168 944 q 153 911 168 924 q 118 899 139 899 q 86 911 100 899 q 72 944 72 924 q 86 978 72 965 q 118 992 100 992 q 153 978 139 992 q 168 944 168 965 m 700 238 q 687 203 700 218 q 651 189 674 189 q 619 203 632 189 q 606 238 606 218 q 619 271 606 257 q 651 285 632 285 q 687 271 674 285 q 700 238 700 257 m 878 60 q 865 26 878 40 q 831 11 851 11 q 796 26 810 11 q 782 60 782 40 q 796 95 782 81 q 831 110 810 110 q 865 95 851 110 q 878 60 878 81 m 347 592 q 333 557 347 571 q 297 543 318 543 q 263 556 276 543 q 249 592 249 569 q 263 626 249 613 q 297 639 276 639 q 333 626 318 639 q 347 592 347 613 m 522 413 q 509 381 522 394 q 474 367 496 367 q 440 381 453 367 q 426 413 426 394 q 440 447 426 433 q 474 461 453 461 q 509 447 496 461 q 522 413 522 433 m 1054 -117 q 1040 -151 1054 -137 q 1006 -165 1026 -165 q 972 -151 986 -165 q 957 -117 957 -136 q 971 -83 957 -97 q 1006 -69 985 -69 q 1040 -83 1026 -69 q 1054 -117 1054 -97 m 168 768 q 153 733 168 747 q 118 719 139 719 q 86 733 100 719 q 72 768 72 747 q 86 802 72 789 q 118 815 100 815 q 153 802 139 815 q 168 768 168 789 m 701 60 q 688 26 701 40 q 651 11 675 11 q 619 26 632 11 q 606 60 606 40 q 619 95 606 81 q 651 110 632 110 q 688 96 675 110 q 701 60 701 82 m 878 -117 q 865 -151 878 -136 q 831 -165 851 -165 q 796 -151 810 -165 q 782 -117 782 -136 q 796 -83 782 -97 q 831 -69 810 -69 q 865 -83 851 -69 q 878 -117 878 -97 m 522 238 q 509 203 522 218 q 474 189 496 189 q 440 203 453 189 q 426 238 426 218 q 440 271 426 257 q 474 285 453 285 q 509 271 496 285 q 522 238 522 257 m 168 589 q 153 556 168 569 q 118 543 139 543 q 86 556 100 543 q 72 589 72 569 q 86 626 72 613 q 118 639 100 639 q 153 626 139 639 q 168 589 168 613 m 346 413 q 331 381 346 394 q 297 367 317 367 q 263 381 276 367 q 249 413 249 394 q 263 447 249 433 q 297 461 276 461 q 332 447 318 461 q 346 413 346 433 m 701 -117 q 688 -151 701 -137 q 651 -165 675 -165 q 619 -151 632 -165 q 606 -117 606 -137 q 619 -83 606 -97 q 651 -69 632 -69 q 688 -83 675 -69 q 701 -117 701 -97 m 524 60 q 510 26 524 40 q 475 11 497 11 q 440 26 454 11 q 426 60 426 40 q 440 95 426 81 q 475 110 454 110 q 510 95 497 110 q 524 60 524 81 m 346 238 q 331 203 346 218 q 297 189 317 189 q 263 203 276 189 q 249 238 249 218 q 263 271 249 257 q 297 285 276 285 q 332 271 318 285 q 346 238 346 257 m 168 411 q 153 378 168 392 q 118 365 139 365 q 86 378 100 365 q 72 411 72 392 q 86 445 72 432 q 118 458 100 458 q 153 445 139 458 q 168 411 168 432 m 524 -117 q 510 -151 524 -137 q 475 -165 497 -165 q 440 -151 454 -165 q 426 -117 426 -137 q 440 -83 426 -97 q 475 -69 454 -69 q 510 -83 497 -69 q 524 -117 524 -97 m 347 60 q 333 26 347 40 q 297 11 318 11 q 263 26 276 11 q 249 60 249 40 q 263 95 249 81 q 297 110 276 110 q 333 95 318 110 q 347 60 347 81 m 168 238 q 153 203 168 218 q 118 189 139 189 q 86 203 100 189 q 72 238 72 218 q 86 270 72 257 q 118 283 100 283 q 168 238 168 283 m 347 -117 q 333 -151 347 -136 q 297 -165 318 -165 q 263 -151 276 -165 q 249 -117 249 -137 q 263 -83 249 -97 q 297 -69 276 -69 q 333 -83 318 -69 q 347 -117 347 -97 m 168 60 q 153 26 168 40 q 118 11 139 11 q 86 26 100 11 q 72 60 72 40 q 86 93 72 79 q 118 107 100 107 q 153 93 139 107 q 168 60 168 79 m 168 -117 q 153 -151 168 -137 q 118 -165 139 -165 q 86 -151 100 -165 q 72 -117 72 -137 q 86 -83 72 -97 q 118 -69 100 -69 q 153 -83 139 -69 q 168 -117 168 -97 z "},"▤":{"ha":1306,"x_min":72,"x_max":1232,"o":"m 72 -164 l 72 988 l 1232 988 l 1232 -164 l 72 -164 m 1182 939 l 121 939 l 121 831 l 1182 831 l 1182 939 m 1182 781 l 121 781 l 121 665 l 1182 665 l 1182 781 m 1182 618 l 121 618 l 121 515 l 1182 515 l 1182 618 m 1182 464 l 121 464 l 121 354 l 1182 354 l 1182 464 m 1182 304 l 121 304 l 121 192 l 1182 192 l 1182 304 m 1182 143 l 121 143 l 121 39 l 1182 39 l 1182 143 m 1182 -11 l 121 -11 l 121 -114 l 1182 -114 l 1182 -11 z "},"▥":{"ha":1306,"x_min":72,"x_max":1232,"o":"m 72 -164 l 72 986 l 1232 986 l 1232 -164 l 72 -164 m 1183 936 l 1076 936 l 1076 -114 l 1183 -114 l 1183 936 m 1028 936 l 925 936 l 925 -114 l 1028 -114 l 1028 936 m 874 936 l 763 936 l 763 -114 l 874 -114 l 874 936 m 713 936 l 601 936 l 601 -114 l 713 -114 l 713 936 m 550 936 l 444 936 l 444 -114 l 550 -114 l 550 936 m 396 936 l 281 936 l 281 -114 l 396 -114 l 396 936 m 231 936 l 121 936 l 121 -114 l 231 -114 l 231 936 z "},"▨":{"ha":1306,"x_min":72,"x_max":1232,"o":"m 72 986 l 1232 986 l 1232 -164 l 72 -164 l 72 986 m 664 -114 l 861 -114 l 1178 201 l 1178 397 l 664 -114 m 401 -114 l 594 -114 l 1178 463 l 1178 660 l 401 -114 m 922 -114 l 1178 -114 l 1178 138 l 922 -114 m 156 -114 l 331 -114 l 1178 725 l 1178 901 l 156 -114 m 119 89 l 119 -82 l 1142 936 l 969 936 l 119 89 m 119 353 l 119 153 l 903 936 l 704 936 l 119 353 m 119 622 l 119 419 l 633 936 l 438 936 l 119 622 m 119 682 l 367 936 l 119 936 l 119 682 z "},"▧":{"ha":1306,"x_min":72,"x_max":1232,"o":"m 72 -165 l 72 988 l 1232 988 l 1232 -165 l 72 -165 m 922 938 q 1051 810 989 871 q 1178 683 1113 749 l 1178 938 l 922 938 m 664 938 q 921 680 794 807 q 1178 422 1047 553 l 1178 619 q 1019 778 1099 699 q 861 938 940 858 l 664 938 m 401 938 q 789 551 597 743 q 1178 163 981 358 l 1178 360 q 887 648 1031 504 q 594 938 743 792 l 401 938 m 156 938 q 667 428 414 679 q 1178 -79 919 178 l 1178 94 q 755 516 964 307 q 331 938 546 725 l 156 938 m 1142 -114 q 631 395 883 143 q 119 906 378 647 l 119 732 q 544 308 335 518 q 969 -114 754 99 l 1142 -114 m 903 -114 q 512 278 707 83 q 119 668 317 472 l 119 469 q 413 177 268 321 q 704 -114 557 33 l 903 -114 m 633 -114 q 376 144 503 17 q 119 401 250 271 l 119 199 q 280 42 201 119 q 438 -114 358 -36 l 633 -114 m 367 -114 q 243 12 304 -50 q 119 139 182 74 l 119 -114 l 367 -114 z "},"▦":{"ha":1306,"x_min":72,"x_max":1232,"o":"m 72 -164 l 72 988 l 1232 988 l 1232 -164 l 72 -164 m 1182 939 l 1069 939 l 1069 829 l 1182 829 l 1182 939 m 1024 939 l 915 939 l 915 829 l 1024 829 l 1024 939 m 1182 783 l 1069 783 l 1069 664 l 1182 664 l 1182 783 m 869 939 l 754 939 l 754 829 l 869 829 l 869 939 m 1024 783 l 915 783 l 915 664 l 1024 664 l 1024 783 m 1182 619 l 1069 619 l 1069 511 l 1182 511 l 1182 619 m 869 783 l 754 783 l 754 664 l 869 664 l 869 783 m 710 939 l 590 939 l 590 829 l 710 829 l 710 939 m 1024 619 l 915 619 l 915 511 l 1024 511 l 1024 619 m 1182 465 l 1069 465 l 1069 353 l 1182 353 l 1182 465 m 1024 465 l 915 465 l 915 353 l 1024 353 l 1024 465 m 546 939 l 440 939 l 440 829 l 546 829 l 546 939 m 869 619 l 754 619 l 754 511 l 869 511 l 869 619 m 710 783 l 590 783 l 590 664 l 710 664 l 710 783 m 1182 307 l 1069 307 l 1069 190 l 1182 190 l 1182 307 m 396 939 l 278 939 l 278 829 l 396 829 l 396 939 m 869 465 l 754 465 l 754 353 l 869 353 l 869 465 m 1024 307 l 915 307 l 915 190 l 1024 190 l 1024 307 m 1182 146 l 1069 146 l 1069 38 l 1182 38 l 1182 146 m 546 783 l 440 783 l 440 664 l 546 664 l 546 783 m 710 619 l 590 619 l 590 511 l 710 511 l 710 619 m 1182 -7 l 1069 -7 l 1069 -114 l 1182 -114 l 1182 -7 m 1024 146 l 915 146 l 915 38 l 1024 38 l 1024 146 m 232 939 l 121 939 l 121 829 l 232 829 l 232 939 m 869 307 l 754 307 l 754 190 l 869 190 l 869 307 m 396 783 l 278 783 l 278 664 l 396 664 l 396 783 m 710 465 l 590 465 l 590 353 l 710 353 l 710 465 m 546 619 l 440 619 l 440 511 l 546 511 l 546 619 m 1024 -7 l 915 -7 l 915 -114 l 1024 -114 l 1024 -7 m 869 146 l 754 146 l 754 38 l 869 38 l 869 146 m 546 465 l 440 465 l 440 353 l 546 353 l 546 465 m 396 619 l 278 619 l 278 511 l 396 511 l 396 619 m 232 783 l 121 783 l 121 664 l 232 664 l 232 783 m 710 307 l 590 307 l 590 190 l 710 190 l 710 307 m 869 -7 l 754 -7 l 754 -114 l 869 -114 l 869 -7 m 396 465 l 278 465 l 278 353 l 396 353 l 396 465 m 710 146 l 590 146 l 590 38 l 710 38 l 710 146 m 546 307 l 440 307 l 440 190 l 546 190 l 546 307 m 232 619 l 121 619 l 121 511 l 232 511 l 232 619 m 710 -7 l 590 -7 l 590 -114 l 710 -114 l 710 -7 m 232 465 l 121 465 l 121 353 l 232 353 l 232 465 m 396 307 l 278 307 l 278 190 l 396 190 l 396 307 m 546 146 l 440 146 l 440 38 l 546 38 l 546 146 m 546 -7 l 440 -7 l 440 -114 l 546 -114 l 546 -7 m 396 146 l 278 146 l 278 38 l 396 38 l 396 146 m 232 307 l 121 307 l 121 190 l 232 190 l 232 307 m 396 -7 l 278 -7 l 278 -114 l 396 -114 l 396 -7 m 232 146 l 121 146 l 121 38 l 232 38 l 232 146 m 232 -7 l 121 -7 l 121 -114 l 232 -114 l 232 -7 z "},"▩":{"ha":1306,"x_min":74,"x_max":1232,"o":"m 74 -165 l 74 986 l 1232 986 l 1232 -165 l 74 -165 m 500 289 q 449 341 475 315 q 399 392 424 367 q 349 341 374 367 q 297 290 324 315 q 349 240 324 265 q 400 189 375 214 l 500 289 m 769 567 q 819 615 794 592 q 869 664 844 639 l 769 764 l 669 664 q 719 615 694 639 q 769 567 744 592 m 903 699 q 951 749 928 724 q 1000 799 975 774 l 903 897 q 853 848 878 872 q 803 799 828 824 l 903 699 m 263 58 q 312 108 288 83 q 361 160 336 133 l 265 256 l 167 156 l 263 58 m 531 58 q 580 108 556 83 q 631 157 604 132 l 533 254 l 435 156 q 483 107 460 131 q 531 58 506 83 m 1133 664 l 1038 761 q 988 712 1013 736 q 938 663 963 688 l 1036 567 l 1133 664 m 397 -72 q 447 -24 422 -47 q 497 24 472 0 l 400 121 l 300 21 q 349 -26 325 -4 q 397 -72 372 -47 m 633 701 q 683 751 658 726 q 732 801 707 776 q 687 849 708 826 q 642 894 665 871 q 592 844 617 869 q 540 794 567 819 q 588 747 565 769 q 633 701 610 725 m 906 436 q 953 484 931 461 q 1000 531 975 507 q 953 579 975 556 q 906 628 931 603 q 858 580 881 603 q 811 533 836 557 l 906 436 m 657 -69 q 708 -20 683 -44 q 758 29 733 4 l 667 119 l 569 21 q 613 -24 590 -1 q 657 -69 635 -46 m 358 428 q 313 472 335 450 q 268 518 292 494 q 219 469 243 493 q 169 421 194 446 q 214 376 192 399 q 260 329 236 353 l 358 428 m 1033 304 q 1082 353 1057 329 q 1132 401 1107 376 q 1086 447 1108 425 q 1039 492 1064 469 l 943 396 q 989 350 967 372 q 1033 304 1011 328 m 374 897 q 328 853 350 875 q 285 810 307 832 q 335 760 310 785 q 385 711 360 736 l 471 799 l 374 897 m 263 590 q 307 634 285 613 q 351 678 329 656 q 301 726 326 701 q 250 775 275 750 l 164 689 l 263 590 m 783 311 q 869 397 825 356 q 821 447 844 422 q 772 497 797 472 q 729 452 751 474 q 685 407 707 431 l 783 311 m 650 447 q 692 491 672 469 q 735 535 713 513 l 639 631 q 595 588 617 608 q 553 544 574 567 l 650 447 m 528 325 q 570 368 549 347 q 613 411 592 389 q 564 460 588 436 q 515 510 540 485 l 432 422 q 480 374 457 399 q 528 325 503 350 m 746 276 q 699 325 722 301 q 653 374 676 349 q 608 331 629 351 q 565 288 586 310 q 613 240 589 263 q 663 192 638 217 l 746 276 m 1042 53 q 1086 97 1065 75 q 1129 142 1107 119 q 1084 188 1106 165 q 1038 233 1063 210 q 994 190 1015 211 q 950 146 972 169 q 996 100 974 122 q 1042 53 1018 78 m 601 668 q 556 714 578 692 q 510 758 533 736 q 422 671 464 714 q 467 627 444 649 q 514 582 489 606 l 601 668 m 390 458 q 433 503 413 482 q 476 547 454 525 q 432 593 454 571 q 388 638 410 615 q 344 594 365 617 q 300 550 322 572 q 345 504 324 526 q 390 458 367 482 m 913 183 q 956 228 935 207 q 999 271 976 249 l 908 363 q 865 318 886 340 q 822 274 843 296 l 913 183 m 1007 18 l 915 110 l 829 24 q 876 -22 854 0 q 921 -68 899 -43 l 1007 18 m 792 65 q 834 106 814 85 q 875 149 854 128 q 831 194 853 172 q 788 240 810 217 q 744 198 765 219 q 701 153 722 176 q 747 108 725 131 q 792 65 768 86 m 1179 899 q 1123 844 1149 871 q 1069 790 1097 818 l 1179 682 l 1179 899 m 121 -83 q 175 -29 149 -56 q 231 25 201 -3 q 175 81 201 53 q 121 136 149 108 l 121 -83 m 121 447 q 175 501 149 475 q 231 556 201 528 l 121 664 l 121 447 m 906 -114 q 851 -61 876 -87 q 796 -8 825 -35 q 742 -61 768 -35 q 688 -114 715 -87 l 906 -114 m 1179 374 q 1125 321 1151 347 q 1072 268 1099 294 l 1179 161 l 1179 374 m 121 189 q 174 243 147 217 q 228 297 200 269 q 174 349 200 324 q 121 400 147 374 l 121 189 m 1028 832 q 1082 885 1056 858 q 1135 936 1108 911 l 921 936 q 975 885 949 911 q 1028 832 1001 858 m 1075 528 q 1126 474 1100 500 q 1179 422 1153 449 l 1179 631 q 1126 579 1153 604 q 1075 528 1100 554 m 506 833 q 558 885 532 860 q 610 936 583 911 l 401 936 l 506 833 m 267 -14 q 215 -64 240 -39 q 164 -114 190 -89 l 371 -114 l 267 -14 m 636 -114 q 584 -65 610 -89 q 533 -15 558 -40 l 433 -114 l 636 -114 m 765 836 q 815 886 790 861 q 864 936 839 911 l 665 936 l 765 836 m 1179 111 l 1082 15 l 1179 -81 l 1179 111 m 1046 -21 q 998 -67 1021 -46 q 950 -114 975 -89 l 1139 -114 l 1046 -21 m 213 813 l 121 904 l 121 721 l 213 813 m 244 846 q 291 891 269 869 q 336 936 313 913 l 154 936 l 244 846 z "},"♨":{"ha":1306,"x_min":94,"x_max":1211,"o":"m 924 344 q 874 186 924 282 q 829 93 846 132 q 810 31 813 54 l 792 31 q 781 107 781 75 q 785 163 781 131 q 799 233 789 194 q 813 308 808 276 q 818 361 818 339 q 788 513 818 421 q 757 660 757 604 q 803 786 757 690 q 841 874 826 839 q 860 925 856 908 l 875 925 q 885 860 885 906 q 882 818 885 843 q 874 760 879 793 q 865 703 868 728 q 863 660 863 678 q 893 500 863 593 q 924 344 924 407 m 747 361 q 694 188 747 290 q 640 80 660 121 q 614 19 619 39 l 593 19 q 588 49 590 33 q 586 85 586 65 q 613 217 586 138 q 639 351 639 297 q 606 508 639 406 q 572 663 572 610 q 618 828 572 729 q 672 989 668 929 l 690 989 q 715 885 715 936 q 694 775 715 847 q 674 669 674 704 q 710 518 674 629 q 747 361 747 415 m 551 344 q 501 188 551 283 q 457 95 474 135 q 438 32 440 56 l 421 32 q 408 110 408 58 q 426 235 408 164 q 440 306 436 274 q 444 363 444 338 q 415 514 444 415 q 388 663 388 622 q 432 788 388 692 q 470 871 456 836 q 488 926 485 906 l 503 926 q 511 861 511 899 q 508 817 511 843 q 500 757 506 792 q 492 697 494 722 q 489 654 489 672 q 519 497 489 590 q 551 344 551 386 m 1211 125 q 1183 24 1211 67 q 1107 -51 1154 -19 q 1000 -103 1060 -83 q 876 -136 940 -124 q 751 -153 813 -149 q 639 -158 689 -158 q 535 -153 593 -158 q 417 -137 478 -149 q 299 -106 357 -125 q 195 -56 240 -86 q 122 14 150 -26 q 94 108 94 54 q 125 195 94 156 q 200 265 156 235 q 297 316 244 296 q 393 344 349 336 l 399 326 q 337 299 372 318 q 269 253 301 279 q 214 199 236 228 q 192 142 192 169 q 216 77 192 104 q 278 31 240 50 q 366 1 317 13 q 465 -15 415 -10 q 560 -23 514 -21 q 639 -25 606 -25 q 723 -23 674 -25 q 826 -15 772 -21 q 932 3 879 -8 q 1027 35 985 15 q 1096 85 1069 56 q 1122 156 1122 114 q 1082 237 1122 194 q 954 315 1042 279 l 964 332 q 1043 306 1000 325 q 1124 260 1086 288 q 1186 199 1161 233 q 1211 125 1211 164 z "},"☏":{"ha":1306,"x_min":25,"x_max":1281,"o":"m 1222 536 q 1170 669 1222 613 q 1006 763 1118 725 q 654 814 857 814 q 296 761 457 814 q 131 667 183 724 q 79 532 79 610 q 90 491 79 501 q 119 481 100 481 q 166 486 140 481 q 231 504 192 492 q 296 531 276 519 q 315 560 315 543 q 303 594 315 567 q 290 644 290 624 q 303 681 290 663 q 336 713 317 699 q 417 740 376 740 q 445 720 433 740 q 457 668 457 700 q 440 524 457 589 q 382 408 422 458 q 315 333 350 368 q 249 258 281 297 q 230 225 238 244 q 215 181 222 206 q 207 140 211 161 q 199 100 203 119 q 182 61 196 88 q 172 25 172 43 q 179 6 172 10 q 201 3 186 3 l 1053 3 q 1103 10 1089 3 q 1118 40 1118 18 q 1107 82 1118 60 q 1094 110 1099 100 q 1088 124 1089 121 q 1080 172 1085 143 q 1061 239 1075 201 q 1027 299 1050 269 q 974 360 1004 328 q 888 469 907 432 q 849 656 849 542 q 860 711 849 690 q 892 732 872 732 q 931 728 911 732 q 971 715 951 724 q 1009 688 994 704 q 1024 654 1024 671 q 1010 604 1024 632 q 996 561 996 576 q 1014 534 996 546 q 1075 510 1032 522 q 1137 494 1111 499 q 1182 490 1163 490 q 1213 500 1204 490 q 1222 536 1222 510 m 815 611 q 722 554 815 554 l 569 554 q 489 608 489 554 l 489 729 q 577 719 536 722 q 654 715 618 715 q 728 718 689 715 q 815 726 768 721 l 815 611 m 879 282 q 861 192 879 233 q 812 119 843 150 q 739 72 781 89 q 649 56 697 56 q 558 73 600 56 q 485 120 517 90 q 436 192 454 150 q 418 282 418 233 q 435 373 418 331 q 484 446 453 415 q 558 494 515 476 q 649 511 600 511 q 740 494 699 511 q 813 446 782 476 q 862 373 844 415 q 879 282 879 331 m 769 686 q 719 678 746 681 q 653 676 693 676 q 588 679 615 676 q 533 689 561 682 l 533 625 q 544 602 533 610 q 581 594 554 594 l 721 594 q 769 626 769 594 l 769 686 m 828 283 q 815 354 828 321 q 778 413 801 388 q 722 453 756 439 q 650 468 689 468 q 576 454 610 468 q 518 415 542 440 q 481 356 494 390 q 468 283 468 322 q 515 152 468 204 q 646 100 563 100 q 719 114 685 100 q 776 153 753 128 q 814 211 800 178 q 828 283 828 244 m 1281 542 q 1258 467 1281 493 q 1196 440 1236 440 q 1128 449 1168 440 q 1050 468 1089 457 q 968 506 997 483 q 939 556 939 529 q 954 611 939 575 q 963 630 960 622 q 965 644 965 638 q 951 662 965 656 q 921 672 938 668 q 911 672 915 674 q 907 663 907 671 l 907 632 q 947 472 907 540 q 979 428 957 456 q 1033 365 1001 401 q 1085 301 1064 333 q 1117 240 1106 269 q 1128 210 1124 226 q 1135 176 1132 193 q 1143 132 1140 150 q 1149 108 1146 114 q 1164 81 1149 107 q 1176 42 1176 60 q 1147 -19 1176 7 q 1058 -46 1117 -46 l 189 -46 q 133 -25 149 -46 q 118 31 118 -4 q 131 79 118 56 q 142 99 138 90 q 147 114 146 107 q 154 151 150 133 q 163 188 158 169 q 196 274 178 240 q 279 371 213 300 q 329 426 308 400 q 361 475 350 453 q 391 546 381 507 q 401 629 401 585 l 401 672 q 397 684 401 681 q 386 685 392 688 q 360 672 372 681 q 347 640 347 663 q 350 628 347 633 q 356 614 353 624 q 364 587 360 601 q 368 558 368 572 q 338 508 368 535 q 257 464 308 481 q 180 442 221 453 q 108 432 139 432 q 48 457 71 432 q 25 528 25 482 q 90 693 25 621 q 269 806 156 765 q 443 847 346 833 q 653 860 540 860 q 1029 807 864 860 q 1216 699 1151 767 q 1281 542 1281 631 z "},"☎":{"ha":1306,"x_min":38,"x_max":1268,"o":"m 1268 543 q 1199 454 1268 454 q 1056 481 1136 454 q 953 557 953 513 q 965 607 953 575 q 979 653 979 636 q 956 681 979 668 q 910 693 933 693 q 892 674 892 693 l 892 633 q 933 468 892 539 q 965 424 943 451 q 1022 360 988 397 q 1073 297 1053 328 q 1104 236 1093 265 q 1121 172 1115 213 q 1128 132 1125 149 q 1135 108 1132 115 q 1151 74 1136 99 q 1163 39 1163 54 q 1134 -14 1163 7 q 1063 -35 1106 -35 l 185 -35 q 131 28 131 -35 q 143 72 131 51 q 155 93 150 83 q 161 110 160 103 q 168 147 164 129 q 176 185 172 165 q 191 232 183 211 q 208 268 199 253 q 292 365 225 294 q 343 422 322 396 q 375 471 364 449 q 414 631 414 539 l 414 689 q 403 701 414 701 q 357 683 381 701 q 333 643 333 665 q 344 606 333 632 q 354 560 354 581 q 250 474 354 508 q 103 444 167 444 q 38 529 38 444 q 269 794 38 715 q 653 849 425 849 q 1029 796 864 849 q 1268 543 1268 717 m 815 726 q 728 718 768 721 q 654 715 689 715 q 577 719 618 715 q 489 729 536 722 l 489 608 q 569 554 489 554 l 722 554 q 815 611 815 554 l 815 726 m 879 282 q 862 373 879 331 q 813 446 844 415 q 740 494 782 476 q 649 511 699 511 q 558 494 600 511 q 484 446 515 476 q 435 373 453 415 q 418 282 418 331 q 436 192 418 233 q 485 120 454 150 q 558 73 517 90 q 649 56 600 56 q 739 72 697 56 q 812 119 781 89 q 861 192 843 150 q 879 282 879 233 z "},"☜":{"ha":1306,"x_min":115,"x_max":1188,"o":"m 1083 260 l 1083 289 l 1047 289 q 1012 272 1029 281 q 976 257 994 264 q 901 231 940 242 q 817 213 861 219 q 661 208 774 207 q 554 213 558 211 q 504 225 526 213 q 478 265 478 239 q 500 301 478 293 q 456 324 469 301 q 447 349 447 336 q 463 388 447 368 q 430 401 446 388 q 413 432 414 415 q 525 486 413 482 l 521 497 q 431 501 489 499 q 288 508 372 504 q 183 514 185 513 q 119 569 115 524 q 189 614 122 607 q 235 617 213 617 q 279 618 257 617 q 440 623 343 621 q 671 625 536 625 q 832 621 794 625 q 1004 544 936 606 q 1086 538 1007 540 l 1086 581 l 1188 581 l 1188 260 l 1083 260 m 1086 514 q 1077 515 1085 514 q 1054 517 1069 515 q 1039 518 1046 518 q 1025 518 1032 518 q 1031 496 1031 506 q 1028 492 1031 492 q 1000 518 1025 492 q 939 567 969 547 q 718 606 879 606 q 689 604 693 606 q 599 571 631 592 q 569 536 583 563 q 542 500 554 508 q 545 494 540 499 q 560 490 550 490 q 585 494 569 490 q 619 519 597 500 q 646 540 642 540 q 650 539 649 540 q 644 518 654 531 q 668 513 644 515 q 701 513 690 510 q 717 518 708 515 q 736 526 726 521 q 756 536 754 536 q 758 535 758 536 q 739 503 761 521 q 753 489 746 496 q 769 475 761 482 q 846 432 803 446 q 936 415 881 422 q 972 403 972 408 q 929 396 972 394 q 853 408 888 399 q 753 463 796 425 l 717 499 q 686 494 693 494 q 628 504 653 494 l 608 486 q 630 481 619 483 q 650 476 640 479 q 696 453 693 464 q 700 435 700 442 q 681 396 700 415 q 709 380 693 396 q 725 351 725 364 q 703 315 725 332 q 725 306 718 311 q 747 275 746 293 q 729 231 749 250 q 735 231 731 231 q 746 229 739 231 q 763 229 756 229 q 776 231 769 229 q 876 247 826 233 q 978 282 926 260 q 1058 319 1054 313 l 1058 304 q 1086 304 1060 303 l 1086 514 m 618 604 q 449 603 533 604 q 281 599 365 601 q 216 596 242 597 q 179 592 190 594 q 142 565 143 585 q 174 536 142 544 q 281 528 197 532 q 398 523 335 525 q 536 518 461 521 q 547 534 540 524 q 564 560 554 544 q 618 604 578 585 m 1165 557 l 1106 557 l 1106 282 l 1165 282 l 1165 557 m 667 407 q 679 431 679 417 q 640 463 679 457 q 519 467 590 472 q 446 450 472 468 q 438 433 438 443 q 469 406 438 406 q 547 403 472 403 q 667 407 656 403 m 703 351 q 642 383 703 383 l 508 383 q 483 373 494 383 q 471 351 471 363 q 490 324 471 335 q 512 321 493 322 q 563 318 531 319 q 629 318 622 315 q 671 324 653 318 q 703 346 701 332 l 703 351 m 725 274 q 682 297 721 297 l 615 297 q 578 297 600 297 q 529 296 557 297 q 503 268 503 294 q 521 240 503 246 q 608 232 543 233 q 674 235 671 232 q 706 243 689 235 q 725 274 729 256 z "},"☞":{"ha":1306,"x_min":118,"x_max":1190,"o":"m 219 581 l 219 538 q 301 544 296 539 q 474 621 369 606 q 635 625 511 625 q 866 623 769 625 q 1026 618 963 621 q 1071 617 1049 617 q 1117 614 1093 617 q 1186 569 1183 607 q 1122 514 1190 524 q 1018 508 1121 513 q 875 501 933 504 q 785 497 817 499 l 781 486 q 893 432 893 482 q 876 401 892 415 q 843 388 860 388 q 858 349 858 368 q 850 324 858 336 q 806 301 836 301 q 828 265 828 293 q 801 225 828 239 q 751 213 778 213 q 644 208 747 211 q 489 213 532 207 q 329 257 407 225 q 294 272 311 264 q 258 289 276 281 l 222 289 l 222 260 l 118 260 l 118 581 l 219 581 m 219 304 q 247 304 246 303 l 247 319 q 328 282 250 313 q 429 247 379 260 q 529 231 479 233 q 543 229 536 229 q 560 229 550 229 q 571 231 567 231 q 576 231 575 231 q 558 275 557 250 q 581 306 560 293 q 603 315 588 311 q 581 351 581 332 q 597 380 581 364 q 625 396 613 396 q 606 435 606 415 q 610 453 606 442 q 656 476 613 464 q 676 481 665 479 q 697 486 686 483 l 678 504 q 619 494 653 494 q 589 499 611 494 l 553 463 q 453 408 508 425 q 376 396 418 399 q 333 403 333 394 q 369 415 333 408 q 460 432 425 422 q 536 475 503 446 q 552 489 544 482 q 567 503 560 496 q 547 535 544 521 q 550 536 547 536 q 569 526 551 536 q 588 518 579 521 q 604 513 597 515 q 638 513 614 510 q 661 518 661 515 q 656 539 651 531 q 660 540 657 540 q 686 519 663 540 q 721 494 708 500 q 746 490 735 490 q 760 494 756 490 q 764 500 765 499 q 736 536 751 508 q 707 571 722 563 q 617 604 675 592 q 588 606 613 606 q 367 567 426 606 q 306 518 335 547 q 278 492 281 492 q 275 496 275 492 q 281 518 275 506 q 267 518 274 518 q 251 517 260 518 q 228 515 236 515 q 219 514 221 514 l 219 304 m 688 604 q 742 560 728 585 q 758 534 751 544 q 769 518 765 524 q 908 523 844 521 q 1025 528 971 525 q 1132 536 1108 532 q 1164 565 1164 544 q 1126 592 1163 585 q 1090 596 1115 594 q 1025 599 1064 597 q 856 603 940 601 q 688 604 772 604 m 200 557 l 140 557 l 140 282 l 200 282 l 200 557 m 639 407 q 758 403 649 403 q 836 406 833 403 q 868 433 868 406 q 860 450 868 443 q 786 467 833 468 q 665 463 715 472 q 626 431 626 457 q 639 407 626 417 m 603 346 q 635 324 604 332 q 676 318 653 318 q 743 318 682 315 q 794 321 775 319 q 815 324 813 322 q 835 351 835 335 q 823 373 835 363 q 797 383 811 383 l 664 383 q 603 351 603 383 l 603 346 m 581 274 q 600 243 576 256 q 632 235 617 235 q 697 232 635 232 q 785 240 761 233 q 803 268 803 246 q 776 296 803 294 q 727 297 749 297 q 690 297 706 297 l 624 297 q 581 274 585 297 z "},"¶":{"ha":778,"x_min":72,"x_max":661,"o":"m 342 336 q 250 361 297 342 q 163 418 203 381 q 98 510 124 456 q 72 642 72 565 q 88 764 72 703 q 149 874 104 825 q 272 953 193 922 q 476 983 350 983 q 581 979 540 983 q 661 964 621 975 l 661 -111 l 525 -111 l 525 835 l 485 835 l 485 -111 l 342 -111 l 342 336 z "},"†":{"ha":889,"x_min":99,"x_max":789,"o":"m 539 467 l 539 -114 l 349 -114 l 349 467 l 99 467 l 99 629 l 349 629 l 349 938 l 539 938 l 539 629 l 789 629 l 789 467 l 539 467 z "},"‡":{"ha":889,"x_min":100,"x_max":789,"o":"m 349 488 l 349 597 l 100 597 l 100 760 l 349 760 l 349 939 l 539 939 l 539 760 l 789 760 l 789 597 l 539 597 l 539 488 l 789 488 l 789 325 l 539 325 l 539 -117 l 349 -117 l 349 325 l 100 325 l 100 488 l 349 488 z "},"↕":{"ha":972,"x_min":224,"x_max":747,"o":"m 747 97 l 485 -258 l 224 97 l 392 97 l 392 738 l 224 738 l 485 1093 l 747 738 l 576 738 l 576 97 l 747 97 z "},"↗":{"ha":1306,"x_min":17,"x_max":1263,"o":"m 1103 792 l 139 -274 l 17 -169 l 992 903 l 847 1050 l 1263 1069 l 1238 657 l 1103 792 z "},"↙":{"ha":1306,"x_min":40,"x_max":1286,"o":"m 200 28 l 1164 1094 l 1286 990 l 310 -82 l 456 -229 l 40 -249 l 65 164 l 200 28 z "},"↖":{"ha":1306,"x_min":39,"x_max":1285,"o":"m 64 658 l 39 1071 l 454 1051 l 308 904 l 1285 -168 l 1163 -272 l 199 794 l 64 658 z "},"↘":{"ha":1306,"x_min":18,"x_max":1264,"o":"m 1239 164 l 1264 -249 l 849 -229 l 993 -82 l 18 990 l 140 1094 l 1104 28 l 1239 164 z "},"♭":{"ha":806,"x_min":125,"x_max":679,"o":"m 679 419 q 636 222 679 310 q 518 73 593 135 q 342 -23 443 11 q 125 -60 240 -57 l 125 967 l 317 967 l 317 557 q 392 610 350 590 q 474 631 435 631 q 626 575 574 631 q 679 419 679 519 m 478 376 q 469 436 478 415 q 433 457 460 457 q 397 446 414 457 q 364 417 379 435 q 337 376 349 399 q 317 333 325 354 l 317 138 q 437 231 396 169 q 478 376 478 292 z "},"♩":{"ha":556,"x_min":81,"x_max":419,"o":"m 419 97 q 401 14 419 56 q 352 -60 383 -28 q 281 -113 321 -93 q 194 -133 240 -133 q 110 -111 139 -133 q 81 -33 81 -89 q 96 26 81 -3 q 138 76 111 54 q 199 110 164 97 q 275 124 235 124 l 283 124 q 296 139 296 124 l 296 1003 l 419 1003 l 419 97 z "},"♪":{"ha":833,"x_min":65,"x_max":768,"o":"m 594 521 q 503 594 553 561 q 404 668 453 628 l 404 97 q 386 14 404 56 q 337 -60 368 -28 q 265 -113 306 -93 q 179 -133 225 -133 q 94 -111 124 -133 q 65 -33 65 -89 q 81 26 65 -3 q 122 76 96 54 q 184 110 149 97 q 260 124 219 124 l 268 124 q 281 139 281 124 l 281 997 l 367 997 q 466 872 407 926 q 596 768 525 818 q 673 703 640 736 q 726 634 706 671 q 758 555 747 597 q 768 460 768 513 q 708 267 768 351 q 549 108 649 182 l 504 158 q 572 239 546 201 q 612 310 597 276 q 631 372 626 343 q 636 426 636 401 q 594 521 636 479 z "},"♬":{"ha":1167,"x_min":74,"x_max":1033,"o":"m 1033 250 q 1015 167 1033 208 q 966 92 997 125 q 894 40 935 60 q 808 19 854 19 q 724 42 753 19 q 694 119 694 64 q 710 178 694 150 q 751 228 725 207 q 813 263 778 250 q 889 276 849 276 l 897 276 q 910 292 910 276 l 910 585 l 413 479 l 413 97 q 394 14 413 56 q 345 -60 376 -28 q 274 -113 314 -93 q 188 -133 233 -133 q 103 -111 132 -133 q 74 -33 74 -89 q 89 26 74 -3 q 131 76 104 54 q 192 110 157 97 q 268 124 228 124 l 276 124 q 289 139 289 124 l 289 881 l 1033 1038 l 1033 250 m 915 826 l 417 715 l 417 671 l 915 782 l 915 826 z "},"㉿":{"ha":1306,"x_min":69,"x_max":1236,"o":"m 1090 617 q 1019 738 1064 685 q 915 829 974 792 q 790 888 857 867 q 650 910 722 908 q 481 882 563 911 q 335 799 400 853 q 229 667 271 744 q 179 493 188 589 l 339 493 l 339 396 l 69 396 l 69 424 q 115 660 69 553 q 240 845 161 768 q 425 965 319 922 q 650 1007 531 1007 q 828 978 742 1007 q 987 899 914 950 q 1115 776 1060 849 q 1200 617 1171 704 l 1090 617 m 794 125 l 567 388 l 561 381 l 561 125 l 447 125 l 447 749 l 561 749 l 561 514 l 760 743 l 903 743 l 644 454 l 946 125 l 794 125 m 1236 424 q 1190 197 1236 303 q 1063 11 1143 90 q 877 -114 983 -68 q 650 -160 771 -160 q 458 -126 551 -160 q 287 -31 364 -92 q 156 113 210 29 q 82 294 101 196 l 189 296 q 253 152 208 218 q 358 38 297 86 q 494 -37 419 -10 q 650 -64 569 -64 q 831 -28 744 -64 q 985 69 918 7 q 1094 216 1053 132 q 1138 396 1135 300 l 869 396 l 869 493 l 1232 493 q 1236 424 1236 457 z "},"㈜":{"ha":1306,"x_min":22,"x_max":1283,"o":"m 326 860 l 978 860 l 978 701 l 774 701 q 878 613 808 649 q 1036 557 947 576 l 974 406 q 790 473 874 425 q 651 599 706 521 q 517 475 596 521 q 329 407 438 429 l 267 558 q 427 613 358 578 q 529 701 496 649 l 326 701 l 326 860 m 1072 1010 q 1234 730 1185 883 q 1283 417 1283 576 q 1272 256 1283 338 q 1235 95 1260 174 q 1170 -56 1210 17 q 1075 -189 1131 -129 l 910 -189 q 1005 -51 965 -125 q 1070 101 1044 24 q 1108 259 1096 179 q 1119 417 1119 339 q 1070 728 1119 572 q 908 1010 1021 883 l 1072 1010 m 397 1010 q 235 728 285 883 q 186 417 186 572 q 198 259 186 339 q 235 101 210 179 q 301 -51 261 24 q 396 -189 340 -125 l 231 -189 q 135 -56 175 -129 q 71 95 96 17 q 34 256 46 174 q 22 417 22 338 q 72 730 22 576 q 233 1010 121 883 l 397 1010 m 554 -50 l 554 221 l 235 221 l 235 379 l 1067 379 l 1067 221 l 746 221 l 746 -50 l 554 -50 z "},"№":{"ha":1306,"x_min":40,"x_max":1274,"o":"m 564 -74 l 372 -74 l 206 510 l 206 -74 l 40 -74 l 40 946 l 238 946 l 399 374 l 399 946 l 564 946 l 564 -74 m 847 -86 q 727 -54 775 -86 q 651 31 679 -22 q 610 153 622 85 q 599 293 599 221 q 610 438 599 368 q 650 563 622 508 q 726 649 678 617 q 847 681 774 681 q 968 649 921 681 q 1043 563 1015 617 q 1082 438 1071 508 q 1093 293 1093 368 q 1082 153 1093 221 q 1042 31 1071 85 q 967 -54 1014 -22 q 847 -86 919 -86 m 847 533 q 816 513 828 533 q 797 458 804 492 q 788 381 790 424 q 786 293 786 338 q 790 202 786 244 q 802 128 794 160 q 821 79 810 97 q 847 61 832 61 q 874 79 863 61 q 892 128 885 97 q 903 202 900 160 q 907 293 907 244 q 905 381 907 338 q 897 458 903 424 q 878 513 890 492 q 847 533 867 533 m 1274 -78 l 1089 -78 l 1089 107 l 1274 107 l 1274 -78 z "},"㏇":{"ha":1306,"x_min":44,"x_max":1274,"o":"m 44 431 q 65 647 44 551 q 128 810 86 743 q 236 914 171 878 q 390 950 301 950 q 449 946 422 950 q 499 931 475 942 q 547 903 524 921 q 597 860 571 886 l 515 700 q 449 761 474 742 q 389 781 424 781 q 313 747 342 781 q 269 662 285 714 q 249 548 254 610 q 244 431 244 486 q 249 316 244 376 q 269 203 254 256 q 313 117 285 151 q 389 83 342 83 q 422 86 407 83 q 451 98 436 89 q 485 124 467 107 q 526 169 503 142 l 615 25 q 511 -62 564 -37 q 390 -86 458 -86 q 236 -49 301 -86 q 128 55 171 -12 q 65 218 86 122 q 44 431 44 314 m 847 -86 q 727 -54 775 -86 q 651 31 679 -22 q 610 153 622 85 q 599 293 599 221 q 610 438 599 368 q 650 563 622 508 q 726 649 678 617 q 847 681 774 681 q 968 649 921 681 q 1043 563 1015 617 q 1082 438 1071 508 q 1093 293 1093 368 q 1082 153 1093 221 q 1042 31 1071 85 q 967 -54 1014 -22 q 847 -86 919 -86 m 847 533 q 816 513 828 533 q 797 458 804 492 q 788 381 790 424 q 786 293 786 338 q 790 202 786 244 q 802 128 794 160 q 821 79 810 97 q 847 61 832 61 q 874 79 863 61 q 892 128 885 97 q 903 202 900 160 q 907 293 907 244 q 905 381 907 338 q 897 458 903 424 q 878 513 890 492 q 847 533 867 533 m 1274 -78 l 1089 -78 l 1089 107 l 1274 107 l 1274 -78 z "},"™":{"ha":1111,"x_min":46,"x_max":1054,"o":"m 896 493 l 896 625 l 850 493 l 739 493 l 686 635 l 686 493 l 528 493 l 528 1011 l 669 1011 l 793 707 l 908 1011 l 1054 1011 l 1054 493 l 896 493 m 363 856 l 363 493 l 178 493 l 178 856 l 46 856 l 46 1011 l 497 1011 l 497 856 l 363 856 z "},"㏂":{"ha":1306,"x_min":44,"x_max":1250,"o":"m 958 444 q 956 506 958 492 q 947 521 954 521 q 932 508 938 521 q 919 475 926 494 l 919 -71 l 756 -71 l 756 436 q 753 503 756 485 q 744 521 751 521 q 729 505 735 521 q 717 461 724 489 l 717 -71 l 550 -71 l 550 664 l 704 664 l 704 632 q 735 667 715 656 q 775 679 756 679 q 826 658 804 679 q 863 607 849 636 q 913 662 883 644 q 974 679 943 679 q 1093 621 1061 679 q 1125 450 1125 563 l 1125 -71 l 958 -71 l 958 444 m 44 131 q 103 323 44 253 q 254 399 161 393 l 254 410 q 240 494 254 464 q 203 525 226 525 q 170 512 189 525 q 119 457 151 499 l 50 578 q 128 653 86 622 q 229 685 171 685 q 315 663 281 685 q 369 604 349 642 q 399 516 390 567 q 407 408 407 465 l 407 -71 l 265 -71 l 265 -39 q 230 -74 251 -62 q 189 -86 208 -86 q 123 -69 150 -86 q 78 -22 96 -51 q 53 48 61 8 q 44 131 44 88 m 533 -67 l 426 -67 l 426 96 l 533 96 l 533 -67 m 1250 -67 l 1143 -67 l 1143 96 l 1250 96 l 1250 -67 m 226 63 q 248 89 242 63 q 254 197 254 115 l 254 261 q 215 220 232 250 q 197 144 197 190 q 206 81 197 100 q 226 63 214 63 z "},"㏘":{"ha":1306,"x_min":43,"x_max":1250,"o":"m 958 444 q 956 506 958 492 q 947 521 954 521 q 932 508 938 521 q 919 475 926 494 l 919 -71 l 756 -71 l 756 436 q 753 503 756 485 q 744 521 751 521 q 729 505 735 521 q 717 461 724 489 l 717 -71 l 550 -71 l 550 664 l 704 664 l 704 632 q 735 667 715 656 q 775 679 756 679 q 826 658 804 679 q 863 607 849 636 q 913 662 883 644 q 974 679 943 679 q 1093 621 1061 679 q 1125 450 1125 563 l 1125 -71 l 958 -71 l 958 444 m 192 665 l 192 631 q 235 668 211 657 q 278 679 258 679 q 398 580 357 679 q 439 288 439 481 q 430 137 439 206 q 400 18 421 68 q 346 -60 379 -32 q 265 -87 313 -87 q 236 -82 251 -87 q 206 -62 221 -76 l 206 -314 l 43 -314 l 43 665 l 192 665 m 203 213 q 214 109 203 146 q 242 72 225 72 q 258 89 251 72 q 268 135 264 106 q 274 206 272 165 q 276 292 276 246 q 269 460 276 399 q 240 521 263 521 q 215 483 226 521 q 203 379 203 444 l 203 213 m 1250 -67 l 1143 -67 l 1143 96 l 1250 96 l 1250 -67 m 533 -67 l 432 -67 l 432 92 l 533 92 l 533 -67 z "},"℡":{"ha":1306,"x_min":-1,"x_max":1246,"o":"m -1 772 l -1 943 l 604 943 l 604 772 l 399 772 l 399 -71 l 194 -71 l 194 772 l -1 772 m 744 521 q 707 510 722 521 q 681 481 692 499 q 665 440 671 463 q 654 396 658 418 l 818 396 q 810 439 815 417 q 797 479 806 461 q 776 509 789 497 q 744 521 763 521 m 1000 11 q 884 -62 940 -37 q 760 -86 828 -86 q 642 -62 696 -86 q 550 11 589 -37 q 490 132 511 60 q 468 299 468 204 q 485 452 468 382 q 537 573 503 522 q 623 652 571 624 q 744 681 675 681 q 890 639 836 681 q 972 533 944 597 q 1006 390 1000 468 q 1008 238 1013 311 l 650 238 q 665 160 654 192 q 690 110 675 129 q 726 84 706 92 q 767 76 746 76 q 803 78 785 76 q 842 88 821 81 q 890 108 864 94 q 949 147 915 122 l 1000 11 m 1246 985 l 1246 -69 l 1043 -69 l 1043 985 l 1246 985 z "},"！":{"ha":1250,"x_min":515,"x_max":733,"o":"m 515 139 l 515 996 l 733 996 l 733 139 l 515 139 m 515 -182 l 515 22 l 733 22 l 733 -182 l 515 -182 z "},"＂":{"ha":1250,"x_min":371,"x_max":878,"o":"m 371 506 l 371 965 l 589 965 l 589 506 l 371 506 m 660 575 l 660 1035 l 878 1035 l 878 575 l 660 575 z "},"＃":{"ha":1250,"x_min":93,"x_max":1156,"o":"m 149 697 l 399 697 l 454 940 l 631 940 l 575 697 l 815 697 l 871 940 l 1047 940 l 992 697 l 1156 697 l 1156 528 l 953 528 l 893 267 l 1100 267 l 1100 97 l 854 97 l 797 -153 l 622 -153 l 679 97 l 438 97 l 381 -153 l 204 -153 l 261 97 l 93 97 l 93 267 l 300 267 l 360 528 l 149 528 l 149 697 m 476 267 l 717 267 l 776 528 l 536 528 l 476 267 z "},"＄":{"ha":1250,"x_min":210,"x_max":1040,"o":"m 725 1010 l 725 919 q 865 874 797 906 q 1006 794 933 843 l 926 660 q 830 716 882 692 q 725 756 778 740 l 725 472 q 863 419 804 446 q 962 358 922 392 q 1021 280 1001 324 q 1040 178 1040 236 q 955 -22 1040 50 q 725 -108 869 -93 l 725 -208 l 544 -208 l 544 -107 q 366 -57 447 -94 q 210 33 285 -19 l 296 174 q 409 104 344 136 q 544 56 474 72 l 544 354 q 408 408 467 381 q 310 469 349 436 q 251 545 271 503 q 232 644 232 588 q 258 766 232 715 q 326 850 283 817 q 425 901 368 883 q 544 925 482 919 l 544 1010 l 725 1010 m 842 169 q 817 240 842 213 q 725 294 792 268 l 725 46 q 813 86 785 57 q 842 169 842 115 m 431 649 q 455 581 431 607 q 544 531 479 556 l 544 768 q 431 649 431 749 z "},"％":{"ha":1250,"x_min":44,"x_max":1204,"o":"m 96 -153 l 926 940 l 1146 940 l 315 -153 l 96 -153 m 44 722 q 67 826 44 781 q 126 903 89 871 q 212 951 164 935 q 313 968 260 968 q 414 951 365 968 q 499 903 463 935 q 558 826 536 872 q 579 722 579 781 q 558 620 579 665 q 499 543 536 575 q 414 494 463 511 q 313 478 365 478 q 212 494 260 478 q 126 542 164 511 q 67 619 89 574 q 44 722 44 665 m 669 65 q 692 169 669 124 q 751 246 714 214 q 837 294 789 278 q 938 311 885 311 q 1039 294 990 311 q 1124 247 1088 278 q 1183 169 1161 215 q 1204 65 1204 124 q 1183 -37 1204 8 q 1124 -114 1161 -82 q 1039 -162 1088 -146 q 938 -179 990 -179 q 837 -162 885 -179 q 751 -115 789 -146 q 692 -37 714 -83 q 669 65 669 8 m 313 626 q 383 655 357 626 q 408 722 408 683 q 383 792 408 765 q 313 818 357 818 q 240 790 265 818 q 215 722 215 761 q 240 655 215 683 q 313 626 265 626 m 938 -31 q 1008 -2 982 -31 q 1033 65 1033 26 q 1008 135 1033 108 q 938 161 982 161 q 865 133 890 161 q 840 65 840 104 q 865 -2 840 26 q 938 -31 890 -31 z "},"＆":{"ha":1250,"x_min":106,"x_max":1144,"o":"m 897 701 q 883 605 897 647 q 839 525 869 563 q 758 453 808 488 q 635 382 707 419 l 836 169 q 878 272 863 218 q 901 383 894 325 l 1094 383 q 1046 199 1078 288 q 963 38 1014 111 l 1144 -154 l 900 -154 l 836 -87 q 692 -156 772 -132 q 507 -181 611 -181 q 337 -158 411 -181 q 211 -96 263 -136 q 133 -1 160 -56 q 106 119 106 54 q 117 208 106 167 q 157 288 129 250 q 233 360 185 325 q 351 428 281 394 q 272 544 307 481 q 236 685 236 608 q 260 797 236 744 q 327 887 283 849 q 433 947 371 925 q 572 968 496 968 q 706 947 646 968 q 809 891 767 926 q 874 806 851 856 q 897 701 897 757 m 524 -25 q 631 -9 582 -25 q 719 35 679 7 l 468 301 q 392 256 422 278 q 344 214 363 235 q 319 172 326 193 q 311 125 311 150 q 363 16 311 57 q 524 -25 414 -25 m 442 685 q 461 600 442 646 q 525 500 481 554 q 604 543 572 522 q 656 587 636 564 q 683 635 675 610 q 692 692 692 661 q 660 778 692 744 q 572 813 629 813 q 481 780 519 813 q 442 685 442 747 z "},"＇":{"ha":1250,"x_min":515,"x_max":733,"o":"m 515 575 l 515 1035 l 733 1035 l 733 575 l 515 575 z "},"（":{"ha":1250,"x_min":624,"x_max":1113,"o":"m 624 401 q 693 738 624 586 q 893 1010 763 889 l 1113 1010 q 1004 885 1054 954 q 919 738 954 815 q 863 574 883 660 q 843 401 843 489 q 863 228 843 314 q 919 65 883 143 q 1004 -83 954 -14 q 1113 -208 1054 -153 l 893 -208 q 694 65 764 -87 q 624 401 624 218 z "},"）":{"ha":1250,"x_min":138,"x_max":626,"o":"m 626 401 q 556 65 626 218 q 357 -208 486 -87 l 138 -208 q 246 -83 196 -153 q 331 65 296 -14 q 387 228 367 143 q 407 401 407 314 q 387 574 407 489 q 331 738 367 660 q 246 885 296 815 q 138 1010 196 954 l 357 1010 q 557 738 488 889 q 626 401 626 586 z "},"＊":{"ha":1250,"x_min":343,"x_max":906,"o":"m 906 706 l 750 653 l 861 514 l 736 422 l 628 567 l 522 422 l 392 514 l 500 651 l 343 704 l 400 851 l 549 794 l 549 975 l 704 975 l 704 793 l 851 850 l 906 706 z "},"＋":{"ha":1250,"x_min":265,"x_max":985,"o":"m 265 504 l 522 504 l 522 746 l 728 746 l 728 504 l 985 504 l 985 335 l 728 335 l 728 69 l 522 69 l 522 335 l 265 335 l 265 504 z "},"，":{"ha":1250,"x_min":235,"x_max":458,"o":"m 458 -161 q 401 -304 458 -261 q 240 -356 344 -347 l 240 -256 q 325 -228 299 -250 q 351 -162 351 -207 l 235 -162 l 235 49 l 458 49 l 458 -161 z "},"－":{"ha":1250,"x_min":265,"x_max":985,"o":"m 265 504 l 985 504 l 985 335 l 265 335 l 265 504 z "},"．":{"ha":1250,"x_min":235,"x_max":458,"o":"m 235 -162 l 235 49 l 458 49 l 458 -162 l 235 -162 z "},"／":{"ha":1250,"x_min":268,"x_max":982,"o":"m 268 -153 l 753 940 l 982 940 l 508 -153 l 268 -153 z "},"０":{"ha":1250,"x_min":163,"x_max":1088,"o":"m 163 394 q 193 633 163 526 q 283 813 224 739 q 428 927 342 888 q 625 967 514 967 q 820 927 735 967 q 965 813 906 888 q 1056 633 1025 739 q 1088 394 1088 526 q 1058 156 1088 263 q 971 -25 1029 50 q 826 -140 913 -100 q 625 -181 739 -181 q 428 -140 514 -181 q 283 -25 342 -100 q 193 156 224 50 q 163 394 163 263 m 382 394 q 401 210 382 286 q 454 84 421 133 q 531 12 488 35 q 625 -11 575 -11 q 721 12 676 -11 q 799 84 765 35 q 851 210 832 133 q 869 394 869 286 q 851 578 869 501 q 799 703 832 654 q 721 774 765 751 q 625 797 676 797 q 531 774 575 797 q 454 703 488 751 q 401 578 421 654 q 382 394 382 501 z "},"１":{"ha":1250,"x_min":418,"x_max":832,"o":"m 418 940 l 832 940 l 832 -153 l 613 -153 l 613 771 l 418 771 l 418 940 z "},"２":{"ha":1250,"x_min":193,"x_max":1057,"o":"m 222 -153 l 222 -25 l 581 289 q 667 371 628 331 q 736 451 707 411 q 782 532 765 492 q 799 613 799 572 q 750 748 799 699 q 614 797 701 797 q 465 735 532 797 q 363 576 399 674 l 193 669 q 256 790 217 735 q 349 884 294 844 q 475 945 404 924 q 633 967 546 967 q 780 945 710 967 q 903 880 850 924 q 987 769 957 836 q 1014 610 1017 701 q 992 509 1013 561 q 938 404 972 457 q 858 299 904 351 q 758 200 813 247 l 547 15 l 1057 15 l 1057 -153 l 222 -153 z "},"３":{"ha":1250,"x_min":192,"x_max":1057,"o":"m 215 714 q 275 821 236 774 q 366 900 314 868 q 481 949 418 932 q 614 967 544 967 q 781 942 706 967 q 911 876 857 918 q 996 776 965 833 q 1026 651 1026 718 q 987 501 1026 567 q 868 408 947 436 q 1002 317 947 382 q 1057 156 1057 253 q 1024 15 1057 78 q 933 -91 992 -47 q 792 -158 874 -135 q 613 -181 710 -181 q 478 -166 543 -181 q 359 -122 414 -151 q 261 -46 304 -92 q 192 64 218 0 l 376 153 q 411 85 388 115 q 466 33 435 54 q 533 1 497 13 q 607 -11 569 -11 q 772 30 707 -11 q 838 154 838 71 q 819 231 838 200 q 768 280 800 261 q 694 307 736 299 q 607 315 653 315 l 501 315 l 501 485 l 607 485 q 682 492 646 485 q 746 517 718 500 q 790 563 774 535 q 807 635 807 592 q 749 755 807 713 q 601 797 690 797 q 475 750 531 797 q 392 631 419 703 l 215 714 z "},"４":{"ha":1250,"x_min":183,"x_max":1065,"o":"m 183 61 l 183 231 l 690 940 l 910 940 l 910 231 l 1065 231 l 1065 61 l 910 61 l 910 -153 l 690 -153 l 690 61 l 183 61 m 690 667 l 394 231 l 690 231 l 690 667 z "},"５":{"ha":1250,"x_min":194,"x_max":1056,"o":"m 619 -181 q 469 -161 539 -181 q 343 -106 399 -142 q 249 -18 288 -69 q 194 97 211 33 l 374 169 q 413 97 390 131 q 466 40 436 64 q 534 3 496 17 q 621 -11 572 -11 q 713 5 672 -11 q 781 49 753 21 q 822 115 808 78 q 836 196 836 153 q 778 350 836 292 q 606 408 719 408 q 515 385 564 408 q 431 318 465 363 l 232 318 l 232 940 l 997 940 l 997 771 l 451 771 l 451 518 q 664 578 536 578 q 814 551 743 578 q 938 476 885 525 q 1024 358 992 428 q 1056 199 1056 288 q 1025 56 1056 125 q 938 -65 994 -12 q 800 -149 881 -118 q 619 -181 719 -181 z "},"６":{"ha":1250,"x_min":196,"x_max":1054,"o":"m 785 940 l 574 560 q 692 572 625 572 q 830 544 764 572 q 946 468 896 517 q 1025 353 996 419 q 1054 211 1054 288 q 1020 47 1054 119 q 927 -76 986 -26 q 787 -153 868 -126 q 611 -181 706 -181 q 457 -155 532 -181 q 324 -81 382 -129 q 231 35 265 -33 q 196 186 196 103 q 219 317 196 258 q 274 436 242 376 l 557 940 l 785 940 m 621 401 q 528 385 568 401 q 460 340 488 368 q 420 274 433 313 q 407 194 407 236 q 422 115 407 153 q 463 49 436 78 q 530 4 490 21 q 621 -12 569 -12 q 712 4 672 -12 q 778 49 751 21 q 820 115 806 78 q 835 194 835 153 q 822 274 835 236 q 781 340 808 313 q 714 385 754 368 q 621 401 674 401 z "},"７":{"ha":1250,"x_min":222,"x_max":1028,"o":"m 550 -153 l 315 -153 l 764 771 l 222 771 l 222 940 l 1028 940 l 1028 832 l 550 -153 z "},"８":{"ha":1250,"x_min":201,"x_max":1049,"o":"m 625 -181 q 465 -159 542 -181 q 330 -97 389 -137 q 236 2 271 -56 q 201 132 201 60 q 219 240 201 193 q 267 322 238 288 q 333 378 296 356 q 407 411 369 400 q 341 443 372 422 q 285 495 310 464 q 247 569 261 526 q 233 665 233 611 q 264 786 233 731 q 348 882 294 842 q 472 945 401 922 q 625 968 543 968 q 777 945 706 968 q 902 882 849 922 q 986 786 956 842 q 1017 665 1017 731 q 1003 569 1017 611 q 965 495 989 526 q 909 443 940 464 q 843 411 878 422 q 917 378 881 400 q 983 322 954 356 q 1031 240 1013 288 q 1049 132 1049 193 q 1014 2 1049 60 q 920 -97 979 -56 q 785 -159 861 -137 q 625 -181 708 -181 m 625 -25 q 705 -13 668 -25 q 769 20 742 -1 q 812 73 796 42 q 828 144 828 104 q 812 215 828 183 q 769 269 796 247 q 705 303 742 292 q 625 315 668 315 q 545 303 582 315 q 481 269 508 292 q 438 215 454 247 q 422 144 422 183 q 438 73 422 104 q 481 20 454 42 q 545 -13 508 -1 q 625 -25 582 -25 m 625 489 q 702 502 668 489 q 760 537 736 515 q 797 588 783 558 q 810 650 810 617 q 760 769 810 725 q 625 813 711 813 q 490 769 539 813 q 440 650 440 725 q 453 588 440 617 q 490 537 465 558 q 548 502 514 515 q 625 489 582 489 z "},"９":{"ha":1250,"x_min":196,"x_max":1054,"o":"m 465 -153 l 676 228 q 558 215 624 215 q 420 243 486 215 q 304 319 354 271 q 225 434 254 368 q 196 576 196 500 q 230 741 196 668 q 323 864 264 814 q 463 941 382 914 q 639 968 544 968 q 793 942 718 968 q 926 867 868 915 q 1019 752 985 819 q 1054 601 1054 685 q 1031 470 1054 529 q 976 351 1008 411 l 693 -153 l 465 -153 m 629 386 q 722 403 682 386 q 790 447 763 419 q 830 513 817 475 q 843 593 843 551 q 828 672 843 635 q 787 738 814 710 q 720 783 760 767 q 629 800 681 800 q 538 783 578 800 q 472 738 499 767 q 430 672 444 710 q 415 593 415 635 q 428 513 415 551 q 469 447 442 475 q 536 403 496 419 q 629 386 576 386 z "},"：":{"ha":1250,"x_min":513,"x_max":736,"o":"m 513 -14 l 513 197 l 736 197 l 736 -14 l 513 -14 m 513 625 l 513 836 l 736 836 l 736 625 l 513 625 z "},"；":{"ha":1250,"x_min":504,"x_max":736,"o":"m 513 625 l 513 836 l 736 836 l 736 625 l 513 625 m 736 -12 q 717 -98 736 -62 q 667 -156 699 -133 q 593 -191 635 -179 q 504 -207 551 -203 l 504 -121 q 602 -87 568 -115 q 636 -14 636 -60 l 513 -14 l 513 197 l 736 197 l 736 -12 z "},"＜":{"ha":1250,"x_min":479,"x_max":1136,"o":"m 1136 -87 l 996 -228 l 479 317 l 479 475 l 996 1019 l 1136 879 l 678 396 l 1136 -87 z "},"＝":{"ha":1250,"x_min":265,"x_max":985,"o":"m 265 671 l 985 671 l 985 501 l 265 501 l 265 671 m 265 338 l 985 338 l 985 168 l 265 168 l 265 338 z "},"＞":{"ha":1250,"x_min":114,"x_max":771,"o":"m 572 396 l 114 879 l 254 1019 l 771 475 l 771 317 l 254 -228 l 114 -87 l 572 396 z "},"？":{"ha":1250,"x_min":219,"x_max":1029,"o":"m 508 139 l 508 449 q 617 468 563 453 q 713 511 671 483 q 783 581 756 539 q 810 682 810 624 q 793 756 810 724 q 749 810 776 789 q 687 843 722 832 q 614 854 651 854 q 537 839 572 854 q 473 798 501 824 q 424 739 444 772 q 393 668 404 706 l 219 742 q 281 870 240 817 q 375 958 321 924 q 494 1008 429 992 q 631 1025 560 1025 q 793 1001 719 1025 q 919 933 867 976 q 1000 830 971 890 q 1029 699 1029 769 q 1004 569 1029 628 q 938 467 979 511 q 841 391 896 422 q 726 343 786 360 l 726 139 l 508 139 m 508 21 l 726 21 l 726 -182 l 508 -182 l 508 21 z "},"＠":{"ha":1250,"x_min":10,"x_max":1239,"o":"m 986 -131 q 810 -181 899 -167 q 621 -194 721 -194 q 380 -149 492 -194 q 186 -25 268 -104 q 57 162 104 54 q 10 396 10 269 q 57 625 10 518 q 187 812 104 732 q 382 938 269 892 q 625 983 494 983 q 871 942 758 983 q 1065 827 983 900 q 1193 655 1147 754 q 1239 442 1239 556 q 1217 301 1239 365 q 1155 192 1196 238 q 1055 121 1114 146 q 922 96 996 96 q 828 117 867 96 q 771 174 790 138 q 692 122 739 142 q 582 103 644 103 q 468 124 521 103 q 376 182 415 144 q 315 272 338 219 q 293 389 293 325 q 317 507 293 453 q 381 599 340 561 q 473 659 421 638 q 582 681 525 681 q 681 665 633 681 q 760 618 729 649 l 783 672 l 901 672 l 901 289 q 958 232 901 232 q 994 242 976 232 q 1027 276 1013 251 q 1050 340 1042 300 q 1058 439 1058 379 q 1026 597 1058 526 q 937 717 994 668 q 799 794 879 767 q 624 821 719 821 q 453 789 531 821 q 319 701 375 757 q 231 567 263 644 q 200 396 200 489 q 231 224 200 301 q 319 90 263 146 q 452 2 375 33 q 621 -29 529 -29 q 778 -17 700 -29 q 935 22 856 -6 l 986 -131 m 729 389 q 692 484 729 447 q 596 521 656 521 q 503 484 539 521 q 467 389 467 447 q 503 297 467 332 q 596 261 540 261 q 692 297 654 261 q 729 389 729 332 z "},"Ａ":{"ha":1250,"x_min":101,"x_max":1147,"o":"m 101 -153 l 504 940 l 744 940 l 1147 -153 l 929 -153 l 804 199 l 406 90 l 319 -153 l 101 -153 m 472 275 l 750 350 l 624 703 l 472 275 z "},"Ｂ":{"ha":1250,"x_min":136,"x_max":1113,"o":"m 1060 668 q 1025 526 1060 592 q 915 421 990 461 q 997 383 960 407 q 1059 324 1033 360 q 1099 242 1085 289 q 1113 135 1113 194 q 1088 7 1113 61 q 1022 -83 1064 -47 q 926 -135 981 -118 q 813 -153 872 -153 l 136 -153 l 136 940 l 760 940 q 874 925 819 940 q 969 877 928 910 q 1035 792 1011 844 q 1060 668 1060 740 m 888 178 q 835 294 888 249 q 697 350 782 340 l 354 250 l 354 8 l 711 8 q 842 51 797 8 q 888 178 888 94 m 726 517 q 817 569 786 532 q 847 657 847 606 q 809 747 847 717 q 718 778 771 778 l 354 778 l 354 417 l 726 517 z "},"Ｃ":{"ha":1250,"x_min":83,"x_max":1165,"o":"m 83 394 q 125 624 83 518 q 242 806 167 729 q 425 926 318 883 q 661 969 532 969 q 1161 701 972 969 l 1021 592 q 874 745 968 689 q 664 801 779 801 q 518 769 585 801 q 403 681 451 736 q 329 552 356 626 q 303 394 303 478 q 331 235 303 308 q 410 106 358 161 q 532 19 461 50 q 690 -12 603 -12 q 793 4 744 -12 q 884 50 842 21 q 963 119 926 79 q 1026 204 999 158 l 1165 88 q 951 -112 1074 -44 q 661 -181 829 -181 q 433 -140 539 -181 q 250 -25 328 -100 q 128 156 172 50 q 83 394 83 263 z "},"Ｄ":{"ha":1250,"x_min":136,"x_max":1113,"o":"m 136 940 l 631 940 q 826 899 738 940 q 978 784 915 857 q 1077 611 1042 711 q 1113 396 1113 511 q 1076 176 1113 276 q 972 2 1040 75 q 803 -112 903 -71 q 578 -153 704 -153 l 136 -153 l 136 940 m 356 17 l 561 17 q 705 46 643 17 q 808 126 767 75 q 872 247 850 176 q 893 400 893 317 q 869 550 893 482 q 800 667 846 618 q 688 744 754 717 q 539 771 622 771 l 356 771 l 356 17 z "},"Ｅ":{"ha":1250,"x_min":208,"x_max":1042,"o":"m 1001 490 l 1001 321 l 428 321 l 428 15 l 1042 15 l 1042 -153 l 208 -153 l 208 940 l 1028 940 l 1028 771 l 428 771 l 428 490 l 1001 490 z "},"Ｆ":{"ha":1250,"x_min":215,"x_max":1035,"o":"m 1008 490 l 1008 321 l 435 321 l 435 -153 l 215 -153 l 215 940 l 1035 940 l 1035 771 l 435 771 l 435 490 l 1008 490 z "},"Ｇ":{"ha":1250,"x_min":68,"x_max":1181,"o":"m 68 394 q 110 624 68 518 q 227 806 151 729 q 410 926 303 883 q 646 969 517 969 q 1146 701 957 969 l 1006 592 q 858 745 953 689 q 649 801 764 801 q 503 769 569 801 q 388 681 436 736 q 314 552 340 626 q 288 394 288 478 q 312 235 288 308 q 381 106 336 161 q 489 20 425 51 q 631 -11 553 -11 q 760 10 701 -11 q 863 69 819 31 q 933 161 907 107 q 961 283 958 215 l 625 283 l 625 453 l 1181 453 l 1181 347 q 1142 131 1181 228 q 1034 -35 1104 33 q 865 -142 964 -104 q 646 -181 767 -181 q 418 -140 524 -181 q 235 -25 313 -100 q 113 156 157 50 q 68 394 68 263 z "},"Ｈ":{"ha":1250,"x_min":149,"x_max":1100,"o":"m 881 -153 l 881 407 l 368 267 l 368 -153 l 149 -153 l 149 940 l 368 940 l 368 433 l 881 574 l 881 940 l 1100 940 l 1100 -153 l 881 -153 z "},"Ｉ":{"ha":1250,"x_min":515,"x_max":735,"o":"m 735 940 l 735 -153 l 515 -153 l 515 940 l 735 940 z "},"Ｊ":{"ha":1250,"x_min":258,"x_max":990,"o":"m 364 94 q 451 24 396 54 q 569 -7 506 -7 q 657 11 619 -7 q 720 61 694 29 q 758 136 746 93 q 771 229 771 179 l 771 940 l 990 940 l 990 244 q 964 75 990 154 q 885 -62 938 -4 q 752 -151 832 -119 q 567 -181 672 -183 q 399 -142 478 -176 q 258 -49 321 -108 l 364 94 z "},"Ｋ":{"ha":1250,"x_min":176,"x_max":1072,"o":"m 821 -153 l 396 346 l 396 -153 l 176 -153 l 176 940 l 396 940 l 396 488 l 817 940 l 1068 940 l 583 417 l 1072 -153 l 821 -153 z "},"Ｌ":{"ha":1250,"x_min":222,"x_max":1026,"o":"m 222 940 l 442 940 l 442 17 l 1026 17 l 1026 -153 l 222 -153 l 222 940 z "},"Ｍ":{"ha":1250,"x_min":26,"x_max":1222,"o":"m 704 -153 l 544 -153 l 246 539 l 246 -153 l 26 -153 l 26 940 l 246 940 l 624 65 l 1003 940 l 1222 940 l 1222 -153 l 1003 -153 l 1003 539 l 704 -153 z "},"Ｎ":{"ha":1250,"x_min":149,"x_max":1100,"o":"m 149 940 l 367 940 l 881 150 l 881 940 l 1100 940 l 1100 -153 l 881 -153 l 368 633 l 368 -153 l 149 -153 l 149 940 z "},"Ｏ":{"ha":1250,"x_min":38,"x_max":1211,"o":"m 38 396 q 82 631 38 525 q 206 813 126 738 q 392 928 285 888 q 625 969 500 969 q 859 928 751 969 q 1045 813 967 888 q 1167 631 1124 738 q 1211 396 1211 525 q 1167 159 1211 265 q 1045 -23 1124 53 q 859 -140 967 -99 q 625 -181 751 -181 q 392 -140 500 -181 q 206 -23 285 -99 q 82 159 126 53 q 38 396 38 265 m 257 396 q 286 228 257 303 q 365 102 315 154 q 483 22 415 50 q 625 -6 550 -6 q 768 22 701 -6 q 885 102 835 50 q 963 228 935 154 q 992 396 992 303 q 963 560 992 488 q 885 685 935 633 q 768 765 835 738 q 625 793 701 793 q 481 765 549 793 q 364 685 414 738 q 285 560 314 633 q 257 396 257 488 z "},"Ｐ":{"ha":1250,"x_min":164,"x_max":1086,"o":"m 164 940 l 750 940 q 882 921 821 940 q 989 862 943 901 q 1060 762 1035 822 q 1086 619 1086 701 q 1063 484 1086 539 q 996 393 1039 429 q 892 335 953 357 q 756 297 831 313 l 383 208 l 383 -153 l 164 -153 l 164 940 m 868 619 q 824 732 868 693 q 711 771 781 771 l 383 771 l 383 392 l 688 454 q 822 510 775 469 q 868 619 868 551 z "},"Ｑ":{"ha":1250,"x_min":38,"x_max":1211,"o":"m 38 396 q 84 634 38 528 q 211 815 131 740 q 398 929 292 889 q 625 969 504 969 q 854 929 747 969 q 1040 815 961 889 q 1165 634 1119 740 q 1211 396 1211 528 q 1172 173 1211 272 q 1064 0 1133 74 l 1146 -86 l 1017 -215 l 917 -111 q 778 -162 851 -144 q 625 -181 706 -181 q 398 -140 504 -181 q 211 -25 292 -100 q 84 156 131 50 q 38 396 38 263 m 760 315 l 922 144 q 974 258 956 194 q 992 396 992 321 q 964 562 992 488 q 887 689 936 636 q 771 771 838 742 q 625 800 704 800 q 480 771 547 800 q 363 689 413 742 q 285 562 314 636 q 257 396 257 488 q 285 228 257 303 q 363 99 314 153 q 480 17 413 46 q 625 -12 547 -12 q 786 24 714 -12 l 631 186 l 760 315 z "},"Ｒ":{"ha":1250,"x_min":135,"x_max":1115,"o":"m 135 940 l 721 940 q 853 921 792 940 q 960 862 914 901 q 1031 762 1006 822 q 1057 619 1057 701 q 1008 438 1057 503 q 872 338 958 372 l 1115 -153 l 889 -153 l 672 283 l 354 208 l 354 -153 l 135 -153 l 135 940 m 839 619 q 795 732 839 693 q 682 771 751 771 l 354 771 l 354 392 l 658 454 q 792 510 746 469 q 839 619 839 551 z "},"Ｓ":{"ha":1250,"x_min":183,"x_max":1067,"o":"m 268 138 q 351 81 306 106 q 446 38 396 56 q 549 10 496 19 q 657 3 603 1 q 794 35 740 4 q 847 132 847 65 q 794 245 847 207 q 639 307 742 283 q 455 360 535 329 q 321 432 375 390 q 239 529 267 474 q 211 658 211 585 q 244 795 211 738 q 335 892 278 853 q 465 949 392 931 q 621 968 539 968 q 832 933 732 968 q 1032 835 932 897 l 950 669 q 799 750 883 718 q 629 785 714 782 q 559 781 594 786 q 495 761 524 775 q 449 724 467 747 q 431 665 431 700 q 440 612 431 635 q 475 570 450 589 q 542 535 500 551 q 649 501 583 518 q 844 437 764 471 q 973 360 924 403 q 1044 264 1022 318 q 1067 138 1067 210 q 1033 1 1067 60 q 943 -99 1000 -58 q 808 -160 886 -139 q 640 -181 729 -181 q 397 -137 514 -181 q 183 -28 279 -94 l 268 138 z "},"Ｔ":{"ha":1250,"x_min":150,"x_max":1100,"o":"m 735 771 l 735 -153 l 515 -153 l 515 771 l 150 771 l 150 940 l 1100 940 l 1100 771 l 735 771 z "},"Ｕ":{"ha":1250,"x_min":149,"x_max":1100,"o":"m 624 -181 q 437 -149 524 -181 q 286 -59 350 -117 q 185 80 222 -1 q 149 261 149 161 l 149 940 l 368 940 l 368 275 q 385 167 368 218 q 433 79 401 117 q 513 19 465 42 q 624 -3 561 -3 q 734 19 686 -3 q 815 79 782 42 q 864 167 847 117 q 881 275 881 218 l 881 940 l 1100 940 l 1100 261 q 1063 80 1100 161 q 962 -59 1026 -1 q 810 -149 897 -117 q 624 -181 724 -181 z "},"Ｖ":{"ha":1250,"x_min":101,"x_max":1147,"o":"m 319 940 l 624 85 l 929 940 l 1147 940 l 744 -153 l 504 -153 l 101 940 l 319 940 z "},"Ｗ":{"ha":1250,"x_min":17,"x_max":1235,"o":"m 731 940 l 871 197 l 1025 940 l 1235 940 l 972 -153 l 771 -153 l 625 599 l 481 -153 l 279 -153 l 17 940 l 226 940 l 381 194 l 521 940 l 731 940 z "},"Ｘ":{"ha":1250,"x_min":135,"x_max":1114,"o":"m 365 940 l 624 561 l 883 940 l 1114 940 l 742 388 l 1111 -153 l 871 -153 l 624 213 l 378 -153 l 138 -153 l 506 388 l 135 940 l 365 940 z "},"Ｙ":{"ha":1250,"x_min":122,"x_max":1128,"o":"m 515 -153 l 515 310 l 122 940 l 360 940 l 625 517 l 890 940 l 1128 940 l 735 310 l 735 -153 l 515 -153 z "},"Ｚ":{"ha":1250,"x_min":213,"x_max":1038,"o":"m 213 -153 l 213 0 l 768 771 l 239 771 l 239 940 l 1015 940 l 1015 803 l 449 17 l 1038 17 l 1038 -153 l 213 -153 z "},"［":{"ha":1250,"x_min":674,"x_max":1131,"o":"m 1131 1010 l 1131 840 l 886 840 l 886 -39 l 1131 -39 l 1131 -208 l 674 -208 l 674 1010 l 1131 1010 z "},"￦":{"ha":1250,"x_min":268,"x_max":982,"o":"m 742 -153 l 268 940 l 497 940 l 982 -153 l 742 -153 z "},"］":{"ha":1250,"x_min":118,"x_max":575,"o":"m 575 1010 l 575 -208 l 118 -208 l 118 -39 l 363 -39 l 363 840 l 118 840 l 118 1010 l 575 1010 z "},"＾":{"ha":1250,"x_min":293,"x_max":957,"o":"m 736 988 l 957 619 l 753 619 l 626 829 l 500 619 l 293 619 l 513 988 l 736 988 z "},"＿":{"ha":1250,"x_min":335,"x_max":915,"o":"m 335 -11 l 915 -11 l 915 -181 l 335 -181 l 335 -11 z "},"｀":{"ha":1250,"x_min":413,"x_max":836,"o":"m 629 633 l 413 988 l 633 988 l 836 633 l 629 633 z "},"ａ":{"ha":1250,"x_min":150,"x_max":1099,"o":"m 907 657 l 1099 657 l 1099 -153 l 913 -153 l 886 -46 q 825 -103 861 -78 q 747 -147 789 -129 q 658 -173 704 -164 q 568 -181 613 -182 q 408 -146 483 -179 q 274 -56 332 -112 q 183 80 217 1 q 150 250 150 158 q 185 424 150 344 q 278 562 219 504 q 411 652 336 619 q 567 685 486 685 q 749 651 667 685 q 882 557 831 618 l 907 657 m 611 -11 q 706 7 661 -11 q 783 59 750 25 q 834 142 815 93 q 853 250 853 190 q 834 361 853 313 q 783 444 815 410 q 706 496 750 478 q 611 514 661 514 q 517 496 561 514 q 440 444 472 478 q 388 361 407 410 q 369 250 369 313 q 388 142 369 190 q 440 59 407 93 q 517 7 472 25 q 611 -11 561 -11 z "},"ｂ":{"ha":1250,"x_min":150,"x_max":1099,"o":"m 369 561 q 502 652 422 619 q 682 685 582 685 q 838 652 763 685 q 971 562 913 619 q 1064 424 1029 504 q 1099 250 1099 344 q 1065 80 1099 158 q 974 -56 1031 1 q 841 -146 917 -112 q 681 -181 765 -179 q 589 -173 635 -182 q 501 -147 543 -164 q 424 -103 460 -129 q 361 -46 388 -78 l 336 -153 l 150 -153 l 150 940 l 369 940 l 369 561 m 638 -11 q 732 7 688 -11 q 809 59 776 25 q 860 142 842 93 q 879 250 879 190 q 860 361 879 313 q 809 444 842 410 q 732 496 776 478 q 638 514 688 514 q 543 496 588 514 q 466 444 499 478 q 415 361 433 410 q 396 250 396 313 q 415 142 396 190 q 466 59 433 93 q 543 7 499 25 q 638 -11 588 -11 z "},"ｃ":{"ha":1250,"x_min":194,"x_max":1054,"o":"m 676 529 q 570 508 618 529 q 488 451 522 488 q 433 363 453 414 q 414 251 414 313 q 434 143 414 193 q 490 56 454 93 q 573 -3 525 18 q 676 -25 621 -25 q 817 11 754 -25 q 919 114 881 47 l 1053 -3 q 893 -142 989 -90 q 657 -194 797 -194 q 477 -162 561 -194 q 330 -70 393 -129 q 231 71 267 -11 q 194 251 194 153 q 230 432 194 350 q 327 574 265 514 q 474 666 389 633 q 657 699 558 699 q 1054 507 918 699 l 921 393 q 819 494 885 460 q 676 529 753 529 z "},"ｄ":{"ha":1250,"x_min":150,"x_max":1099,"o":"m 879 940 l 1099 940 l 1099 -153 l 913 -153 l 886 -46 q 825 -103 861 -78 q 747 -147 789 -129 q 658 -173 704 -164 q 568 -181 613 -182 q 408 -146 483 -179 q 274 -56 332 -112 q 183 80 217 1 q 150 250 150 158 q 185 424 150 344 q 278 562 219 504 q 411 652 336 619 q 567 685 486 685 q 746 652 665 685 q 879 561 826 619 l 879 940 m 611 -11 q 706 7 661 -11 q 783 59 750 25 q 834 142 815 93 q 853 250 853 190 q 834 361 853 313 q 783 444 815 410 q 706 496 750 478 q 611 514 661 514 q 517 496 561 514 q 440 444 472 478 q 388 361 407 410 q 369 250 369 313 q 388 142 369 190 q 440 59 407 93 q 517 7 472 25 q 611 -11 561 -11 z "},"ｅ":{"ha":1250,"x_min":164,"x_max":1086,"o":"m 393 114 q 482 11 422 47 q 631 -25 542 -25 q 783 3 714 -25 q 907 97 851 31 l 1047 -10 q 874 -146 975 -97 q 653 -194 772 -194 q 461 -163 550 -194 q 306 -74 372 -132 q 202 66 240 -17 q 164 251 164 149 q 200 434 164 351 q 299 576 236 517 q 447 667 361 635 q 632 700 532 700 q 810 668 729 700 q 951 580 892 636 q 1047 445 1011 524 q 1086 274 1082 367 l 393 114 m 642 531 q 447 462 518 531 q 368 275 375 393 l 868 394 q 774 499 832 467 q 642 531 715 531 z "},"ｆ":{"ha":1250,"x_min":325,"x_max":925,"o":"m 708 -153 l 489 -153 l 489 474 l 325 474 l 325 643 l 489 643 l 489 735 q 506 822 489 783 q 551 886 522 860 q 620 926 581 913 q 704 940 660 940 l 925 940 l 925 771 l 796 771 q 730 748 751 771 q 708 683 708 725 l 708 643 l 911 643 l 911 474 l 708 474 l 708 -153 z "},"ｇ":{"ha":1250,"x_min":150,"x_max":1099,"o":"m 1099 -118 q 1066 -292 1099 -215 q 975 -424 1033 -369 q 836 -510 917 -479 q 660 -542 756 -540 q 490 -525 571 -544 q 344 -465 408 -506 q 239 -362 281 -425 q 189 -211 197 -299 l 411 -211 q 476 -332 417 -290 q 628 -374 535 -374 q 728 -358 682 -374 q 808 -311 774 -343 q 860 -231 842 -279 q 879 -117 879 -183 l 879 -19 q 746 -120 828 -87 q 568 -153 664 -153 q 408 -122 483 -153 q 274 -36 332 -92 q 183 96 217 19 q 150 264 150 172 q 185 436 150 358 q 278 569 219 514 q 411 654 336 624 q 567 685 486 685 q 749 651 667 685 q 882 557 831 618 l 907 657 l 1099 657 l 1099 -118 m 611 17 q 706 35 661 17 q 783 85 750 53 q 834 164 815 118 q 853 264 853 210 q 834 367 853 321 q 783 445 815 413 q 706 496 750 478 q 611 514 661 514 q 517 496 561 514 q 440 445 472 478 q 388 367 407 413 q 369 264 369 321 q 388 164 369 210 q 440 85 407 118 q 517 35 472 53 q 611 17 561 17 z "},"ｈ":{"ha":1250,"x_min":199,"x_max":1050,"o":"m 418 588 q 540 659 467 633 q 683 685 613 685 q 826 661 760 685 q 943 595 893 638 q 1022 492 993 553 q 1050 358 1050 432 l 1050 -153 l 831 -153 l 831 283 q 778 460 831 406 q 633 515 725 515 q 495 462 554 515 q 418 314 436 408 l 418 -153 l 199 -153 l 199 940 l 418 940 l 418 588 z "},"ｉ":{"ha":1250,"x_min":515,"x_max":735,"o":"m 735 657 l 735 -153 l 515 -153 l 515 657 l 735 657 m 735 979 l 735 768 l 515 768 l 515 979 l 735 979 z "},"ｊ":{"ha":1250,"x_min":428,"x_max":822,"o":"m 603 657 l 822 657 l 822 13 q 805 -105 822 -57 q 757 -183 788 -153 q 687 -226 726 -212 q 601 -240 647 -240 l 428 -240 l 428 -71 l 510 -71 q 578 -47 553 -71 q 603 39 603 -24 l 603 657 m 822 979 l 822 768 l 603 768 l 603 979 l 822 979 z "},"ｋ":{"ha":1250,"x_min":218,"x_max":1032,"o":"m 767 -153 l 438 190 l 438 -153 l 218 -153 l 218 940 l 438 940 l 438 357 l 753 657 l 1018 657 l 618 279 l 1032 -153 l 767 -153 z "},"ｌ":{"ha":1250,"x_min":515,"x_max":735,"o":"m 735 940 l 735 -153 l 515 -153 l 515 940 l 735 940 z "},"ｍ":{"ha":1250,"x_min":22,"x_max":1228,"o":"m 735 -153 l 515 -153 l 515 339 q 508 399 515 368 q 483 456 500 431 q 442 498 467 482 q 383 514 417 514 q 332 499 356 514 q 290 459 308 483 q 258 404 271 435 q 242 344 246 374 l 242 -153 l 22 -153 l 22 657 l 214 657 l 232 594 q 340 665 278 646 q 463 685 403 683 q 577 655 522 685 q 672 569 632 625 q 731 628 699 606 q 797 664 763 651 q 871 681 832 676 q 951 685 910 685 q 1057 660 1007 685 q 1145 592 1107 636 q 1206 484 1183 547 q 1228 344 1228 421 l 1228 -153 l 1008 -153 l 1008 339 q 1001 399 1008 368 q 977 456 993 431 q 935 498 961 482 q 874 514 910 514 q 781 472 821 514 q 735 357 742 431 l 735 -153 z "},"ｎ":{"ha":1250,"x_min":199,"x_max":1050,"o":"m 403 572 q 458 619 425 599 q 528 655 490 640 q 606 677 565 669 q 683 685 646 685 q 826 661 760 685 q 943 595 893 638 q 1022 492 993 553 q 1050 358 1050 432 l 1050 -153 l 831 -153 l 831 283 q 778 460 831 406 q 633 515 725 515 q 495 462 554 515 q 418 314 436 408 l 418 -153 l 199 -153 l 199 657 l 385 657 l 403 572 z "},"ｏ":{"ha":1250,"x_min":151,"x_max":1099,"o":"m 625 -26 q 726 -6 679 -26 q 808 51 774 14 q 861 138 842 88 q 881 250 881 189 q 861 365 881 313 q 808 453 842 417 q 726 509 774 489 q 625 529 679 529 q 523 508 569 529 q 442 451 476 488 q 389 363 408 414 q 369 250 369 311 q 389 138 369 189 q 442 51 408 88 q 523 -6 476 14 q 625 -26 569 -26 m 151 250 q 189 436 151 353 q 291 578 226 519 q 442 667 356 636 q 625 699 528 699 q 807 667 721 699 q 958 578 893 636 q 1060 436 1022 519 q 1099 250 1099 353 q 1060 65 1099 147 q 958 -74 1022 -17 q 807 -163 893 -132 q 625 -194 721 -194 q 442 -163 528 -194 q 291 -74 356 -132 q 189 65 226 -17 q 151 250 151 147 z "},"ｐ":{"ha":1250,"x_min":150,"x_max":1099,"o":"m 342 657 l 374 582 q 510 659 436 633 q 682 685 585 685 q 838 652 763 685 q 971 562 913 619 q 1064 424 1029 504 q 1099 250 1099 344 q 1065 80 1099 158 q 974 -56 1031 1 q 841 -146 917 -112 q 681 -181 765 -179 q 513 -156 593 -183 q 369 -72 432 -128 l 369 -514 l 150 -514 l 150 657 l 342 657 m 638 -11 q 732 7 688 -11 q 809 59 776 25 q 860 142 842 93 q 879 250 879 190 q 860 361 879 313 q 809 444 842 410 q 732 496 776 478 q 638 514 688 514 q 543 496 588 514 q 466 444 499 478 q 415 361 433 410 q 396 250 396 313 q 415 142 396 190 q 466 59 433 93 q 543 7 499 25 q 638 -11 588 -11 z "},"ｑ":{"ha":1250,"x_min":150,"x_max":1099,"o":"m 907 657 l 1099 657 l 1099 -514 l 879 -514 l 879 -72 q 736 -156 817 -128 q 568 -181 656 -183 q 408 -146 483 -179 q 274 -56 332 -112 q 183 80 217 1 q 150 250 150 158 q 185 424 150 344 q 278 562 219 504 q 411 652 336 619 q 567 685 486 685 q 738 659 664 685 q 875 582 813 633 l 907 657 m 611 -11 q 706 7 661 -11 q 783 59 750 25 q 834 142 815 93 q 853 250 853 190 q 834 361 853 313 q 783 444 815 410 q 706 496 750 478 q 611 514 661 514 q 517 496 561 514 q 440 444 472 478 q 388 361 407 410 q 369 250 369 313 q 388 142 369 190 q 440 59 407 93 q 517 7 472 25 q 611 -11 561 -11 z "},"ｒ":{"ha":1250,"x_min":332,"x_max":917,"o":"m 543 567 q 624 633 572 610 q 744 657 675 657 l 917 657 l 882 488 l 708 488 q 648 472 676 488 q 598 428 619 456 q 564 367 576 401 q 551 294 551 332 l 551 -153 l 332 -153 l 332 657 l 524 657 l 543 567 z "},"ｓ":{"ha":1250,"x_min":268,"x_max":982,"o":"m 882 451 q 766 509 829 489 q 650 529 703 529 q 511 449 511 529 q 535 394 511 417 q 625 356 558 371 q 896 244 810 313 q 982 69 982 176 q 956 -47 982 3 q 885 -130 931 -97 q 774 -178 839 -162 q 631 -194 710 -194 q 434 -165 522 -194 q 268 -81 346 -135 l 347 74 q 465 3 400 29 q 606 -24 531 -24 q 729 -3 696 -24 q 763 67 763 18 q 724 135 763 108 q 614 181 686 161 q 465 229 526 204 q 366 285 404 254 q 310 358 328 317 q 292 454 292 399 q 315 555 292 510 q 383 632 339 600 q 488 681 426 664 q 624 699 549 699 q 728 691 682 699 q 815 669 775 683 q 888 637 854 656 q 951 596 921 618 l 882 451 z "},"ｔ":{"ha":1250,"x_min":325,"x_max":925,"o":"m 708 657 l 911 657 l 911 488 l 708 488 l 708 104 q 730 40 708 63 q 796 17 751 17 l 925 17 l 925 -153 l 704 -153 q 620 -139 660 -153 q 551 -99 581 -125 q 506 -34 522 -72 q 489 53 489 4 l 489 488 l 325 488 l 325 657 l 489 657 l 489 940 l 708 940 l 708 657 z "},"ｕ":{"ha":1250,"x_min":199,"x_max":1050,"o":"m 844 -68 q 790 -115 822 -94 q 719 -151 757 -136 q 642 -173 682 -165 q 565 -181 603 -181 q 422 -157 489 -181 q 306 -91 356 -133 q 227 12 256 -49 q 199 146 199 72 l 199 657 l 418 657 l 418 221 q 471 44 418 99 q 615 -11 524 -11 q 753 42 694 -11 q 831 190 813 96 l 831 657 l 1050 657 l 1050 -153 l 864 -153 l 844 -68 z "},"ｖ":{"ha":1250,"x_min":171,"x_max":1079,"o":"m 736 -153 l 514 -153 l 171 657 l 394 657 l 625 103 l 856 657 l 1079 657 l 736 -153 z "},"ｗ":{"ha":1250,"x_min":22,"x_max":1228,"o":"m 625 376 l 475 -153 l 281 -153 l 22 657 l 236 657 l 385 139 l 529 657 l 721 657 l 864 139 l 1014 657 l 1228 657 l 969 -153 l 775 -153 l 625 376 z "},"ｘ":{"ha":1250,"x_min":171,"x_max":1079,"o":"m 171 -153 l 497 261 l 185 657 l 439 657 l 625 421 l 811 657 l 1065 657 l 751 261 l 1079 -153 l 825 -153 l 625 100 l 425 -153 l 171 -153 z "},"ｙ":{"ha":1250,"x_min":199,"x_max":1050,"o":"m 831 -42 q 713 -126 785 -100 q 565 -153 642 -153 q 422 -127 489 -153 q 306 -56 356 -101 q 227 51 256 -11 q 199 188 199 114 l 199 657 l 418 657 l 418 249 q 471 72 418 126 q 615 17 524 17 q 753 69 694 17 q 831 210 813 122 l 831 657 l 1050 657 l 1050 -118 q 1021 -292 1050 -215 q 938 -424 992 -369 q 810 -509 885 -479 q 646 -542 736 -539 q 487 -526 563 -544 q 353 -466 411 -507 q 256 -362 294 -425 q 210 -211 218 -299 l 432 -211 q 484 -332 438 -290 q 614 -374 531 -374 q 772 -306 713 -374 q 831 -117 831 -239 l 831 -115 l 831 -42 z "},"ｚ":{"ha":1250,"x_min":233,"x_max":1017,"o":"m 233 -153 l 233 -11 l 717 489 l 264 489 l 264 658 l 988 658 l 988 518 l 501 15 l 1017 15 l 1017 -153 l 233 -153 z "},"｛":{"ha":1250,"x_min":625,"x_max":1151,"o":"m 625 481 q 742 526 707 488 q 778 644 778 564 l 778 724 q 803 841 778 789 q 878 931 829 893 q 996 989 926 968 q 1151 1011 1065 1010 l 1151 840 q 1074 829 1106 838 q 1022 804 1042 821 q 992 760 1001 788 q 983 693 983 733 l 983 611 q 953 476 983 528 q 843 394 924 425 q 953 312 924 363 q 983 178 983 261 l 983 96 q 992 28 983 56 q 1022 -15 1001 1 q 1074 -40 1042 -32 q 1151 -51 1106 -49 l 1151 -222 q 996 -200 1065 -221 q 878 -142 926 -179 q 803 -52 829 -104 q 778 65 778 0 l 778 144 q 742 263 778 225 q 625 308 707 301 l 625 481 z "},"｜":{"ha":1250,"x_min":515,"x_max":735,"o":"m 735 982 l 735 -194 l 515 -194 l 515 982 l 735 982 z "},"｝":{"ha":1250,"x_min":97,"x_max":624,"o":"m 624 308 q 506 263 542 301 q 471 144 471 225 l 471 65 q 445 -52 471 0 q 371 -142 419 -104 q 253 -200 322 -179 q 97 -222 183 -221 l 97 -51 q 175 -40 143 -49 q 227 -15 207 -32 q 256 28 247 1 q 265 96 265 56 l 265 178 q 272 253 265 219 q 295 313 279 286 q 338 359 311 339 q 406 394 365 379 q 294 476 324 425 q 265 611 265 528 l 265 693 q 256 760 265 733 q 227 804 247 788 q 175 829 207 821 q 97 840 143 838 l 97 1011 q 253 989 183 1010 q 371 931 322 968 q 445 841 419 893 q 471 724 471 789 l 471 644 q 506 526 471 564 q 624 481 542 488 l 624 308 z "},"￣":{"ha":1306,"x_min":17,"x_max":1289,"o":"m 17 958 l 17 1096 l 1289 1096 l 1289 958 l 17 958 z "},"ㄱ":{"ha":1250,"x_min":194,"x_max":1054,"o":"m 194 643 l 194 813 l 1054 813 l 1054 47 l 836 47 l 836 643 l 194 643 z "},"ㄲ":{"ha":1250,"x_min":154,"x_max":1096,"o":"m 574 743 l 574 813 l 1096 813 l 1096 47 l 876 47 l 876 629 l 622 629 l 622 47 l 404 47 l 404 560 l 154 560 l 154 743 l 574 743 z "},"ㄳ":{"ha":1250,"x_min":40,"x_max":1196,"o":"m 536 785 l 536 47 l 318 47 l 318 601 l 40 601 l 40 785 l 536 785 m 961 467 q 944 333 961 393 l 1196 174 l 1106 35 l 871 189 q 763 96 826 135 q 617 32 700 57 l 554 185 q 720 288 671 219 q 769 467 769 357 l 769 794 l 961 794 l 961 467 z "},"ㄴ":{"ha":1250,"x_min":194,"x_max":1054,"o":"m 1054 217 l 1054 47 l 194 47 l 194 813 l 413 813 l 413 217 l 1054 217 z "},"ㄵ":{"ha":1250,"x_min":47,"x_max":1189,"o":"m 1151 819 l 1151 679 l 954 679 l 954 467 q 938 333 954 393 l 1189 174 l 1099 35 l 864 189 q 756 96 819 135 q 610 32 693 57 l 547 185 q 713 288 664 219 q 763 467 763 357 l 763 679 l 549 679 l 549 819 l 1151 819 m 518 217 l 518 47 l 47 47 l 47 813 l 265 813 l 265 217 l 518 217 z "},"ㄶ":{"ha":1250,"x_min":68,"x_max":1182,"o":"m 497 217 l 497 47 l 68 47 l 68 813 l 286 813 l 286 217 l 497 217 m 1182 763 l 1182 607 l 535 607 l 535 763 l 758 763 l 758 850 l 961 850 l 961 763 l 1182 763 m 1150 279 q 1072 97 1150 160 q 860 33 994 33 q 647 97 725 33 q 569 279 569 160 q 647 462 569 399 q 860 525 725 525 q 1072 462 994 525 q 1150 279 1150 399 m 965 279 q 933 338 965 321 q 860 356 900 356 q 787 338 819 356 q 754 279 754 321 q 787 220 754 238 q 860 203 819 203 q 933 220 900 203 q 965 279 965 238 z "},"ㄷ":{"ha":1250,"x_min":188,"x_max":1061,"o":"m 406 643 l 406 217 l 1061 217 l 1061 47 l 188 47 l 188 813 l 1047 813 l 1047 643 l 406 643 z "},"ㄸ":{"ha":1250,"x_min":132,"x_max":1117,"o":"m 589 771 l 589 588 l 351 588 l 351 231 l 589 231 l 589 47 l 132 47 l 132 771 l 589 771 m 1103 813 l 1103 629 l 865 629 l 865 231 l 1117 231 l 1117 47 l 646 47 l 646 813 l 1103 813 z "},"ㄹ":{"ha":1250,"x_min":181,"x_max":1068,"o":"m 181 643 l 181 813 l 1040 813 l 1040 344 l 399 344 l 399 217 l 1068 217 l 1068 47 l 181 47 l 181 514 l 822 514 l 822 643 l 181 643 z "},"ㄺ":{"ha":1250,"x_min":104,"x_max":1146,"o":"m 104 646 l 104 813 l 604 813 l 604 347 l 308 347 l 308 214 l 632 214 l 632 47 l 104 47 l 104 511 l 400 511 l 400 646 l 104 646 m 1146 813 l 1146 47 l 926 47 l 926 629 l 672 629 l 672 813 l 1146 813 z "},"ㄻ":{"ha":1250,"x_min":97,"x_max":1153,"o":"m 1153 813 l 1153 47 l 639 47 l 639 813 l 1153 813 m 836 646 l 836 214 l 956 214 l 956 646 l 836 646 m 97 646 l 97 813 l 569 813 l 569 347 l 301 347 l 301 214 l 576 214 l 576 47 l 97 47 l 97 511 l 365 511 l 365 646 l 97 646 z "},"ㄼ":{"ha":1250,"x_min":97,"x_max":1153,"o":"m 836 601 l 956 601 l 956 815 l 1153 815 l 1153 47 l 639 47 l 639 815 l 836 815 l 836 601 m 97 646 l 97 813 l 569 813 l 569 347 l 301 347 l 301 214 l 576 214 l 576 47 l 97 47 l 97 511 l 365 511 l 365 646 l 97 646 m 956 214 l 956 436 l 836 436 l 836 214 l 956 214 z "},"ㄽ":{"ha":1250,"x_min":49,"x_max":1179,"o":"m 49 646 l 49 813 l 521 813 l 521 347 l 253 347 l 253 214 l 528 214 l 528 47 l 49 47 l 49 511 l 317 511 l 317 646 l 49 646 m 572 192 q 665 249 628 218 q 726 319 703 281 q 759 405 749 358 q 769 508 769 451 l 769 794 l 961 794 l 961 508 q 939 350 961 421 l 1179 160 l 1079 26 l 864 203 q 650 42 788 107 l 572 192 z "},"ㄾ":{"ha":1250,"x_min":90,"x_max":1158,"o":"m 850 647 l 850 511 l 1144 511 l 1144 346 l 850 346 l 850 214 l 1158 214 l 1158 47 l 632 47 l 632 813 l 1144 813 l 1144 647 l 850 647 m 90 646 l 90 813 l 563 813 l 563 347 l 294 347 l 294 214 l 569 214 l 569 47 l 90 47 l 90 511 l 358 511 l 358 646 l 90 646 z "},"ㄿ":{"ha":1250,"x_min":74,"x_max":1175,"o":"m 676 214 l 676 646 l 611 646 l 611 813 l 1175 813 l 1175 646 l 1110 646 l 1110 214 l 1175 214 l 1175 47 l 611 47 l 611 214 l 676 214 m 74 646 l 74 813 l 546 813 l 546 347 l 278 347 l 278 214 l 553 214 l 553 47 l 74 47 l 74 511 l 342 511 l 342 646 l 74 646 m 844 214 l 942 214 l 942 646 l 844 646 l 844 214 z "},"ㅀ":{"ha":1250,"x_min":74,"x_max":1175,"o":"m 74 646 l 74 813 l 546 813 l 546 347 l 278 347 l 278 214 l 553 214 l 553 47 l 74 47 l 74 511 l 342 511 l 342 646 l 74 646 m 1175 763 l 1175 607 l 597 607 l 597 763 l 786 763 l 786 850 l 989 850 l 989 763 l 1175 763 m 1157 279 q 1085 97 1157 160 q 888 33 1013 33 q 690 97 763 33 q 618 279 618 160 q 690 462 618 399 q 888 525 763 525 q 1085 462 1013 525 q 1157 279 1157 399 m 972 279 q 947 336 972 317 q 888 356 922 356 q 828 336 853 356 q 803 279 803 317 q 828 222 803 242 q 888 203 853 203 q 947 222 922 203 q 972 279 972 242 z "},"ㅁ":{"ha":1250,"x_min":194,"x_max":1054,"o":"m 1054 813 l 1054 47 l 194 47 l 194 813 l 1054 813 m 836 217 l 836 643 l 413 643 l 413 217 l 836 217 z "},"ㅂ":{"ha":1250,"x_min":194,"x_max":1054,"o":"m 1054 813 l 1054 47 l 194 47 l 194 813 l 413 813 l 413 600 l 836 600 l 836 813 l 1054 813 m 836 217 l 836 431 l 413 431 l 413 217 l 836 217 z "},"ㅃ":{"ha":1250,"x_min":131,"x_max":1119,"o":"m 832 613 l 943 613 l 943 813 l 1119 813 l 1119 47 l 657 47 l 657 813 l 832 813 l 832 613 m 307 586 l 418 586 l 418 771 l 593 771 l 593 47 l 131 47 l 131 771 l 307 771 l 307 586 m 943 217 l 943 444 l 832 444 l 832 217 l 943 217 m 418 217 l 418 418 l 307 418 l 307 217 l 418 217 z "},"ㅄ":{"ha":1250,"x_min":50,"x_max":1193,"o":"m 226 611 l 361 611 l 361 813 l 536 813 l 536 47 l 50 47 l 50 813 l 226 813 l 226 611 m 958 467 q 942 333 958 393 l 1193 174 l 1103 35 l 868 189 q 760 96 824 135 q 614 32 697 57 l 551 185 q 717 288 668 219 q 767 467 767 357 l 767 822 l 958 822 l 958 467 m 361 217 l 361 443 l 226 443 l 226 217 l 361 217 z "},"ㅅ":{"ha":1250,"x_min":156,"x_max":1085,"o":"m 731 563 q 717 439 731 494 l 1085 188 l 972 36 l 635 268 q 487 141 579 199 q 256 35 394 83 l 156 201 q 315 269 247 235 q 426 345 382 303 q 491 440 469 388 q 513 564 513 493 l 513 829 l 731 829 l 731 563 z "},"ㅆ":{"ha":1250,"x_min":81,"x_max":1164,"o":"m 518 571 l 518 543 l 746 393 q 765 572 765 468 l 765 829 l 969 829 l 969 571 q 963 447 969 504 q 942 340 957 389 l 1164 185 l 1044 50 l 860 175 q 758 81 818 122 q 618 6 699 40 l 499 149 q 587 188 547 167 q 657 238 626 210 l 485 349 q 381 182 451 253 q 193 63 310 111 l 81 207 q 183 258 139 228 q 256 331 226 288 q 299 433 285 374 q 314 572 314 492 l 314 829 l 518 829 l 518 571 z "},"ㅇ":{"ha":1250,"x_min":153,"x_max":1097,"o":"m 625 190 q 729 208 681 190 q 814 257 778 225 q 871 333 850 289 q 892 431 892 378 q 871 531 892 486 q 814 606 850 575 q 729 654 778 638 q 625 671 681 671 q 521 654 569 671 q 436 606 472 638 q 379 531 400 575 q 358 431 358 486 q 379 333 358 378 q 436 257 400 289 q 521 208 472 225 q 625 190 569 190 m 153 429 q 187 593 153 519 q 283 719 221 667 q 433 799 346 771 q 625 826 519 826 q 817 799 731 826 q 967 719 904 771 q 1063 593 1029 667 q 1097 429 1097 519 q 1063 267 1097 340 q 967 142 1029 194 q 817 62 904 90 q 625 33 731 33 q 433 62 519 33 q 283 142 346 90 q 187 267 221 194 q 153 429 153 340 z "},"ㅈ":{"ha":1250,"x_min":156,"x_max":1085,"o":"m 1063 813 l 1063 643 l 731 643 l 731 535 q 726 467 731 499 q 715 404 722 435 l 1085 188 l 972 36 l 624 242 q 477 131 567 181 q 256 35 388 81 l 156 201 q 315 265 247 235 q 426 331 382 294 q 491 417 469 368 q 513 536 513 465 l 513 643 l 181 643 l 181 813 l 1063 813 z "},"ㅉ":{"ha":1250,"x_min":85,"x_max":1164,"o":"m 503 144 q 581 176 546 160 q 644 213 617 193 l 478 317 q 374 172 443 233 q 193 63 304 110 l 85 203 q 187 249 143 224 q 258 311 231 274 q 300 403 286 349 q 314 538 314 457 l 314 643 l 111 643 l 111 813 l 1160 813 l 1160 643 l 969 643 l 969 536 q 949 340 969 425 l 1164 185 l 1044 50 l 867 175 q 763 83 825 124 q 618 6 701 42 l 503 144 m 746 360 q 760 439 756 396 q 765 538 765 482 l 765 643 l 518 643 l 518 550 q 518 528 518 539 q 517 507 518 518 l 746 360 z "},"ㅊ":{"ha":1250,"x_min":156,"x_max":1085,"o":"m 731 771 l 1063 771 l 1063 601 l 731 601 l 731 521 q 718 403 731 457 l 1085 188 l 972 36 l 628 239 q 481 131 572 181 q 256 35 390 82 l 156 201 q 315 263 247 235 q 426 324 382 290 q 491 405 469 358 q 513 522 513 451 l 513 601 l 181 601 l 181 771 l 513 771 l 513 879 l 731 879 l 731 771 z "},"ㅋ":{"ha":1250,"x_min":194,"x_max":1054,"o":"m 194 643 l 194 813 l 1054 813 l 1054 47 l 836 47 l 836 261 l 194 261 l 194 431 l 836 431 l 836 643 l 194 643 z "},"ㅌ":{"ha":1250,"x_min":188,"x_max":1061,"o":"m 406 643 l 406 514 l 1047 514 l 1047 344 l 406 344 l 406 217 l 1061 217 l 1061 47 l 188 47 l 188 813 l 1047 813 l 1047 643 l 406 643 z "},"ㅍ":{"ha":1250,"x_min":153,"x_max":1096,"o":"m 1096 47 l 153 47 l 153 217 l 292 217 l 292 643 l 153 643 l 153 813 l 1096 813 l 1096 643 l 957 643 l 957 217 l 1096 217 l 1096 47 m 510 217 l 739 217 l 739 643 l 510 643 l 510 217 z "},"ㅎ":{"ha":1250,"x_min":176,"x_max":1072,"o":"m 625 513 q 932 447 825 513 q 1039 272 1039 382 q 932 96 1039 160 q 625 32 825 32 q 318 96 425 32 q 211 272 211 160 q 318 447 211 382 q 625 513 425 513 m 733 771 l 1072 771 l 1072 601 l 176 601 l 176 771 l 515 771 l 515 879 l 733 879 l 733 771 m 625 369 q 549 363 585 369 q 488 345 514 357 q 445 315 461 333 q 429 272 429 297 q 445 229 429 247 q 488 199 461 211 q 549 180 514 186 q 625 174 585 174 q 700 180 664 174 q 763 199 736 186 q 805 229 789 211 q 821 272 821 247 q 805 315 821 297 q 762 345 789 333 q 699 363 735 357 q 625 369 664 369 z "},"ㅏ":{"ha":1250,"x_min":483,"x_max":822,"o":"m 701 572 l 822 572 l 822 403 l 701 403 l 701 -154 l 483 -154 l 483 1007 l 701 1007 l 701 572 z "},"ㅐ":{"ha":1250,"x_min":394,"x_max":925,"o":"m 394 -154 l 394 1007 l 594 1007 l 594 513 l 724 558 l 724 1007 l 925 1007 l 925 -154 l 724 -154 l 724 371 l 594 325 l 594 -154 l 394 -154 z "},"ㅑ":{"ha":1250,"x_min":483,"x_max":822,"o":"m 701 753 l 822 753 l 822 583 l 701 583 l 701 294 l 822 294 l 822 125 l 701 125 l 701 -154 l 483 -154 l 483 1007 l 701 1007 l 701 753 z "},"ㅒ":{"ha":1250,"x_min":394,"x_max":925,"o":"m 394 -154 l 394 1007 l 594 1007 l 594 725 l 724 769 l 724 1007 l 925 1007 l 925 -154 l 724 -154 l 724 124 l 594 79 l 594 -154 l 394 -154 m 594 267 l 724 311 l 724 582 l 594 538 l 594 267 z "},"ㅓ":{"ha":1250,"x_min":381,"x_max":869,"o":"m 869 -154 l 651 -154 l 651 381 l 381 288 l 381 475 l 651 568 l 651 1007 l 869 1007 l 869 -154 z "},"ㅔ":{"ha":1250,"x_min":219,"x_max":1029,"o":"m 513 -154 l 513 396 l 219 294 l 219 482 l 513 583 l 513 1007 l 713 1007 l 713 -154 l 513 -154 m 1029 -154 l 828 -154 l 828 1007 l 1029 1007 l 1029 -154 z "},"ㅕ":{"ha":1250,"x_min":381,"x_max":869,"o":"m 869 -154 l 651 -154 l 651 158 l 381 65 l 381 253 l 651 346 l 651 589 l 381 496 l 381 683 l 651 776 l 651 1007 l 869 1007 l 869 -154 z "},"ㅖ":{"ha":1250,"x_min":219,"x_max":1029,"o":"m 513 -154 l 513 132 l 219 31 l 219 218 l 513 319 l 513 604 l 219 503 l 219 690 l 513 792 l 513 1007 l 713 1007 l 713 -154 l 513 -154 m 1029 -154 l 828 -154 l 828 1007 l 1029 1007 l 1029 -154 z "},"ㅗ":{"ha":1250,"x_min":74,"x_max":1176,"o":"m 74 307 l 515 307 l 515 785 l 733 785 l 733 307 l 1176 307 l 1176 138 l 74 138 l 74 307 z "},"ㅘ":{"ha":1250,"x_min":38,"x_max":1214,"o":"m 1093 572 l 1214 572 l 1214 403 l 1093 403 l 1093 -154 l 875 -154 l 875 1007 l 1093 1007 l 1093 572 m 293 43 l 293 299 l 511 299 l 511 43 l 793 43 l 793 -125 l 38 -125 l 38 43 l 293 43 z "},"ㅙ":{"ha":1250,"x_min":39,"x_max":1207,"o":"m 704 -154 l 704 1007 l 904 1007 l 904 513 l 1006 549 l 1006 1007 l 1207 1007 l 1207 -154 l 1006 -154 l 1006 361 l 904 325 l 904 -154 l 704 -154 m 226 43 l 226 297 l 444 297 l 444 43 l 638 43 l 638 -125 l 39 -125 l 39 43 l 226 43 z "},"ㅚ":{"ha":1250,"x_min":83,"x_max":1167,"o":"m 1167 -154 l 949 -154 l 949 1007 l 1167 1007 l 1167 -154 m 353 43 l 353 299 l 571 299 l 571 43 l 867 43 l 867 -125 l 83 -125 l 83 43 l 353 43 z "},"ㅛ":{"ha":1250,"x_min":72,"x_max":1176,"o":"m 72 307 l 293 307 l 293 785 l 511 785 l 511 307 l 738 307 l 738 785 l 956 785 l 956 307 l 1176 307 l 1176 138 l 72 138 l 72 307 z "},"ㅜ":{"ha":1250,"x_min":72,"x_max":1176,"o":"m 72 700 l 1176 700 l 1176 531 l 733 531 l 733 94 l 515 94 l 515 531 l 72 531 l 72 700 z "},"ㅝ":{"ha":1250,"x_min":83,"x_max":1167,"o":"m 949 103 l 949 1007 l 1167 1007 l 1167 -154 l 949 -154 l 949 -65 l 661 -65 l 661 103 l 949 103 m 353 -154 l 353 188 l 83 188 l 83 357 l 867 357 l 867 188 l 571 188 l 571 -154 l 353 -154 z "},"ㅞ":{"ha":1250,"x_min":39,"x_max":1211,"o":"m 718 -154 l 718 -65 l 519 -65 l 519 103 l 718 103 l 718 1007 l 918 1007 l 918 -154 l 718 -154 m 1211 -154 l 1010 -154 l 1010 1007 l 1211 1007 l 1211 -154 m 246 -154 l 246 188 l 39 188 l 39 357 l 651 357 l 651 188 l 446 188 l 446 -154 l 246 -154 z "},"ㅟ":{"ha":1250,"x_min":83,"x_max":1167,"o":"m 1167 -154 l 949 -154 l 949 1007 l 1167 1007 l 1167 -154 m 353 -154 l 353 167 l 83 167 l 83 336 l 867 336 l 867 167 l 571 167 l 571 -154 l 353 -154 z "},"ㅠ":{"ha":1250,"x_min":72,"x_max":1176,"o":"m 279 94 l 279 531 l 72 531 l 72 700 l 1176 700 l 1176 531 l 969 531 l 969 94 l 751 94 l 751 531 l 497 531 l 497 94 l 279 94 z "},"ㅡ":{"ha":1250,"x_min":72,"x_max":1176,"o":"m 72 15 l 1176 15 l 1176 -154 l 72 -154 l 72 15 z "},"ㅢ":{"ha":1250,"x_min":83,"x_max":1167,"o":"m 867 43 l 867 -125 l 83 -125 l 83 43 l 867 43 m 1167 -154 l 949 -154 l 949 1007 l 1167 1007 l 1167 -154 z "},"ㅣ":{"ha":1250,"x_min":515,"x_max":733,"o":"m 733 -154 l 515 -154 l 515 1007 l 733 1007 l 733 -154 z "},"ㅤ":{"ha":1306,"x_min":0,"x_max":0,"o":""},"ㅥ":{"ha":1306,"x_min":200,"x_max":1106,"o":"m 200 94 l 200 801 l 414 801 l 414 265 l 622 265 l 622 94 l 200 94 m 679 94 l 679 801 l 893 801 l 893 265 l 1106 265 l 1106 94 l 679 94 z "},"ㅦ":{"ha":1306,"x_min":200,"x_max":1126,"o":"m 1119 801 l 1119 632 l 892 632 l 892 263 l 1126 263 l 1126 93 l 679 93 l 679 801 l 1119 801 m 200 94 l 200 801 l 414 801 l 414 265 l 622 265 l 622 94 l 200 94 z "},"ㅧ":{"ha":1306,"x_min":200,"x_max":1240,"o":"m 1031 511 q 1047 413 1031 458 q 1092 333 1064 368 q 1159 271 1121 297 q 1240 228 1197 244 l 1142 90 q 1022 155 1076 115 q 926 253 967 194 q 831 155 886 194 q 711 90 776 115 l 613 228 q 694 271 656 244 q 760 333 732 297 q 806 413 789 368 q 822 511 822 458 l 822 808 l 1031 808 l 1031 511 m 597 94 l 597 265 l 414 265 l 414 801 l 200 801 l 200 94 l 597 94 z "},"ㅨ":{"ha":1306,"x_min":119,"x_max":1190,"o":"m 544 94 l 864 824 l 1190 94 l 544 94 m 867 424 l 796 238 l 936 238 l 867 424 m 119 94 l 119 801 l 333 801 l 333 265 l 528 265 l 528 94 l 119 94 z "},"ㅩ":{"ha":1306,"x_min":47,"x_max":1326,"o":"m 601 94 l 601 632 l 457 632 l 457 801 l 814 801 l 814 258 q 914 389 885 313 q 943 560 943 465 l 943 808 l 1150 808 l 1150 560 q 1189 367 1150 453 q 1326 229 1228 282 l 1226 92 q 1115 167 1157 125 q 1046 257 1074 210 q 976 167 1018 210 q 867 92 935 125 l 814 164 l 814 94 l 601 94 m 47 94 l 47 533 l 217 533 l 217 632 l 47 632 l 47 801 l 421 801 l 421 361 l 253 361 l 253 264 l 461 264 l 461 94 l 47 94 z "},"ㅪ":{"ha":1306,"x_min":158,"x_max":1156,"o":"m 158 94 l 158 533 l 408 533 l 408 632 l 158 632 l 158 801 l 619 801 l 619 361 l 371 361 l 371 264 l 633 264 l 633 94 l 158 94 m 1140 801 l 1140 632 l 894 632 l 894 263 l 1156 263 l 1156 93 l 682 93 l 682 801 l 1140 801 z "},"ㅫ":{"ha":1306,"x_min":47,"x_max":1326,"o":"m 825 801 l 825 267 q 917 395 892 321 q 943 560 943 469 l 943 808 l 1150 808 l 1150 560 q 1189 367 1150 453 q 1326 229 1228 282 l 1226 92 q 1115 167 1157 125 q 1046 257 1074 210 q 976 167 1018 210 q 867 92 935 125 l 825 149 l 825 93 l 451 93 l 451 801 l 619 801 l 619 586 l 657 586 l 657 801 l 825 801 m 47 94 l 47 533 l 217 533 l 217 632 l 47 632 l 47 801 l 421 801 l 421 361 l 253 361 l 253 264 l 428 264 l 428 94 l 47 94 m 657 254 l 657 424 l 619 424 l 619 254 l 657 254 z "},"ㅬ":{"ha":1306,"x_min":133,"x_max":1232,"o":"m 586 94 l 907 822 l 1232 94 l 586 94 m 910 424 l 839 236 l 979 236 l 910 424 m 133 94 l 133 533 l 365 533 l 365 632 l 133 632 l 133 801 l 578 801 l 578 361 l 347 361 l 347 264 l 578 264 l 578 94 l 133 94 z "},"ㅭ":{"ha":1306,"x_min":136,"x_max":1168,"o":"m 899 81 q 717 151 782 81 q 653 338 653 221 q 669 442 653 394 q 718 524 686 490 q 795 578 750 558 q 899 597 840 597 q 1002 578 957 597 q 1079 524 1047 558 q 1128 442 1111 490 q 1144 338 1144 394 q 1080 151 1144 222 q 899 81 1015 81 m 899 435 q 856 406 868 435 q 844 338 844 378 q 856 269 844 296 q 899 242 868 242 q 941 269 929 242 q 953 338 953 296 q 941 406 953 378 q 899 435 929 435 m 626 632 l 626 801 l 1168 801 l 1168 632 l 626 632 m 136 94 l 136 533 l 381 533 l 381 632 l 136 632 l 136 801 l 593 801 l 593 361 l 350 361 l 350 264 l 601 264 l 601 94 l 136 94 z "},"ㅮ":{"ha":1306,"x_min":154,"x_max":1150,"o":"m 154 94 l 154 801 l 622 801 l 622 94 l 154 94 m 881 606 l 951 606 l 951 801 l 1150 801 l 1150 94 l 682 94 l 682 801 l 881 801 l 881 606 m 421 642 l 356 642 l 356 254 l 421 254 l 421 642 m 951 443 l 881 443 l 881 254 l 951 254 l 951 443 z "},"ㅯ":{"ha":1306,"x_min":140,"x_max":1240,"o":"m 600 94 l 600 801 l 140 801 l 140 94 l 600 94 m 1031 511 q 1047 413 1031 458 q 1092 333 1064 368 q 1159 271 1121 297 q 1240 228 1197 244 l 1142 90 q 1022 156 1076 115 q 926 254 967 196 q 831 156 886 196 q 711 90 776 115 l 613 228 q 694 271 656 244 q 760 333 732 297 q 806 413 789 368 q 822 511 822 458 l 822 808 l 1031 808 l 1031 511 m 404 254 l 338 254 l 338 642 l 404 642 l 404 254 z "},"ㅰ":{"ha":1306,"x_min":126,"x_max":1243,"o":"m 604 94 l 921 822 l 1243 94 l 604 94 m 924 422 l 851 236 l 994 236 l 924 422 m 126 94 l 126 801 l 586 801 l 586 94 l 126 94 m 390 642 l 324 642 l 324 254 l 390 254 l 390 642 z "},"ㅱ":{"ha":1306,"x_min":301,"x_max":1003,"o":"m 301 442 l 301 940 l 1003 940 l 1003 442 l 301 442 m 790 771 l 514 771 l 514 610 l 790 610 l 790 771 m 653 -47 q 550 -32 596 -47 q 472 12 504 -17 q 424 78 440 40 q 407 163 407 117 q 424 245 407 207 q 472 312 440 283 q 550 356 504 340 q 653 372 596 372 q 756 356 710 372 q 833 312 801 340 q 882 245 865 283 q 899 163 899 207 q 882 78 899 117 q 833 13 865 40 q 756 -31 801 -15 q 653 -47 710 -47 m 653 217 q 607 201 622 217 q 592 163 592 186 q 607 123 592 139 q 653 107 622 107 q 699 123 683 107 q 714 163 714 139 q 699 201 714 186 q 653 217 683 217 z "},"ㅲ":{"ha":1306,"x_min":154,"x_max":1147,"o":"m 353 606 l 424 606 l 424 801 l 622 801 l 622 94 l 154 94 l 154 801 l 353 801 l 353 606 m 935 94 l 935 632 l 681 632 l 681 801 l 1147 801 l 1147 94 l 935 94 m 424 443 l 353 443 l 353 254 l 424 254 l 424 443 z "},"ㅳ":{"ha":1306,"x_min":154,"x_max":1147,"o":"m 353 606 l 424 606 l 424 801 l 622 801 l 622 94 l 154 94 l 154 801 l 353 801 l 353 606 m 1140 801 l 1140 632 l 892 632 l 892 263 l 1147 263 l 1147 93 l 679 93 l 679 801 l 1140 801 m 424 443 l 353 443 l 353 254 l 424 254 l 424 443 z "},"ㅴ":{"ha":1306,"x_min":49,"x_max":1257,"o":"m 433 801 l 433 225 q 559 368 524 281 q 594 560 594 456 l 594 808 l 796 808 l 796 558 q 834 364 796 450 q 974 219 872 278 l 878 85 q 777 153 819 115 q 692 253 735 190 q 622 162 663 204 q 514 85 581 119 l 433 197 l 433 93 l 49 93 l 49 801 l 218 801 l 218 586 l 264 586 l 264 801 l 433 801 m 1044 94 l 1044 632 l 867 632 l 867 801 l 1257 801 l 1257 94 l 1044 94 m 264 254 l 264 424 l 218 424 l 218 254 l 264 254 z "},"ㅵ":{"ha":1306,"x_min":49,"x_max":1283,"o":"m 424 801 l 424 254 q 527 386 500 310 q 554 560 554 463 l 554 808 l 756 808 l 756 558 q 760 469 756 511 q 779 388 765 426 q 817 317 793 350 q 881 256 842 285 l 881 801 l 1271 801 l 1271 632 l 1088 632 l 1088 263 l 1283 263 l 1283 93 l 881 93 l 881 165 l 831 94 q 735 161 774 125 q 653 254 696 197 q 585 168 624 207 q 481 94 547 129 l 424 175 l 424 93 l 49 93 l 49 801 l 218 801 l 218 589 l 254 589 l 254 801 l 424 801 m 254 257 l 254 424 l 218 424 l 218 257 l 254 257 z "},"ㅶ":{"ha":1306,"x_min":135,"x_max":1211,"o":"m 333 606 l 403 606 l 403 801 l 601 801 l 601 94 l 135 94 l 135 801 l 333 801 l 333 606 m 1183 632 l 1021 632 l 1021 511 q 1073 337 1021 404 q 1211 233 1125 269 l 1114 99 q 1002 161 1049 126 q 917 253 956 196 q 831 161 876 196 q 719 99 785 126 l 622 233 q 760 337 708 269 q 813 511 813 404 l 813 632 l 650 632 l 650 801 l 1183 801 l 1183 632 m 403 443 l 333 443 l 333 254 l 403 254 l 403 443 z "},"ㅷ":{"ha":1306,"x_min":154,"x_max":1147,"o":"m 353 606 l 424 606 l 424 801 l 622 801 l 622 94 l 154 94 l 154 801 l 353 801 l 353 606 m 1126 365 l 892 365 l 892 263 l 1147 263 l 1147 94 l 681 94 l 681 801 l 1140 801 l 1140 633 l 892 633 l 892 535 l 1126 535 l 1126 365 m 424 443 l 353 443 l 353 254 l 424 254 l 424 443 z "},"ㅸ":{"ha":1306,"x_min":301,"x_max":1003,"o":"m 1003 954 l 1003 442 l 301 442 l 301 954 l 511 954 l 511 854 l 793 854 l 793 954 l 1003 954 m 653 -47 q 550 -32 596 -47 q 472 12 504 -17 q 424 78 440 40 q 407 163 407 117 q 424 245 407 207 q 472 312 440 283 q 550 356 504 340 q 653 372 596 372 q 756 356 710 372 q 833 312 801 340 q 882 245 865 283 q 899 163 899 207 q 882 78 899 117 q 833 13 865 40 q 756 -31 801 -15 q 653 -47 710 -47 m 793 610 l 793 686 l 511 686 l 511 610 l 793 610 m 653 217 q 607 201 622 217 q 592 163 592 186 q 607 123 592 139 q 653 107 622 107 q 699 123 683 107 q 714 163 714 139 q 699 201 714 186 q 653 217 683 217 z "},"ㅹ":{"ha":1306,"x_min":199,"x_max":1106,"o":"m 386 846 l 439 846 l 439 954 l 625 954 l 625 442 l 199 442 l 199 954 l 386 954 l 386 846 m 867 846 l 919 846 l 919 954 l 1106 954 l 1106 442 l 679 442 l 679 954 l 867 954 l 867 846 m 653 -47 q 550 -32 596 -47 q 472 12 504 -17 q 424 78 440 40 q 407 163 407 117 q 424 245 407 207 q 472 312 440 283 q 550 356 504 340 q 653 372 596 372 q 756 356 710 372 q 833 312 801 340 q 882 245 865 283 q 899 163 899 207 q 882 78 899 117 q 833 13 865 40 q 756 -31 801 -15 q 653 -47 710 -47 m 653 217 q 607 201 622 217 q 592 163 592 186 q 607 123 592 139 q 653 107 622 107 q 699 123 683 107 q 714 163 714 139 q 699 201 714 186 q 653 217 683 217 m 439 686 l 386 686 l 386 601 l 439 601 l 439 686 m 919 686 l 867 686 l 867 601 l 919 601 l 919 686 z "},"ㅺ":{"ha":1306,"x_min":106,"x_max":1125,"o":"m 539 507 q 596 335 539 403 q 764 218 653 267 l 667 81 q 536 149 594 108 q 435 249 478 190 q 203 81 349 135 l 106 218 q 274 335 217 267 q 331 507 331 403 l 331 808 l 539 808 l 539 507 m 1125 94 l 1125 801 l 636 801 l 636 632 l 913 632 l 913 94 l 1125 94 z "},"ㅻ":{"ha":1306,"x_min":93,"x_max":1197,"o":"m 511 511 q 526 414 511 458 q 569 334 542 369 q 632 273 596 299 q 711 231 668 247 l 613 93 q 497 158 547 119 q 407 254 447 196 q 312 156 367 196 q 192 90 257 115 l 93 228 q 174 271 136 244 q 241 333 213 297 q 286 413 269 368 q 303 511 303 458 l 303 808 l 511 808 l 511 511 m 1197 94 l 1197 265 l 946 265 l 946 801 l 732 801 l 732 94 l 1197 94 z "},"ㅼ":{"ha":1306,"x_min":93,"x_max":1190,"o":"m 732 801 l 732 93 l 1190 93 l 1190 263 l 939 263 l 939 632 l 1183 632 l 1183 801 l 732 801 m 511 511 q 526 414 511 458 q 569 334 542 369 q 632 273 596 299 q 711 231 668 247 l 613 93 q 497 158 547 119 q 407 254 447 196 q 312 156 367 196 q 192 90 257 115 l 93 228 q 174 271 136 244 q 241 333 213 297 q 286 413 269 368 q 303 511 303 458 l 303 808 l 511 808 l 511 511 z "},"ㅽ":{"ha":1306,"x_min":93,"x_max":1192,"o":"m 928 801 l 732 801 l 732 94 l 1192 94 l 1192 801 l 996 801 l 996 606 l 928 606 l 928 801 m 511 511 q 526 414 511 458 q 569 334 542 369 q 632 273 596 299 q 711 231 668 247 l 613 93 q 497 158 547 119 q 407 254 447 196 q 312 156 367 196 q 192 90 257 115 l 93 228 q 174 271 136 244 q 241 333 213 297 q 286 413 269 368 q 303 511 303 458 l 303 808 l 511 808 l 511 511 m 996 254 l 928 254 l 928 443 l 996 443 l 996 254 z "},"ㅾ":{"ha":1306,"x_min":38,"x_max":1244,"o":"m 469 511 q 483 415 469 457 q 520 341 497 374 q 574 284 543 308 q 640 242 606 260 q 706 284 675 260 q 761 341 738 308 q 799 415 785 374 q 813 511 813 457 l 813 632 l 650 632 l 650 801 l 1183 801 l 1183 632 l 1021 632 l 1021 511 q 1040 400 1021 447 q 1090 318 1058 353 q 1161 260 1121 283 q 1244 219 1201 236 l 1146 82 q 1013 153 1069 110 q 917 254 957 196 q 688 82 835 138 l 640 146 l 594 82 q 462 153 518 110 q 365 254 406 196 q 136 82 283 138 l 38 219 q 121 260 81 236 q 192 318 161 283 q 242 400 224 353 q 261 511 261 447 l 261 808 l 469 808 l 469 511 z "},"ㅿ":{"ha":1306,"x_min":186,"x_max":1115,"o":"m 186 93 l 653 853 l 1115 93 l 186 93 m 653 521 l 489 244 l 807 244 l 653 521 z "},"ㆀ":{"ha":1306,"x_min":133,"x_max":1169,"o":"m 133 444 q 153 565 133 513 q 208 651 174 617 q 287 702 242 685 q 382 719 332 719 q 478 702 433 719 q 557 651 524 685 q 610 565 590 617 q 629 444 629 513 q 610 324 629 375 q 557 239 590 274 q 478 188 524 204 q 382 171 433 171 q 287 188 332 171 q 208 239 242 204 q 153 324 174 274 q 133 444 133 375 m 442 444 q 428 528 442 494 q 382 561 414 561 q 336 528 350 561 q 322 446 322 494 q 336 360 322 394 q 382 326 350 326 q 428 360 414 326 q 442 444 442 394 m 674 444 q 694 565 674 513 q 748 651 714 617 q 827 702 782 685 q 922 719 872 719 q 1019 702 974 719 q 1097 651 1064 685 q 1150 565 1131 617 q 1169 444 1169 513 q 1150 324 1169 375 q 1097 239 1131 274 q 1019 188 1064 204 q 922 171 974 171 q 827 188 872 171 q 748 239 782 204 q 694 324 714 274 q 674 444 674 375 m 982 444 q 968 528 982 494 q 922 561 954 561 q 876 528 890 561 q 863 446 863 494 q 876 360 863 394 q 922 326 890 326 q 968 360 954 326 q 982 444 982 394 z "},"ㆁ":{"ha":1306,"x_min":265,"x_max":1043,"o":"m 265 419 q 287 545 265 489 q 347 644 308 601 q 437 715 385 686 q 550 756 489 743 l 550 864 l 757 864 l 757 756 q 870 715 818 743 q 961 644 922 688 q 1022 545 1000 601 q 1043 419 1043 489 q 1013 271 1043 336 q 928 162 982 206 q 804 95 875 118 q 653 72 733 72 q 502 95 572 72 q 379 163 432 118 q 296 272 326 207 q 265 419 265 336 m 849 419 q 796 553 849 504 q 653 603 743 603 q 513 553 567 603 q 460 421 460 504 q 513 285 460 335 q 653 236 567 236 q 796 285 743 236 q 849 419 849 335 z "},"ㆂ":{"ha":1306,"x_min":86,"x_max":1253,"o":"m 86 419 q 133 635 86 549 q 274 751 179 721 l 274 864 l 481 864 l 481 751 q 622 635 575 721 q 668 419 668 550 q 595 165 668 258 q 376 72 522 72 q 159 165 232 72 q 86 419 86 258 m 1057 511 q 1072 415 1057 458 q 1115 335 1088 371 q 1177 274 1142 300 q 1253 231 1213 249 l 1154 93 q 1041 158 1089 121 q 953 254 993 196 q 865 158 913 196 q 751 93 817 121 l 653 231 q 728 274 693 249 q 791 335 764 300 q 833 415 818 371 q 849 511 849 458 l 849 808 l 1057 808 l 1057 511 m 475 419 q 453 553 475 501 q 376 606 432 606 q 301 554 324 606 q 279 421 279 503 q 301 285 279 338 q 376 233 324 233 q 453 285 432 233 q 475 419 475 338 z "},"ㆃ":{"ha":1306,"x_min":58,"x_max":1258,"o":"m 58 419 q 105 635 58 549 q 246 751 151 721 l 246 864 l 453 864 l 453 751 q 594 635 547 721 q 640 419 640 550 q 567 165 640 258 q 349 72 494 72 q 131 165 204 72 q 58 419 58 258 m 615 94 l 935 822 l 1258 94 l 615 94 m 447 419 q 426 553 447 501 q 349 606 404 606 q 274 554 296 606 q 251 421 251 503 q 274 285 251 338 q 349 233 296 233 q 426 285 404 233 q 447 419 447 338 m 938 428 l 861 236 l 1011 236 l 938 428 z "},"ㆄ":{"ha":1306,"x_min":254,"x_max":1050,"o":"m 254 442 l 254 614 l 386 614 l 364 729 l 574 754 l 599 614 l 717 614 l 743 754 l 953 729 l 931 614 l 1050 614 l 1050 442 l 254 442 m 653 -47 q 550 -32 596 -47 q 472 12 504 -17 q 424 78 440 40 q 407 163 407 117 q 424 245 407 207 q 472 312 440 283 q 550 356 504 340 q 653 372 596 372 q 756 356 710 372 q 833 312 801 340 q 882 245 865 283 q 899 163 899 207 q 882 78 899 117 q 833 13 865 40 q 756 -31 801 -15 q 653 -47 710 -47 m 282 782 l 282 954 l 1022 954 l 1022 782 l 282 782 m 653 217 q 607 201 622 217 q 592 163 592 186 q 607 123 592 139 q 653 107 622 107 q 699 123 683 107 q 714 163 714 139 q 699 201 714 186 q 653 217 683 217 z "},"ㆅ":{"ha":1306,"x_min":72,"x_max":1232,"o":"m 188 682 l 188 849 l 528 849 l 528 682 l 188 682 m 72 489 l 72 656 l 638 656 l 638 489 l 72 489 m 358 69 q 177 124 242 69 q 113 269 113 178 q 177 415 113 360 q 358 469 242 469 q 540 415 475 469 q 604 269 604 360 q 540 124 604 178 q 358 69 475 69 m 358 322 q 299 269 299 322 q 315 230 299 246 q 358 214 331 214 q 402 230 386 214 q 418 269 418 246 q 358 322 418 322 m 778 682 l 778 849 l 1118 849 l 1118 682 l 778 682 m 667 489 l 667 656 l 1232 656 l 1232 489 l 667 489 m 949 69 q 767 124 832 69 q 703 269 703 178 q 767 415 703 360 q 949 469 832 469 q 1130 415 1065 469 q 1194 269 1194 360 q 1130 124 1194 178 q 949 69 1065 69 m 949 322 q 889 269 889 322 q 905 230 889 246 q 949 214 921 214 q 992 230 976 214 q 1008 269 1008 246 q 949 322 1008 322 z "},"ㆆ":{"ha":1306,"x_min":243,"x_max":1063,"o":"m 243 632 l 243 801 l 1063 801 l 1063 632 l 243 632 m 307 331 q 397 521 307 453 q 653 589 488 589 q 910 522 819 589 q 1000 331 1000 454 q 910 140 1000 207 q 653 72 819 72 q 397 140 488 72 q 307 331 307 208 m 801 331 q 767 403 801 376 q 653 431 733 431 q 540 403 575 431 q 506 332 506 376 q 540 258 506 285 q 653 231 575 231 q 767 258 733 231 q 801 331 801 285 z "},"ㆇ":{"ha":1306,"x_min":10,"x_max":1296,"o":"m 1113 792 l 1296 792 l 1296 619 l 1113 619 l 1113 389 l 1296 389 l 1296 217 l 1113 217 l 1113 -224 l 897 -224 l 897 1075 l 1113 1075 l 1113 792 m 869 72 q 453 30 660 44 q 36 15 246 15 l 10 186 q 100 187 54 186 q 192 189 146 188 l 192 586 l 406 586 l 406 199 q 441 201 424 200 q 478 203 458 201 l 478 586 l 692 586 l 692 222 q 766 231 729 226 q 840 240 803 235 l 869 72 z "},"ㆈ":{"ha":1306,"x_min":10,"x_max":1211,"o":"m 944 792 l 1003 792 l 1003 1075 l 1211 1075 l 1211 -228 l 1003 -228 l 1003 219 l 944 219 l 944 -178 l 738 -178 l 738 1047 l 944 1047 l 944 792 m 711 50 q 376 25 538 35 q 36 13 214 15 l 10 185 q 60 185 35 185 q 111 186 86 186 l 111 586 l 325 586 l 325 194 q 356 197 340 196 q 389 199 372 197 l 389 586 l 603 586 l 603 213 q 643 217 622 215 q 685 221 664 218 l 711 50 m 944 390 l 1003 390 l 1003 621 l 944 621 l 944 390 z "},"ㆉ":{"ha":1306,"x_min":38,"x_max":1182,"o":"m 925 72 q 494 30 715 44 q 64 15 274 15 l 38 186 q 130 187 83 186 q 224 189 176 188 l 224 585 l 438 585 l 438 197 q 493 201 465 200 q 549 204 521 201 l 549 585 l 763 585 l 763 224 l 896 240 l 925 72 m 1182 -224 l 967 -224 l 967 1075 l 1182 1075 l 1182 -224 z "},"ㆊ":{"ha":1306,"x_min":38,"x_max":1182,"o":"m 240 -208 l 240 356 q 151 354 196 354 q 64 354 107 354 l 38 525 q 469 539 249 526 q 896 579 690 551 l 925 411 q 842 400 883 404 q 757 390 800 396 l 757 -208 l 543 -208 l 543 371 q 498 369 519 369 q 454 365 476 368 l 454 -208 l 240 -208 m 967 114 l 967 172 l 815 172 l 815 344 l 967 344 l 967 1075 l 1182 1075 l 1182 -224 l 967 -224 l 967 -58 l 815 -58 l 815 114 l 967 114 z "},"ㆋ":{"ha":1306,"x_min":10,"x_max":1211,"o":"m 136 -154 l 136 358 q 86 358 111 358 q 36 357 61 357 l 10 528 q 344 537 175 529 q 682 560 514 544 l 708 393 q 655 388 681 390 q 603 383 629 386 l 603 -154 l 392 -154 l 392 369 q 369 368 381 368 q 347 367 358 368 l 347 -154 l 136 -154 m 751 115 l 751 174 l 660 174 l 660 346 l 751 346 l 751 1047 l 958 1047 l 958 -164 l 751 -164 l 751 -57 l 660 -57 l 660 115 l 751 115 m 1003 -228 l 1003 1075 l 1211 1075 l 1211 -228 l 1003 -228 z "},"ㆌ":{"ha":1306,"x_min":38,"x_max":1182,"o":"m 240 -208 l 240 217 q 151 215 196 215 q 64 215 107 215 l 38 386 q 469 400 249 388 q 896 440 690 413 l 925 272 q 842 261 883 265 q 757 251 800 257 l 757 -208 l 543 -208 l 543 232 q 498 230 519 231 q 454 226 476 229 l 454 -208 l 240 -208 m 1182 -224 l 967 -224 l 967 1075 l 1182 1075 l 1182 -224 z "},"ㆍ":{"ha":1306,"x_min":494,"x_max":810,"o":"m 810 446 q 798 384 810 413 q 765 335 786 356 q 715 303 743 315 q 653 292 686 292 q 590 303 619 292 q 540 335 561 315 q 506 384 518 356 q 494 446 494 413 q 540 558 494 514 q 653 601 585 601 q 715 590 686 601 q 765 557 743 578 q 798 508 786 536 q 810 446 810 479 z "},"ㆎ":{"ha":1306,"x_min":336,"x_max":981,"o":"m 608 456 q 569 359 608 397 q 472 321 531 321 q 375 359 414 321 q 336 456 336 397 q 375 551 336 514 q 472 589 414 589 q 569 551 531 589 q 608 456 608 514 m 981 -224 l 765 -224 l 765 1075 l 981 1075 l 981 -224 z "},"ⅰ":{"ha":1306,"x_min":550,"x_max":756,"o":"m 550 663 l 756 663 l 756 -68 l 550 -68 l 550 663 m 756 736 l 550 736 l 550 946 l 756 946 l 756 736 z "},"ⅱ":{"ha":1306,"x_min":383,"x_max":922,"o":"m 383 663 l 589 663 l 589 -68 l 383 -68 l 383 663 m 589 736 l 383 736 l 383 946 l 589 946 l 589 736 m 717 663 l 922 663 l 922 -68 l 717 -68 l 717 663 m 922 736 l 717 736 l 717 946 l 922 946 l 922 736 z "},"ⅲ":{"ha":1306,"x_min":217,"x_max":1089,"o":"m 217 663 l 422 663 l 422 -68 l 217 -68 l 217 663 m 422 736 l 217 736 l 217 946 l 422 946 l 422 736 m 550 663 l 756 663 l 756 -68 l 550 -68 l 550 663 m 756 736 l 550 736 l 550 946 l 756 946 l 756 736 m 883 663 l 1089 663 l 1089 -68 l 883 -68 l 883 663 m 1089 736 l 883 736 l 883 946 l 1089 946 l 1089 736 z "},"ⅳ":{"ha":1306,"x_min":199,"x_max":1176,"o":"m 660 663 l 814 207 l 974 663 l 1176 663 l 908 -68 l 718 -68 l 450 663 l 660 663 m 199 663 l 404 663 l 404 -68 l 199 -68 l 199 663 m 404 736 l 199 736 l 199 946 l 404 946 l 404 736 z "},"ⅴ":{"ha":1306,"x_min":289,"x_max":1015,"o":"m 499 663 l 653 207 l 813 663 l 1015 663 l 747 -68 l 557 -68 l 289 663 l 499 663 z "},"ⅵ":{"ha":1306,"x_min":129,"x_max":1103,"o":"m 339 663 l 493 207 l 653 663 l 856 663 l 588 -68 l 397 -68 l 129 663 l 339 663 m 897 663 l 1103 663 l 1103 -68 l 897 -68 l 897 663 m 1103 736 l 897 736 l 897 946 l 1103 946 l 1103 736 z "},"ⅶ":{"ha":1306,"x_min":71,"x_max":1197,"o":"m 278 664 l 406 222 l 531 663 l 733 663 l 499 -68 l 310 -68 l 71 664 l 278 664 m 999 663 l 1197 663 l 1197 -68 l 999 -68 l 999 663 m 763 663 l 961 663 l 961 -68 l 763 -68 l 763 663 m 1197 736 l 999 736 l 999 946 l 1197 946 l 1197 736 m 961 736 l 763 736 l 763 946 l 961 946 l 961 736 z "},"ⅷ":{"ha":1306,"x_min":54,"x_max":1207,"o":"m 240 663 l 306 275 l 374 663 l 556 663 l 406 -68 l 217 -68 l 54 663 l 240 663 m 800 663 l 989 663 l 989 -68 l 800 -68 l 800 663 m 1018 663 l 1207 663 l 1207 -68 l 1018 -68 l 1018 663 m 581 663 l 769 663 l 769 -68 l 581 -68 l 581 663 m 769 736 l 581 736 l 581 946 l 769 946 l 769 736 m 1207 736 l 1018 736 l 1018 946 l 1207 946 l 1207 736 m 989 736 l 800 736 l 800 946 l 989 946 l 989 736 z "},"ⅸ":{"ha":1306,"x_min":199,"x_max":1168,"o":"m 692 296 l 435 663 l 651 663 l 801 450 l 951 663 l 1168 663 l 910 296 l 1168 -68 l 949 -68 l 801 142 l 654 -68 l 435 -68 l 692 296 m 199 663 l 404 663 l 404 -68 l 199 -68 l 199 663 m 404 736 l 199 736 l 199 946 l 404 946 l 404 736 z "},"ⅹ":{"ha":1306,"x_min":289,"x_max":1022,"o":"m 546 296 l 289 663 l 506 663 l 656 450 l 806 663 l 1022 663 l 764 296 l 1022 -68 l 803 -68 l 656 142 l 508 -68 l 289 -68 l 546 296 z "},"Ⅰ":{"ha":1306,"x_min":546,"x_max":756,"o":"m 756 -67 l 546 -67 l 546 940 l 756 940 l 756 -67 z "},"Ⅱ":{"ha":1306,"x_min":379,"x_max":922,"o":"m 589 -67 l 379 -67 l 379 940 l 589 940 l 589 -67 m 922 -67 l 713 -67 l 713 940 l 922 940 l 922 -67 z "},"Ⅲ":{"ha":1306,"x_min":213,"x_max":1090,"o":"m 422 -67 l 213 -67 l 213 940 l 422 940 l 422 -67 m 757 -67 l 547 -67 l 547 940 l 757 940 l 757 -67 m 1090 -67 l 881 -67 l 881 940 l 1090 940 l 1090 -67 z "},"Ⅳ":{"ha":1306,"x_min":153,"x_max":1214,"o":"m 800 260 l 1004 939 l 1214 939 l 893 -68 l 713 -68 l 389 939 l 599 939 l 800 260 m 363 -67 l 153 -67 l 153 940 l 363 940 l 363 -67 z "},"Ⅴ":{"ha":1306,"x_min":235,"x_max":1068,"o":"m 650 260 l 851 939 l 1068 939 l 743 -68 l 563 -68 l 235 939 l 451 939 l 650 260 z "},"Ⅵ":{"ha":1306,"x_min":86,"x_max":1149,"o":"m 497 260 l 701 939 l 911 939 l 590 -68 l 410 -68 l 86 939 l 296 939 l 497 260 m 1149 -69 l 939 -69 l 939 939 l 1149 939 l 1149 -69 z "},"Ⅶ":{"ha":1306,"x_min":69,"x_max":1196,"o":"m 400 324 l 531 939 l 732 939 l 493 -68 l 308 -68 l 69 939 l 271 939 l 400 324 m 1196 -68 l 994 -68 l 994 939 l 1196 939 l 1196 -68 m 960 -68 l 758 -68 l 758 939 l 960 939 l 960 -68 z "},"Ⅷ":{"ha":1306,"x_min":39,"x_max":1200,"o":"m 289 406 l 358 939 l 543 939 l 383 -68 l 199 -68 l 39 939 l 222 939 l 289 406 m 1200 -68 l 1008 -68 l 1008 939 l 1200 939 l 1200 -68 m 981 -68 l 789 -68 l 789 939 l 981 939 l 981 -68 m 763 -68 l 571 -68 l 571 939 l 763 939 l 763 -68 z "},"Ⅸ":{"ha":1306,"x_min":167,"x_max":1219,"o":"m 694 435 l 397 939 l 622 939 l 807 626 l 993 939 l 1218 939 l 921 435 l 1219 -68 l 992 -68 l 807 243 l 624 -68 l 396 -68 l 694 435 m 376 -68 l 167 -68 l 167 939 l 376 939 l 376 -68 z "},"Ⅹ":{"ha":1306,"x_min":213,"x_max":1090,"o":"m 549 436 l 217 950 l 443 950 l 651 611 l 863 950 l 1089 950 l 756 436 l 1090 -76 l 863 -76 l 651 261 l 440 -76 l 213 -76 l 549 436 z "},"Α":{"ha":833,"x_min":-14,"x_max":844,"o":"m 321 939 l 511 939 l 844 -68 l 642 -68 l 565 169 l 263 169 l 190 -68 l -14 -68 l 321 939 m 314 329 l 519 329 l 415 658 l 314 329 z "},"Β":{"ha":792,"x_min":75,"x_max":761,"o":"m 382 939 q 522 924 460 939 q 626 878 583 910 q 692 796 669 846 q 715 675 715 746 q 694 558 715 608 q 607 467 672 507 q 724 371 686 433 q 761 229 761 308 q 738 92 761 149 q 672 1 715 36 q 568 -51 629 -35 q 431 -68 507 -68 l 75 -68 l 75 939 l 382 939 m 413 101 q 519 130 482 101 q 557 231 557 158 q 514 332 557 297 q 399 367 471 367 l 272 367 l 272 101 l 413 101 m 367 536 q 473 567 435 536 q 511 669 511 597 q 474 749 511 729 q 379 769 436 769 l 272 769 l 272 536 l 367 536 z "},"Γ":{"ha":736,"x_min":89,"x_max":704,"o":"m 89 -68 l 89 939 l 704 939 l 704 767 l 301 767 l 301 -68 l 89 -68 z "},"Δ":{"ha":889,"x_min":-1,"x_max":890,"o":"m -1 -68 l 383 939 l 528 939 l 890 -68 l -1 -68 m 450 603 l 267 101 l 621 101 l 450 603 z "},"Ε":{"ha":778,"x_min":75,"x_max":740,"o":"m 285 367 l 285 103 l 740 103 l 740 -68 l 75 -68 l 75 939 l 718 939 l 718 768 l 285 768 l 285 536 l 696 536 l 696 367 l 285 367 z "},"Ζ":{"ha":792,"x_min":18,"x_max":769,"o":"m 501 768 l 36 768 l 36 939 l 763 939 l 763 824 l 281 103 l 769 103 l 769 -68 l 18 -68 l 18 44 l 501 768 z "},"Η":{"ha":917,"x_min":75,"x_max":840,"o":"m 285 536 l 631 536 l 631 939 l 840 939 l 840 -68 l 631 -68 l 631 367 l 285 367 l 285 -68 l 75 -68 l 75 939 l 285 939 l 285 536 z "},"Θ":{"ha":972,"x_min":35,"x_max":938,"o":"m 486 -89 q 304 -55 388 -89 q 161 44 221 -21 q 68 206 101 110 q 35 425 35 301 q 67 651 35 553 q 160 817 100 750 q 303 918 219 883 q 486 953 386 953 q 669 918 586 953 q 813 817 753 883 q 905 651 872 750 q 938 425 938 553 q 904 206 938 301 q 811 44 871 110 q 668 -55 751 -21 q 486 -89 585 -89 m 486 788 q 375 760 422 788 q 297 683 328 732 q 252 569 267 635 q 238 425 238 503 q 253 283 238 347 q 301 174 269 219 q 378 103 332 128 q 486 78 425 78 q 594 103 547 78 q 672 174 640 128 q 719 283 703 219 q 735 425 735 347 q 720 569 735 503 q 675 683 706 635 q 597 760 644 732 q 486 788 550 788 m 278 339 l 278 508 l 694 508 l 694 339 l 278 339 z "},"Ι":{"ha":335,"x_min":61,"x_max":271,"o":"m 271 -68 l 61 -68 l 61 939 l 271 939 l 271 -68 z "},"Κ":{"ha":824,"x_min":75,"x_max":894,"o":"m 282 581 l 629 939 l 875 939 l 454 508 l 894 -68 l 651 -68 l 325 365 l 282 322 l 282 -68 l 75 -68 l 75 939 l 282 939 l 282 581 z "},"Λ":{"ha":833,"x_min":-4,"x_max":836,"o":"m 211 -68 l -4 -68 l 325 939 l 507 939 l 836 -68 l 621 -68 l 414 601 l 211 -68 z "},"Μ":{"ha":1083,"x_min":75,"x_max":1007,"o":"m 310 939 l 542 199 l 774 939 l 1007 939 l 1007 -68 l 817 -68 l 817 481 l 642 -68 l 442 -68 l 265 485 l 265 -68 l 75 -68 l 75 939 l 310 939 z "},"Ν":{"ha":924,"x_min":75,"x_max":853,"o":"m 853 -68 l 622 -68 l 274 613 l 274 -69 l 75 -69 l 75 939 l 307 939 l 654 263 l 654 939 l 853 939 l 853 -68 z "},"Ξ":{"ha":917,"x_min":88,"x_max":826,"o":"m 88 772 l 88 942 l 826 942 l 826 772 l 88 772 m 190 367 l 190 535 l 725 535 l 725 367 l 190 367 m 88 -69 l 88 100 l 826 100 l 826 -69 l 88 -69 z "},"Ο":{"ha":972,"x_min":35,"x_max":938,"o":"m 486 -94 q 304 -60 388 -94 q 161 42 221 -25 q 68 205 101 108 q 35 425 35 301 q 67 652 35 553 q 160 819 100 751 q 303 923 219 888 q 486 958 386 958 q 669 923 586 958 q 813 819 753 888 q 905 652 872 751 q 938 425 938 553 q 904 205 938 301 q 811 42 871 108 q 668 -60 751 -25 q 486 -94 585 -94 m 486 793 q 375 765 422 793 q 297 687 328 736 q 252 570 267 638 q 238 425 238 503 q 253 283 238 347 q 301 171 269 218 q 378 98 332 124 q 486 72 425 72 q 594 98 547 72 q 672 171 640 124 q 719 283 703 218 q 735 425 735 347 q 720 570 735 503 q 675 687 706 638 q 597 765 644 736 q 486 793 550 793 z "},"Π":{"ha":917,"x_min":89,"x_max":826,"o":"m 826 -71 l 617 -71 l 617 772 l 299 772 l 299 -71 l 89 -71 l 89 942 l 826 942 l 826 -71 z "},"Ρ":{"ha":774,"x_min":75,"x_max":747,"o":"m 417 939 q 666 863 585 939 q 747 631 747 788 q 665 392 747 476 q 417 307 583 307 l 281 307 l 281 -68 l 75 -68 l 75 939 l 417 939 m 411 478 q 508 513 475 478 q 542 628 542 547 q 508 738 542 708 q 411 768 475 768 l 281 768 l 281 478 l 411 478 z "},"Σ":{"ha":792,"x_min":51,"x_max":750,"o":"m 51 -68 l 51 22 l 450 435 l 51 817 l 51 939 l 749 939 l 749 769 l 351 769 l 701 446 l 367 103 l 750 103 l 750 -68 l 51 -68 z "},"Τ":{"ha":736,"x_min":-4,"x_max":740,"o":"m -4 768 l -4 939 l 740 939 l 740 768 l 468 768 l 468 -68 l 258 -68 l 258 768 l -4 768 z "},"Υ":{"ha":833,"x_min":-22,"x_max":854,"o":"m 310 369 l -22 939 l 203 939 l 415 557 l 632 939 l 854 939 l 519 371 l 519 -68 l 310 -68 l 310 369 z "},"Φ":{"ha":889,"x_min":56,"x_max":832,"o":"m 542 790 q 659 746 606 776 q 751 669 713 715 q 811 561 790 622 q 832 425 832 500 q 811 289 832 350 q 751 181 790 228 q 659 103 713 135 q 542 60 606 72 l 542 -68 l 344 -68 l 344 60 q 227 104 281 74 q 135 182 174 135 q 76 290 97 229 q 56 425 56 351 q 76 560 56 499 q 135 668 97 621 q 227 746 174 715 q 344 790 281 776 l 344 940 l 542 940 l 542 790 m 636 425 q 542 614 636 563 l 542 236 q 636 425 636 286 m 251 426 q 344 238 251 289 l 344 613 q 251 426 251 561 z "},"Χ":{"ha":819,"x_min":-24,"x_max":843,"o":"m 306 436 l -19 938 l 207 938 l 410 613 l 614 939 l 843 939 l 515 436 l 843 -68 l 617 -68 l 410 258 l 204 -68 l -24 -68 l 306 436 z "},"Ψ":{"ha":944,"x_min":65,"x_max":879,"o":"m 576 393 q 649 464 622 415 q 675 594 675 513 l 675 940 l 879 940 l 879 613 q 857 447 879 517 q 794 328 835 376 q 699 253 754 281 q 576 214 643 225 l 576 -68 l 369 -68 l 369 214 q 247 253 303 225 q 150 328 190 281 q 88 447 110 376 q 65 613 65 517 l 65 940 l 269 940 l 269 594 q 296 463 269 511 q 369 393 322 415 l 369 940 l 576 940 l 576 393 z "},"Ω":{"ha":1056,"x_min":53,"x_max":1003,"o":"m 528 782 q 415 760 463 782 q 338 698 368 738 q 294 601 308 658 q 279 476 279 544 q 333 226 279 335 q 479 61 386 118 l 479 -69 l 53 -69 l 53 100 l 197 100 q 102 272 135 174 q 69 475 69 371 q 187 823 69 699 q 528 947 304 947 q 869 823 751 947 q 986 475 986 699 q 953 272 986 371 q 858 100 921 174 l 1003 100 l 1003 -69 l 576 -69 l 576 61 q 723 226 669 118 q 776 476 776 335 q 762 601 776 544 q 717 698 747 658 q 640 760 688 738 q 528 782 593 782 z "},"α":{"ha":865,"x_min":33,"x_max":869,"o":"m 869 81 q 837 -1 854 32 q 797 -53 819 -33 q 747 -81 775 -72 q 685 -89 719 -89 q 641 -83 664 -89 q 597 -62 618 -76 q 560 -27 576 -49 q 533 26 543 -6 q 428 -65 485 -42 q 324 -87 371 -87 q 188 -58 243 -87 q 97 22 132 -29 q 48 139 63 72 q 36 281 33 206 q 58 433 39 361 q 116 560 78 506 q 213 647 154 615 q 353 679 271 679 q 401 675 375 679 q 456 657 428 671 q 513 617 485 643 q 567 549 542 592 l 600 665 l 775 610 l 640 211 q 647 142 642 169 q 660 97 653 114 q 676 74 668 81 q 692 67 685 67 q 706 80 699 67 q 722 136 714 93 l 869 81 m 458 315 q 456 397 461 360 q 438 463 451 435 q 403 506 424 490 q 353 521 382 521 q 292 496 315 521 q 254 433 268 471 q 234 353 240 396 q 226 275 228 310 q 322 69 215 69 q 382 93 357 69 q 423 153 407 117 q 447 232 439 189 q 458 315 456 275 z "},"β":{"ha":750,"x_min":89,"x_max":706,"o":"m 706 233 q 688 110 706 168 q 633 8 669 51 q 540 -60 597 -35 q 407 -85 483 -85 q 344 -78 381 -85 q 281 -56 308 -71 l 281 -250 l 89 -250 l 89 671 q 108 801 89 749 q 165 886 128 854 q 256 932 203 918 q 375 946 308 946 q 590 874 511 946 q 668 678 668 801 q 650 572 668 621 q 583 478 632 522 q 676 365 646 432 q 706 233 706 297 m 513 233 q 507 291 513 263 q 489 342 501 319 q 457 380 476 365 q 408 394 438 394 l 338 394 l 338 544 l 408 544 q 462 574 446 544 q 478 676 478 603 q 375 792 478 792 q 305 766 329 792 q 281 664 281 740 l 281 111 q 333 80 304 88 q 393 72 361 72 q 485 116 458 72 q 513 233 513 160 z "},"γ":{"ha":722,"x_min":4,"x_max":719,"o":"m 454 97 q 532 -31 501 29 q 558 -131 558 -82 q 533 -219 557 -181 q 463 -281 508 -257 q 354 -304 417 -304 q 249 -283 296 -304 q 174 -224 201 -261 q 144 -137 147 -186 q 171 -32 142 -87 q 210 36 188 0 q 260 110 232 72 l 4 614 l 181 692 l 356 299 l 543 685 l 719 610 l 454 97 m 385 -114 q 376 -83 385 -104 q 356 -39 367 -61 q 331 -83 340 -62 q 322 -115 322 -103 q 354 -154 322 -154 q 385 -114 385 -154 z "},"δ":{"ha":778,"x_min":42,"x_max":738,"o":"m 42 261 q 60 365 42 315 q 109 457 78 414 q 183 535 140 500 q 278 599 226 571 q 202 691 222 643 q 182 781 182 739 q 196 844 182 814 q 238 897 210 875 q 308 933 265 919 q 408 946 351 946 q 550 924 490 946 q 653 868 610 903 l 563 724 q 496 770 531 749 q 415 792 461 792 q 391 787 401 792 q 381 767 381 782 q 410 701 381 731 q 469 653 439 672 q 594 560 543 606 q 676 467 644 514 q 723 370 708 419 q 738 267 738 321 q 713 123 738 188 q 642 12 688 58 q 532 -60 596 -35 q 389 -86 468 -86 q 250 -65 314 -86 q 140 0 186 -43 q 68 108 94 43 q 42 261 42 174 m 535 257 q 527 327 535 297 q 502 383 519 357 q 455 434 485 408 q 382 490 425 460 q 285 401 326 458 q 243 263 243 343 q 256 172 243 208 q 290 115 269 136 q 339 83 311 93 q 396 74 367 74 q 494 117 454 74 q 535 257 535 161 z "},"ε":{"ha":653,"x_min":35,"x_max":624,"o":"m 624 114 q 510 -38 585 8 q 329 -85 435 -85 q 217 -73 271 -85 q 123 -35 164 -61 q 58 32 82 -10 q 35 132 35 74 q 43 187 35 157 q 71 244 51 217 q 122 294 90 272 q 197 325 153 315 q 135 354 161 335 q 93 396 110 374 q 69 442 76 418 q 61 485 61 465 q 85 580 61 542 q 149 642 110 618 q 238 676 189 665 q 335 686 286 686 q 492 650 424 686 q 610 528 561 614 l 454 446 q 335 532 394 532 q 258 488 258 532 q 273 448 258 464 q 313 422 288 432 q 371 408 338 411 q 440 406 404 404 l 440 242 q 287 214 336 239 q 238 135 238 189 q 262 87 238 99 q 329 75 286 75 q 405 99 375 75 q 457 183 435 122 l 624 114 z "},"ζ":{"ha":639,"x_min":36,"x_max":610,"o":"m 610 -124 q 598 -193 610 -161 q 561 -249 586 -225 q 498 -287 536 -274 q 407 -301 460 -301 q 369 -301 386 -301 q 333 -297 351 -300 q 293 -285 315 -293 q 240 -261 271 -276 l 294 -111 q 331 -126 306 -117 q 379 -139 356 -136 q 424 -121 422 -143 q 415 -87 425 -100 q 389 -65 406 -74 q 351 -51 372 -57 q 307 -39 329 -46 q 116 74 188 -6 q 39 279 44 154 q 48 401 36 342 q 87 519 60 460 q 156 642 114 579 q 256 774 197 704 l 89 774 l 89 940 l 518 940 l 518 803 q 401 685 453 746 q 312 558 349 624 q 256 424 275 493 q 242 283 238 356 q 279 166 246 206 q 379 111 313 126 q 478 82 435 99 q 550 38 521 65 q 594 -28 579 11 q 610 -124 610 -67 z "},"η":{"ha":833,"x_min":74,"x_max":858,"o":"m 688 -50 q 713 -81 688 -81 q 740 -67 726 -81 q 764 -36 753 -54 l 858 -147 q 778 -222 815 -200 q 692 -243 740 -243 q 548 -201 603 -243 q 493 -62 493 -160 l 493 419 q 461 500 493 479 q 388 521 429 521 q 326 503 356 521 q 274 442 297 486 l 274 -78 l 74 -78 l 74 663 l 274 663 l 274 633 q 303 652 286 643 q 340 667 321 661 q 379 677 360 674 q 415 681 399 681 q 526 664 475 681 q 612 615 576 647 q 667 533 647 582 q 688 421 688 485 l 688 -50 z "},"θ":{"ha":806,"x_min":50,"x_max":756,"o":"m 403 -85 q 249 -50 315 -85 q 139 50 183 -15 q 72 210 94 115 q 50 425 50 304 q 138 812 50 675 q 403 949 225 949 q 668 812 581 949 q 756 425 756 675 q 733 210 756 304 q 667 50 711 115 q 556 -50 622 -15 q 403 -85 490 -85 m 403 789 q 335 767 363 789 q 289 708 307 746 q 261 619 271 671 q 247 508 251 568 l 557 508 q 544 619 554 568 q 517 708 535 671 q 470 767 499 746 q 403 789 442 789 m 403 76 q 512 149 475 76 q 557 339 549 221 l 249 339 q 293 149 257 221 q 403 76 329 76 z "},"ι":{"ha":389,"x_min":63,"x_max":411,"o":"m 260 665 l 260 106 q 262 82 260 90 q 274 74 264 74 q 299 86 289 74 q 322 118 310 99 l 411 13 q 332 -64 371 -40 q 244 -87 293 -87 q 111 -46 160 -87 q 63 93 63 -4 l 63 665 l 260 665 z "},"κ":{"ha":669,"x_min":74,"x_max":693,"o":"m 400 357 l 690 -68 l 469 -68 l 274 226 l 271 224 l 271 -68 l 74 -68 l 74 663 l 271 663 l 271 468 l 453 661 l 693 661 l 400 357 z "},"λ":{"ha":874,"x_min":29,"x_max":889,"o":"m 382 326 l 206 -99 l 29 -32 l 293 601 l 260 707 q 235 753 249 739 q 204 769 222 767 q 184 769 196 771 q 140 758 172 767 l 99 932 q 172 948 144 944 q 225 949 199 951 q 356 903 300 943 q 443 771 413 863 l 642 158 q 660 112 650 131 q 682 92 669 93 q 702 104 693 90 q 719 151 711 118 l 889 88 q 851 6 871 39 q 808 -48 832 -28 q 753 -76 785 -68 q 679 -85 722 -85 q 538 -35 593 -85 q 453 107 482 15 l 382 326 z "},"μ":{"ha":750,"x_min":74,"x_max":688,"o":"m 482 663 l 688 663 l 688 182 q 618 -10 688 63 q 417 -83 549 -83 q 340 -74 368 -83 q 279 -47 311 -65 l 279 -344 l 74 -344 l 74 663 l 279 663 l 279 161 q 326 99 303 121 q 394 76 349 76 q 462 102 442 76 q 482 181 482 128 l 482 663 z "},"ν":{"ha":694,"x_min":0,"x_max":707,"o":"m 457 -68 l 311 -68 l 117 467 q 78 512 106 497 q 0 522 50 526 l 0 688 q 28 690 21 690 q 44 689 36 689 q 198 653 135 689 q 289 529 261 617 l 381 257 l 506 663 l 707 663 l 457 -68 z "}}}
